G04 #@! TF.GenerationSoftware,KiCad,Pcbnew,(6.0.0)*
G04 #@! TF.CreationDate,2022-02-22T23:34:22+01:00*
G04 #@! TF.ProjectId,VGADIRECTO,56474144-4952-4454-9354-4f2e6b696361,rev?*
G04 #@! TF.SameCoordinates,Original*
G04 #@! TF.FileFunction,Copper,L2,Bot*
G04 #@! TF.FilePolarity,Positive*
%FSLAX46Y46*%
G04 Gerber Fmt 4.6, Leading zero omitted, Abs format (unit mm)*
G04 Created by KiCad (PCBNEW (6.0.0)) date 2022-02-22 23:34:22*
%MOMM*%
%LPD*%
G01*
G04 APERTURE LIST*
G04 #@! TA.AperFunction,ComponentPad*
%ADD10C,4.000000*%
G04 #@! TD*
G04 #@! TA.AperFunction,ComponentPad*
%ADD11R,1.600000X1.600000*%
G04 #@! TD*
G04 #@! TA.AperFunction,ComponentPad*
%ADD12C,1.600000*%
G04 #@! TD*
G04 #@! TA.AperFunction,ComponentPad*
%ADD13C,2.000000*%
G04 #@! TD*
G04 #@! TA.AperFunction,ViaPad*
%ADD14C,0.800000*%
G04 #@! TD*
G04 #@! TA.AperFunction,Conductor*
%ADD15C,0.250000*%
G04 #@! TD*
G04 APERTURE END LIST*
D10*
X186995000Y-81770000D03*
X161995000Y-81770000D03*
D11*
X170180000Y-83820000D03*
D12*
X172470000Y-83820000D03*
X174760000Y-83820000D03*
X177050000Y-83820000D03*
X179340000Y-83820000D03*
X169035000Y-81280000D03*
X171325000Y-81280000D03*
X173615000Y-81280000D03*
X175905000Y-81280000D03*
X178195000Y-81280000D03*
X170180000Y-78740000D03*
X172470000Y-78740000D03*
X174760000Y-78740000D03*
X177050000Y-78740000D03*
X179340000Y-78740000D03*
D13*
X183109999Y-105370000D03*
X167410002Y-105370000D03*
X182510000Y-100420000D03*
X168010000Y-100420000D03*
D14*
X183642000Y-94488000D03*
X178003600Y-97708900D03*
X174544400Y-97335000D03*
X173223000Y-95663500D03*
X171450000Y-87122000D03*
D15*
X179340000Y-82985000D02*
X179340000Y-83820000D01*
X178195000Y-81840000D02*
X179340000Y-82985000D01*
X178003600Y-97251500D02*
X178003600Y-97708900D01*
X183642000Y-94488000D02*
X180767100Y-94488000D01*
X180767100Y-94488000D02*
X178003600Y-97251500D01*
X179324000Y-86614000D02*
X179324000Y-92555400D01*
X177050000Y-78740000D02*
X177482500Y-78740000D01*
X179324000Y-92555400D02*
X174544400Y-97335000D01*
X177482500Y-78740000D02*
X180848000Y-82105500D01*
X180848000Y-82105500D02*
X180848000Y-85090000D01*
X180848000Y-85090000D02*
X179324000Y-86614000D01*
X167513000Y-80923700D02*
X167513000Y-89953500D01*
X167513000Y-89953500D02*
X173223000Y-95663500D01*
X174760000Y-78740000D02*
X173490000Y-80010000D01*
X173490000Y-80010000D02*
X168426700Y-80010000D01*
X168426700Y-80010000D02*
X167513000Y-80923700D01*
X171458000Y-87122000D02*
X174760000Y-83820000D01*
X171450000Y-87122000D02*
X171458000Y-87122000D01*
M02*
