G04 #@! TF.GenerationSoftware,KiCad,Pcbnew,(6.0.0)*
G04 #@! TF.CreationDate,2022-02-22T23:34:22+01:00*
G04 #@! TF.ProjectId,VGADIRECTO,56474144-4952-4454-9354-4f2e6b696361,rev?*
G04 #@! TF.SameCoordinates,Original*
G04 #@! TF.FileFunction,Legend,Top*
G04 #@! TF.FilePolarity,Positive*
%FSLAX46Y46*%
G04 Gerber Fmt 4.6, Leading zero omitted, Abs format (unit mm)*
G04 Created by KiCad (PCBNEW (6.0.0)) date 2022-02-22 23:34:22*
%MOMM*%
%LPD*%
G01*
G04 APERTURE LIST*
G04 Aperture macros list*
%AMRoundRect*
0 Rectangle with rounded corners*
0 $1 Rounding radius*
0 $2 $3 $4 $5 $6 $7 $8 $9 X,Y pos of 4 corners*
0 Add a 4 corners polygon primitive as box body*
4,1,4,$2,$3,$4,$5,$6,$7,$8,$9,$2,$3,0*
0 Add four circle primitives for the rounded corners*
1,1,$1+$1,$2,$3*
1,1,$1+$1,$4,$5*
1,1,$1+$1,$6,$7*
1,1,$1+$1,$8,$9*
0 Add four rect primitives between the rounded corners*
20,1,$1+$1,$2,$3,$4,$5,0*
20,1,$1+$1,$4,$5,$6,$7,0*
20,1,$1+$1,$6,$7,$8,$9,0*
20,1,$1+$1,$8,$9,$2,$3,0*%
G04 Aperture macros list end*
%ADD10C,0.150000*%
%ADD11C,0.120000*%
%ADD12C,0.250000*%
%ADD13C,4.000000*%
%ADD14R,1.600000X1.600000*%
%ADD15C,1.600000*%
%ADD16RoundRect,0.250000X-0.400000X-0.625000X0.400000X-0.625000X0.400000X0.625000X-0.400000X0.625000X0*%
%ADD17R,0.300000X1.900000*%
G04 APERTURE END LIST*
D10*
X174161666Y-85882380D02*
X174161666Y-86596666D01*
X174114047Y-86739523D01*
X174018809Y-86834761D01*
X173875952Y-86882380D01*
X173780714Y-86882380D01*
X174590238Y-85977619D02*
X174637857Y-85930000D01*
X174733095Y-85882380D01*
X174971190Y-85882380D01*
X175066428Y-85930000D01*
X175114047Y-85977619D01*
X175161666Y-86072857D01*
X175161666Y-86168095D01*
X175114047Y-86310952D01*
X174542619Y-86882380D01*
X175161666Y-86882380D01*
X164552333Y-87659380D02*
X164219000Y-87183190D01*
X163980904Y-87659380D02*
X163980904Y-86659380D01*
X164361857Y-86659380D01*
X164457095Y-86707000D01*
X164504714Y-86754619D01*
X164552333Y-86849857D01*
X164552333Y-86992714D01*
X164504714Y-87087952D01*
X164457095Y-87135571D01*
X164361857Y-87183190D01*
X163980904Y-87183190D01*
X165504714Y-87659380D02*
X164933285Y-87659380D01*
X165219000Y-87659380D02*
X165219000Y-86659380D01*
X165123761Y-86802238D01*
X165028523Y-86897476D01*
X164933285Y-86945095D01*
X164599952Y-91299380D02*
X164028523Y-91299380D01*
X164314238Y-91299380D02*
X164314238Y-90299380D01*
X164219000Y-90442238D01*
X164123761Y-90537476D01*
X164028523Y-90585095D01*
X165028523Y-91299380D02*
X165028523Y-90299380D01*
X165123761Y-90918428D02*
X165409476Y-91299380D01*
X165409476Y-90632714D02*
X165028523Y-91013666D01*
X173569333Y-94813380D02*
X173236000Y-94337190D01*
X172997904Y-94813380D02*
X172997904Y-93813380D01*
X173378857Y-93813380D01*
X173474095Y-93861000D01*
X173521714Y-93908619D01*
X173569333Y-94003857D01*
X173569333Y-94146714D01*
X173521714Y-94241952D01*
X173474095Y-94289571D01*
X173378857Y-94337190D01*
X172997904Y-94337190D01*
X173950285Y-93908619D02*
X173997904Y-93861000D01*
X174093142Y-93813380D01*
X174331238Y-93813380D01*
X174426476Y-93861000D01*
X174474095Y-93908619D01*
X174521714Y-94003857D01*
X174521714Y-94099095D01*
X174474095Y-94241952D01*
X173902666Y-94813380D01*
X174521714Y-94813380D01*
X175291904Y-94077619D02*
X175339523Y-94030000D01*
X175434761Y-93982380D01*
X175672857Y-93982380D01*
X175768095Y-94030000D01*
X175815714Y-94077619D01*
X175863333Y-94172857D01*
X175863333Y-94268095D01*
X175815714Y-94410952D01*
X175244285Y-94982380D01*
X175863333Y-94982380D01*
X176720476Y-94315714D02*
X176720476Y-94982380D01*
X176482380Y-93934761D02*
X176244285Y-94649047D01*
X176863333Y-94649047D01*
X177434761Y-93982380D02*
X177530000Y-93982380D01*
X177625238Y-94030000D01*
X177672857Y-94077619D01*
X177720476Y-94172857D01*
X177768095Y-94363333D01*
X177768095Y-94601428D01*
X177720476Y-94791904D01*
X177672857Y-94887142D01*
X177625238Y-94934761D01*
X177530000Y-94982380D01*
X177434761Y-94982380D01*
X177339523Y-94934761D01*
X177291904Y-94887142D01*
X177244285Y-94791904D01*
X177196666Y-94601428D01*
X177196666Y-94363333D01*
X177244285Y-94172857D01*
X177291904Y-94077619D01*
X177339523Y-94030000D01*
X177434761Y-93982380D01*
X176363333Y-87532380D02*
X176030000Y-87056190D01*
X175791904Y-87532380D02*
X175791904Y-86532380D01*
X176172857Y-86532380D01*
X176268095Y-86580000D01*
X176315714Y-86627619D01*
X176363333Y-86722857D01*
X176363333Y-86865714D01*
X176315714Y-86960952D01*
X176268095Y-87008571D01*
X176172857Y-87056190D01*
X175791904Y-87056190D01*
X176696666Y-86532380D02*
X177315714Y-86532380D01*
X176982380Y-86913333D01*
X177125238Y-86913333D01*
X177220476Y-86960952D01*
X177268095Y-87008571D01*
X177315714Y-87103809D01*
X177315714Y-87341904D01*
X177268095Y-87437142D01*
X177220476Y-87484761D01*
X177125238Y-87532380D01*
X176839523Y-87532380D01*
X176744285Y-87484761D01*
X176696666Y-87437142D01*
X175482380Y-90600952D02*
X175387142Y-90553333D01*
X175339523Y-90505714D01*
X175291904Y-90410476D01*
X175291904Y-90362857D01*
X175339523Y-90267619D01*
X175387142Y-90220000D01*
X175482380Y-90172380D01*
X175672857Y-90172380D01*
X175768095Y-90220000D01*
X175815714Y-90267619D01*
X175863333Y-90362857D01*
X175863333Y-90410476D01*
X175815714Y-90505714D01*
X175768095Y-90553333D01*
X175672857Y-90600952D01*
X175482380Y-90600952D01*
X175387142Y-90648571D01*
X175339523Y-90696190D01*
X175291904Y-90791428D01*
X175291904Y-90981904D01*
X175339523Y-91077142D01*
X175387142Y-91124761D01*
X175482380Y-91172380D01*
X175672857Y-91172380D01*
X175768095Y-91124761D01*
X175815714Y-91077142D01*
X175863333Y-90981904D01*
X175863333Y-90791428D01*
X175815714Y-90696190D01*
X175768095Y-90648571D01*
X175672857Y-90600952D01*
X176244285Y-90267619D02*
X176291904Y-90220000D01*
X176387142Y-90172380D01*
X176625238Y-90172380D01*
X176720476Y-90220000D01*
X176768095Y-90267619D01*
X176815714Y-90362857D01*
X176815714Y-90458095D01*
X176768095Y-90600952D01*
X176196666Y-91172380D01*
X176815714Y-91172380D01*
X177434761Y-90172380D02*
X177530000Y-90172380D01*
X177625238Y-90220000D01*
X177672857Y-90267619D01*
X177720476Y-90362857D01*
X177768095Y-90553333D01*
X177768095Y-90791428D01*
X177720476Y-90981904D01*
X177672857Y-91077142D01*
X177625238Y-91124761D01*
X177530000Y-91172380D01*
X177434761Y-91172380D01*
X177339523Y-91124761D01*
X177291904Y-91077142D01*
X177244285Y-90981904D01*
X177196666Y-90791428D01*
X177196666Y-90553333D01*
X177244285Y-90362857D01*
X177291904Y-90267619D01*
X177339523Y-90220000D01*
X177434761Y-90172380D01*
X185253333Y-93543380D02*
X184920000Y-93067190D01*
X184681904Y-93543380D02*
X184681904Y-92543380D01*
X185062857Y-92543380D01*
X185158095Y-92591000D01*
X185205714Y-92638619D01*
X185253333Y-92733857D01*
X185253333Y-92876714D01*
X185205714Y-92971952D01*
X185158095Y-93019571D01*
X185062857Y-93067190D01*
X184681904Y-93067190D01*
X186110476Y-92876714D02*
X186110476Y-93543380D01*
X185872380Y-92495761D02*
X185634285Y-93210047D01*
X186253333Y-93210047D01*
X180625904Y-94077619D02*
X180673523Y-94030000D01*
X180768761Y-93982380D01*
X181006857Y-93982380D01*
X181102095Y-94030000D01*
X181149714Y-94077619D01*
X181197333Y-94172857D01*
X181197333Y-94268095D01*
X181149714Y-94410952D01*
X180578285Y-94982380D01*
X181197333Y-94982380D01*
X182054476Y-94315714D02*
X182054476Y-94982380D01*
X181816380Y-93934761D02*
X181578285Y-94649047D01*
X182197333Y-94649047D01*
X182768761Y-93982380D02*
X182864000Y-93982380D01*
X182959238Y-94030000D01*
X183006857Y-94077619D01*
X183054476Y-94172857D01*
X183102095Y-94363333D01*
X183102095Y-94601428D01*
X183054476Y-94791904D01*
X183006857Y-94887142D01*
X182959238Y-94934761D01*
X182864000Y-94982380D01*
X182768761Y-94982380D01*
X182673523Y-94934761D01*
X182625904Y-94887142D01*
X182578285Y-94791904D01*
X182530666Y-94601428D01*
X182530666Y-94363333D01*
X182578285Y-94172857D01*
X182625904Y-94077619D01*
X182673523Y-94030000D01*
X182768761Y-93982380D01*
X181824333Y-87532380D02*
X181491000Y-87056190D01*
X181252904Y-87532380D02*
X181252904Y-86532380D01*
X181633857Y-86532380D01*
X181729095Y-86580000D01*
X181776714Y-86627619D01*
X181824333Y-86722857D01*
X181824333Y-86865714D01*
X181776714Y-86960952D01*
X181729095Y-87008571D01*
X181633857Y-87056190D01*
X181252904Y-87056190D01*
X182729095Y-86532380D02*
X182252904Y-86532380D01*
X182205285Y-87008571D01*
X182252904Y-86960952D01*
X182348142Y-86913333D01*
X182586238Y-86913333D01*
X182681476Y-86960952D01*
X182729095Y-87008571D01*
X182776714Y-87103809D01*
X182776714Y-87341904D01*
X182729095Y-87437142D01*
X182681476Y-87484761D01*
X182586238Y-87532380D01*
X182348142Y-87532380D01*
X182252904Y-87484761D01*
X182205285Y-87437142D01*
X180943380Y-90600952D02*
X180848142Y-90553333D01*
X180800523Y-90505714D01*
X180752904Y-90410476D01*
X180752904Y-90362857D01*
X180800523Y-90267619D01*
X180848142Y-90220000D01*
X180943380Y-90172380D01*
X181133857Y-90172380D01*
X181229095Y-90220000D01*
X181276714Y-90267619D01*
X181324333Y-90362857D01*
X181324333Y-90410476D01*
X181276714Y-90505714D01*
X181229095Y-90553333D01*
X181133857Y-90600952D01*
X180943380Y-90600952D01*
X180848142Y-90648571D01*
X180800523Y-90696190D01*
X180752904Y-90791428D01*
X180752904Y-90981904D01*
X180800523Y-91077142D01*
X180848142Y-91124761D01*
X180943380Y-91172380D01*
X181133857Y-91172380D01*
X181229095Y-91124761D01*
X181276714Y-91077142D01*
X181324333Y-90981904D01*
X181324333Y-90791428D01*
X181276714Y-90696190D01*
X181229095Y-90648571D01*
X181133857Y-90600952D01*
X181705285Y-90267619D02*
X181752904Y-90220000D01*
X181848142Y-90172380D01*
X182086238Y-90172380D01*
X182181476Y-90220000D01*
X182229095Y-90267619D01*
X182276714Y-90362857D01*
X182276714Y-90458095D01*
X182229095Y-90600952D01*
X181657666Y-91172380D01*
X182276714Y-91172380D01*
X182895761Y-90172380D02*
X182991000Y-90172380D01*
X183086238Y-90220000D01*
X183133857Y-90267619D01*
X183181476Y-90362857D01*
X183229095Y-90553333D01*
X183229095Y-90791428D01*
X183181476Y-90981904D01*
X183133857Y-91077142D01*
X183086238Y-91124761D01*
X182991000Y-91172380D01*
X182895761Y-91172380D01*
X182800523Y-91124761D01*
X182752904Y-91077142D01*
X182705285Y-90981904D01*
X182657666Y-90791428D01*
X182657666Y-90553333D01*
X182705285Y-90362857D01*
X182752904Y-90267619D01*
X182800523Y-90220000D01*
X182895761Y-90172380D01*
X166584333Y-94305380D02*
X166251000Y-93829190D01*
X166012904Y-94305380D02*
X166012904Y-93305380D01*
X166393857Y-93305380D01*
X166489095Y-93353000D01*
X166536714Y-93400619D01*
X166584333Y-93495857D01*
X166584333Y-93638714D01*
X166536714Y-93733952D01*
X166489095Y-93781571D01*
X166393857Y-93829190D01*
X166012904Y-93829190D01*
X167441476Y-93305380D02*
X167251000Y-93305380D01*
X167155761Y-93353000D01*
X167108142Y-93400619D01*
X167012904Y-93543476D01*
X166965285Y-93733952D01*
X166965285Y-94114904D01*
X167012904Y-94210142D01*
X167060523Y-94257761D01*
X167155761Y-94305380D01*
X167346238Y-94305380D01*
X167441476Y-94257761D01*
X167489095Y-94210142D01*
X167536714Y-94114904D01*
X167536714Y-93876809D01*
X167489095Y-93781571D01*
X167441476Y-93733952D01*
X167346238Y-93686333D01*
X167155761Y-93686333D01*
X167060523Y-93733952D01*
X167012904Y-93781571D01*
X166965285Y-93876809D01*
X169195904Y-93950619D02*
X169243523Y-93903000D01*
X169338761Y-93855380D01*
X169576857Y-93855380D01*
X169672095Y-93903000D01*
X169719714Y-93950619D01*
X169767333Y-94045857D01*
X169767333Y-94141095D01*
X169719714Y-94283952D01*
X169148285Y-94855380D01*
X169767333Y-94855380D01*
X170624476Y-94188714D02*
X170624476Y-94855380D01*
X170386380Y-93807761D02*
X170148285Y-94522047D01*
X170767333Y-94522047D01*
X171338761Y-93855380D02*
X171434000Y-93855380D01*
X171529238Y-93903000D01*
X171576857Y-93950619D01*
X171624476Y-94045857D01*
X171672095Y-94236333D01*
X171672095Y-94474428D01*
X171624476Y-94664904D01*
X171576857Y-94760142D01*
X171529238Y-94807761D01*
X171434000Y-94855380D01*
X171338761Y-94855380D01*
X171243523Y-94807761D01*
X171195904Y-94760142D01*
X171148285Y-94664904D01*
X171100666Y-94474428D01*
X171100666Y-94236333D01*
X171148285Y-94045857D01*
X171195904Y-93950619D01*
X171243523Y-93903000D01*
X171338761Y-93855380D01*
X170267333Y-87532380D02*
X169934000Y-87056190D01*
X169695904Y-87532380D02*
X169695904Y-86532380D01*
X170076857Y-86532380D01*
X170172095Y-86580000D01*
X170219714Y-86627619D01*
X170267333Y-86722857D01*
X170267333Y-86865714D01*
X170219714Y-86960952D01*
X170172095Y-87008571D01*
X170076857Y-87056190D01*
X169695904Y-87056190D01*
X170600666Y-86532380D02*
X171267333Y-86532380D01*
X170838761Y-87532380D01*
X169386380Y-90600952D02*
X169291142Y-90553333D01*
X169243523Y-90505714D01*
X169195904Y-90410476D01*
X169195904Y-90362857D01*
X169243523Y-90267619D01*
X169291142Y-90220000D01*
X169386380Y-90172380D01*
X169576857Y-90172380D01*
X169672095Y-90220000D01*
X169719714Y-90267619D01*
X169767333Y-90362857D01*
X169767333Y-90410476D01*
X169719714Y-90505714D01*
X169672095Y-90553333D01*
X169576857Y-90600952D01*
X169386380Y-90600952D01*
X169291142Y-90648571D01*
X169243523Y-90696190D01*
X169195904Y-90791428D01*
X169195904Y-90981904D01*
X169243523Y-91077142D01*
X169291142Y-91124761D01*
X169386380Y-91172380D01*
X169576857Y-91172380D01*
X169672095Y-91124761D01*
X169719714Y-91077142D01*
X169767333Y-90981904D01*
X169767333Y-90791428D01*
X169719714Y-90696190D01*
X169672095Y-90648571D01*
X169576857Y-90600952D01*
X170148285Y-90267619D02*
X170195904Y-90220000D01*
X170291142Y-90172380D01*
X170529238Y-90172380D01*
X170624476Y-90220000D01*
X170672095Y-90267619D01*
X170719714Y-90362857D01*
X170719714Y-90458095D01*
X170672095Y-90600952D01*
X170100666Y-91172380D01*
X170719714Y-91172380D01*
X171338761Y-90172380D02*
X171434000Y-90172380D01*
X171529238Y-90220000D01*
X171576857Y-90267619D01*
X171624476Y-90362857D01*
X171672095Y-90553333D01*
X171672095Y-90791428D01*
X171624476Y-90981904D01*
X171576857Y-91077142D01*
X171529238Y-91124761D01*
X171434000Y-91172380D01*
X171338761Y-91172380D01*
X171243523Y-91124761D01*
X171195904Y-91077142D01*
X171148285Y-90981904D01*
X171100666Y-90791428D01*
X171100666Y-90553333D01*
X171148285Y-90362857D01*
X171195904Y-90267619D01*
X171243523Y-90220000D01*
X171338761Y-90172380D01*
X168306309Y-97367380D02*
X168306309Y-98081666D01*
X168258690Y-98224523D01*
X168163452Y-98319761D01*
X168020595Y-98367380D01*
X167925357Y-98367380D01*
X169306309Y-98367380D02*
X168734880Y-98367380D01*
X169020595Y-98367380D02*
X169020595Y-97367380D01*
X168925357Y-97510238D01*
X168830119Y-97605476D01*
X168734880Y-97653095D01*
X170075239Y-102124522D02*
X170075239Y-100854522D01*
X170075239Y-101459284D02*
X170800953Y-101459284D01*
X170800953Y-102124522D02*
X170800953Y-100854522D01*
X171405715Y-102124522D02*
X171405715Y-100854522D01*
X171708096Y-100854522D01*
X171889524Y-100914999D01*
X172010477Y-101035951D01*
X172070953Y-101156903D01*
X172131429Y-101398808D01*
X172131429Y-101580237D01*
X172070953Y-101822141D01*
X172010477Y-101943094D01*
X171889524Y-102064046D01*
X171708096Y-102124522D01*
X171405715Y-102124522D01*
X172675715Y-102124522D02*
X172675715Y-100854522D01*
X173099048Y-101761665D01*
X173522381Y-100854522D01*
X173522381Y-102124522D01*
X174127143Y-102124522D02*
X174127143Y-100854522D01*
X174429524Y-102245475D02*
X175397143Y-102245475D01*
X175639048Y-101761665D02*
X176243810Y-101761665D01*
X175518096Y-102124522D02*
X175941429Y-100854522D01*
X176364762Y-102124522D01*
X176485715Y-102245475D02*
X177453334Y-102245475D01*
X178420953Y-102124522D02*
X177695239Y-102124522D01*
X178058096Y-102124522D02*
X178058096Y-100854522D01*
X177937143Y-101035951D01*
X177816191Y-101156903D01*
X177695239Y-101217379D01*
X178965239Y-102003570D02*
X179025715Y-102064046D01*
X178965239Y-102124522D01*
X178904762Y-102064046D01*
X178965239Y-102003570D01*
X178965239Y-102124522D01*
X180114286Y-101277856D02*
X180114286Y-102124522D01*
X179811905Y-100794046D02*
X179509524Y-101701189D01*
X180295715Y-101701189D01*
D11*
X170430000Y-86384338D02*
X169930000Y-86384338D01*
X159010000Y-85490000D02*
X159010000Y-76890000D01*
X170180000Y-85951325D02*
X170430000Y-86384338D01*
X169930000Y-86384338D02*
X170180000Y-85951325D01*
X189980000Y-85490000D02*
X159010000Y-85490000D01*
X189980000Y-76890000D02*
X189980000Y-85490000D01*
X163991936Y-89937000D02*
X165446064Y-89937000D01*
X163991936Y-88117000D02*
X165446064Y-88117000D01*
X175802936Y-91800000D02*
X177257064Y-91800000D01*
X175802936Y-93620000D02*
X177257064Y-93620000D01*
X175802936Y-87990000D02*
X177257064Y-87990000D01*
X175802936Y-89810000D02*
X177257064Y-89810000D01*
X181136936Y-93620000D02*
X182591064Y-93620000D01*
X181136936Y-91800000D02*
X182591064Y-91800000D01*
X181263936Y-89810000D02*
X182718064Y-89810000D01*
X181263936Y-87990000D02*
X182718064Y-87990000D01*
X169706936Y-93493000D02*
X171161064Y-93493000D01*
X169706936Y-91673000D02*
X171161064Y-91673000D01*
X169706936Y-89810000D02*
X171161064Y-89810000D01*
X169706936Y-87990000D02*
X171161064Y-87990000D01*
D12*
X180135000Y-97990000D02*
G75*
G03*
X180135000Y-97990000I-125000J0D01*
G01*
D10*
X167685000Y-103995000D02*
X167685000Y-101795000D01*
X169385000Y-99315000D02*
X170485000Y-99315000D01*
X180535000Y-99315000D02*
X181135000Y-99315000D01*
X182835000Y-103995000D02*
X182835000Y-101795000D01*
%LPC*%
D13*
X186995000Y-81770000D03*
X161995000Y-81770000D03*
D14*
X170180000Y-83820000D03*
D15*
X172470000Y-83820000D03*
X174760000Y-83820000D03*
X177050000Y-83820000D03*
X179340000Y-83820000D03*
X169035000Y-81280000D03*
X171325000Y-81280000D03*
X173615000Y-81280000D03*
X175905000Y-81280000D03*
X178195000Y-81280000D03*
X170180000Y-78740000D03*
X172470000Y-78740000D03*
X174760000Y-78740000D03*
X177050000Y-78740000D03*
X179340000Y-78740000D03*
D16*
X163169000Y-89027000D03*
X166269000Y-89027000D03*
X174980000Y-92710000D03*
X178080000Y-92710000D03*
X174980000Y-88900000D03*
X178080000Y-88900000D03*
X180314000Y-92710000D03*
X183414000Y-92710000D03*
X180441000Y-88900000D03*
X183541000Y-88900000D03*
X168884000Y-92583000D03*
X171984000Y-92583000D03*
X168884000Y-88900000D03*
X171984000Y-88900000D03*
D17*
X171010000Y-99520000D03*
X171510000Y-99520000D03*
X172010000Y-99520000D03*
X172510000Y-99520000D03*
X173010000Y-99520000D03*
X173510000Y-99520000D03*
X174010000Y-99520000D03*
X174510000Y-99520000D03*
X175010000Y-99520000D03*
X175510000Y-99520000D03*
X176010000Y-99520000D03*
X176510000Y-99520000D03*
X177010000Y-99520000D03*
X177510000Y-99520000D03*
X178010000Y-99520000D03*
X178510000Y-99520000D03*
X179010000Y-99520000D03*
X179510000Y-99520000D03*
X180010000Y-99520000D03*
M02*
