%FSLAX45Y45*%
G04 Gerber Fmt 4.5, Leading zero omitted, Abs format (unit mm)*
G04 Created by KiCad (PCBNEW (6.0.0)) date 2022-02-22 23:35:23*
%MOMM*%
%LPD*%
G01*
G04 APERTURE LIST*
%TA.AperFunction,Profile*%
%ADD10C,0.050000*%
%TD*%
%ADD11C,0.200000*%
G04 APERTURE END LIST*
D10*
X16637000Y-9779000D02*
X16637000Y-10922000D01*
X19050000Y-8636000D02*
X19050000Y-7620000D01*
X15875000Y-8636000D02*
X16637000Y-9779000D01*
X15875000Y-7620000D02*
X15875000Y-8636000D01*
X18415000Y-10922000D02*
X18415000Y-9779000D01*
X18415000Y-10922000D02*
X16637000Y-10922000D01*
X15875000Y-7620000D02*
X19050000Y-7620000D01*
X18415000Y-9779000D02*
X19050000Y-8636000D01*
D11*
X16130119Y-11234976D02*
X16130119Y-11034976D01*
X16177738Y-11034976D01*
X16206309Y-11044500D01*
X16225357Y-11063548D01*
X16234881Y-11082595D01*
X16244405Y-11120690D01*
X16244405Y-11149262D01*
X16234881Y-11187357D01*
X16225357Y-11206405D01*
X16206309Y-11225452D01*
X16177738Y-11234976D01*
X16130119Y-11234976D01*
X16330119Y-11234976D02*
X16330119Y-11101643D01*
X16330119Y-11139738D02*
X16339643Y-11120690D01*
X16349167Y-11111167D01*
X16368214Y-11101643D01*
X16387262Y-11101643D01*
X16453928Y-11234976D02*
X16453928Y-11101643D01*
X16453928Y-11034976D02*
X16444405Y-11044500D01*
X16453928Y-11054024D01*
X16463452Y-11044500D01*
X16453928Y-11034976D01*
X16453928Y-11054024D01*
X16577738Y-11234976D02*
X16558690Y-11225452D01*
X16549167Y-11206405D01*
X16549167Y-11034976D01*
X16682500Y-11234976D02*
X16663452Y-11225452D01*
X16653928Y-11206405D01*
X16653928Y-11034976D01*
X16911071Y-11234976D02*
X16911071Y-11034976D01*
X16977738Y-11177833D01*
X17044405Y-11034976D01*
X17044405Y-11234976D01*
X17225357Y-11234976D02*
X17225357Y-11130214D01*
X17215833Y-11111167D01*
X17196786Y-11101643D01*
X17158690Y-11101643D01*
X17139643Y-11111167D01*
X17225357Y-11225452D02*
X17206310Y-11234976D01*
X17158690Y-11234976D01*
X17139643Y-11225452D01*
X17130119Y-11206405D01*
X17130119Y-11187357D01*
X17139643Y-11168310D01*
X17158690Y-11158786D01*
X17206310Y-11158786D01*
X17225357Y-11149262D01*
X17320595Y-11101643D02*
X17320595Y-11301643D01*
X17320595Y-11111167D02*
X17339643Y-11101643D01*
X17377738Y-11101643D01*
X17396786Y-11111167D01*
X17406310Y-11120690D01*
X17415833Y-11139738D01*
X17415833Y-11196881D01*
X17406310Y-11215928D01*
X17396786Y-11225452D01*
X17377738Y-11234976D01*
X17339643Y-11234976D01*
X17320595Y-11225452D01*
X17501548Y-11215928D02*
X17511071Y-11225452D01*
X17501548Y-11234976D01*
X17492024Y-11225452D01*
X17501548Y-11215928D01*
X17501548Y-11234976D01*
X17501548Y-11111167D02*
X17511071Y-11120690D01*
X17501548Y-11130214D01*
X17492024Y-11120690D01*
X17501548Y-11111167D01*
X17501548Y-11130214D01*
M02*
