G04 #@! TF.GenerationSoftware,KiCad,Pcbnew,(6.0.0)*
G04 #@! TF.CreationDate,2022-03-22T13:40:09+01:00*
G04 #@! TF.ProjectId,atlas_pipico_v02,61746c61-735f-4706-9970-69636f5f7630,rev?*
G04 #@! TF.SameCoordinates,Original*
G04 #@! TF.FileFunction,Legend,Bot*
G04 #@! TF.FilePolarity,Positive*
%FSLAX46Y46*%
G04 Gerber Fmt 4.6, Leading zero omitted, Abs format (unit mm)*
G04 Created by KiCad (PCBNEW (6.0.0)) date 2022-03-22 13:40:09*
%MOMM*%
%LPD*%
G01*
G04 APERTURE LIST*
%ADD10C,0.250000*%
%ADD11R,1.700000X1.700000*%
%ADD12O,1.700000X1.700000*%
%ADD13O,1.500000X1.500000*%
%ADD14O,1.800000X1.800000*%
%ADD15C,2.000000*%
G04 APERTURE END LIST*
D10*
X148178571Y-87093928D02*
X148178571Y-86760595D01*
X148702380Y-86760595D02*
X147702380Y-86760595D01*
X147702380Y-87236785D01*
X147702380Y-87808214D02*
X147702380Y-87998690D01*
X147750000Y-88093928D01*
X147845238Y-88189166D01*
X148035714Y-88236785D01*
X148369047Y-88236785D01*
X148559523Y-88189166D01*
X148654761Y-88093928D01*
X148702380Y-87998690D01*
X148702380Y-87808214D01*
X148654761Y-87712976D01*
X148559523Y-87617738D01*
X148369047Y-87570119D01*
X148035714Y-87570119D01*
X147845238Y-87617738D01*
X147750000Y-87712976D01*
X147702380Y-87808214D01*
X148702380Y-89236785D02*
X148226190Y-88903452D01*
X148702380Y-88665357D02*
X147702380Y-88665357D01*
X147702380Y-89046309D01*
X147750000Y-89141547D01*
X147797619Y-89189166D01*
X147892857Y-89236785D01*
X148035714Y-89236785D01*
X148130952Y-89189166D01*
X148178571Y-89141547D01*
X148226190Y-89046309D01*
X148226190Y-88665357D01*
X148416666Y-90379642D02*
X148416666Y-90855833D01*
X148702380Y-90284404D02*
X147702380Y-90617738D01*
X148702380Y-90951071D01*
X148035714Y-91141547D02*
X148035714Y-91522500D01*
X147702380Y-91284404D02*
X148559523Y-91284404D01*
X148654761Y-91332023D01*
X148702380Y-91427261D01*
X148702380Y-91522500D01*
X148702380Y-91998690D02*
X148654761Y-91903452D01*
X148559523Y-91855833D01*
X147702380Y-91855833D01*
X148702380Y-92808214D02*
X148178571Y-92808214D01*
X148083333Y-92760595D01*
X148035714Y-92665357D01*
X148035714Y-92474880D01*
X148083333Y-92379642D01*
X148654761Y-92808214D02*
X148702380Y-92712976D01*
X148702380Y-92474880D01*
X148654761Y-92379642D01*
X148559523Y-92332023D01*
X148464285Y-92332023D01*
X148369047Y-92379642D01*
X148321428Y-92474880D01*
X148321428Y-92712976D01*
X148273809Y-92808214D01*
X148654761Y-93236785D02*
X148702380Y-93332023D01*
X148702380Y-93522500D01*
X148654761Y-93617738D01*
X148559523Y-93665357D01*
X148511904Y-93665357D01*
X148416666Y-93617738D01*
X148369047Y-93522500D01*
X148369047Y-93379642D01*
X148321428Y-93284404D01*
X148226190Y-93236785D01*
X148178571Y-93236785D01*
X148083333Y-93284404D01*
X148035714Y-93379642D01*
X148035714Y-93522500D01*
X148083333Y-93617738D01*
X148178571Y-94427261D02*
X148178571Y-94093928D01*
X148702380Y-94093928D02*
X147702380Y-94093928D01*
X147702380Y-94570119D01*
X148702380Y-94951071D02*
X147702380Y-94951071D01*
X147702380Y-95332023D01*
X147750000Y-95427261D01*
X147797619Y-95474880D01*
X147892857Y-95522500D01*
X148035714Y-95522500D01*
X148130952Y-95474880D01*
X148178571Y-95427261D01*
X148226190Y-95332023D01*
X148226190Y-94951071D01*
X147750000Y-96474880D02*
X147702380Y-96379642D01*
X147702380Y-96236785D01*
X147750000Y-96093928D01*
X147845238Y-95998690D01*
X147940476Y-95951071D01*
X148130952Y-95903452D01*
X148273809Y-95903452D01*
X148464285Y-95951071D01*
X148559523Y-95998690D01*
X148654761Y-96093928D01*
X148702380Y-96236785D01*
X148702380Y-96332023D01*
X148654761Y-96474880D01*
X148607142Y-96522500D01*
X148273809Y-96522500D01*
X148273809Y-96332023D01*
X148416666Y-96903452D02*
X148416666Y-97379642D01*
X148702380Y-96808214D02*
X147702380Y-97141547D01*
X148702380Y-97474880D01*
X148321428Y-98570119D02*
X148321428Y-99332023D01*
X148702380Y-100570119D02*
X147702380Y-100570119D01*
X147702380Y-100951071D01*
X147750000Y-101046309D01*
X147797619Y-101093928D01*
X147892857Y-101141547D01*
X148035714Y-101141547D01*
X148130952Y-101093928D01*
X148178571Y-101046309D01*
X148226190Y-100951071D01*
X148226190Y-100570119D01*
X148702380Y-101570119D02*
X148035714Y-101570119D01*
X147702380Y-101570119D02*
X147750000Y-101522500D01*
X147797619Y-101570119D01*
X147750000Y-101617738D01*
X147702380Y-101570119D01*
X147797619Y-101570119D01*
X148702380Y-102046309D02*
X147702380Y-102046309D01*
X147702380Y-102427261D01*
X147750000Y-102522500D01*
X147797619Y-102570119D01*
X147892857Y-102617738D01*
X148035714Y-102617738D01*
X148130952Y-102570119D01*
X148178571Y-102522500D01*
X148226190Y-102427261D01*
X148226190Y-102046309D01*
X148702380Y-103046309D02*
X148035714Y-103046309D01*
X147702380Y-103046309D02*
X147750000Y-102998690D01*
X147797619Y-103046309D01*
X147750000Y-103093928D01*
X147702380Y-103046309D01*
X147797619Y-103046309D01*
X148654761Y-103951071D02*
X148702380Y-103855833D01*
X148702380Y-103665357D01*
X148654761Y-103570119D01*
X148607142Y-103522500D01*
X148511904Y-103474880D01*
X148226190Y-103474880D01*
X148130952Y-103522500D01*
X148083333Y-103570119D01*
X148035714Y-103665357D01*
X148035714Y-103855833D01*
X148083333Y-103951071D01*
X148702380Y-104522500D02*
X148654761Y-104427261D01*
X148607142Y-104379642D01*
X148511904Y-104332023D01*
X148226190Y-104332023D01*
X148130952Y-104379642D01*
X148083333Y-104427261D01*
X148035714Y-104522500D01*
X148035714Y-104665357D01*
X148083333Y-104760595D01*
X148130952Y-104808214D01*
X148226190Y-104855833D01*
X148511904Y-104855833D01*
X148607142Y-104808214D01*
X148654761Y-104760595D01*
X148702380Y-104665357D01*
X148702380Y-104522500D01*
X148321428Y-105284404D02*
X148321428Y-106046309D01*
X148702380Y-106522500D02*
X147702380Y-106522500D01*
X148416666Y-106855833D01*
X147702380Y-107189166D01*
X148702380Y-107189166D01*
X148702380Y-107665357D02*
X147702380Y-107665357D01*
X148702380Y-108236785D02*
X148130952Y-107808214D01*
X147702380Y-108236785D02*
X148273809Y-107665357D01*
X148702380Y-109236785D02*
X148226190Y-108903452D01*
X148702380Y-108665357D02*
X147702380Y-108665357D01*
X147702380Y-109046309D01*
X147750000Y-109141547D01*
X147797619Y-109189166D01*
X147892857Y-109236785D01*
X148035714Y-109236785D01*
X148130952Y-109189166D01*
X148178571Y-109141547D01*
X148226190Y-109046309D01*
X148226190Y-108665357D01*
X148702380Y-109665357D02*
X147702380Y-109665357D01*
X148083333Y-109665357D02*
X148035714Y-109760595D01*
X148035714Y-109951071D01*
X148083333Y-110046309D01*
X148130952Y-110093928D01*
X148226190Y-110141547D01*
X148511904Y-110141547D01*
X148607142Y-110093928D01*
X148654761Y-110046309D01*
X148702380Y-109951071D01*
X148702380Y-109760595D01*
X148654761Y-109665357D01*
X148035714Y-110998690D02*
X148702380Y-110998690D01*
X148035714Y-110570119D02*
X148559523Y-110570119D01*
X148654761Y-110617738D01*
X148702380Y-110712976D01*
X148702380Y-110855833D01*
X148654761Y-110951071D01*
X148607142Y-110998690D01*
X148654761Y-111427261D02*
X148702380Y-111522500D01*
X148702380Y-111712976D01*
X148654761Y-111808214D01*
X148559523Y-111855833D01*
X148511904Y-111855833D01*
X148416666Y-111808214D01*
X148369047Y-111712976D01*
X148369047Y-111570119D01*
X148321428Y-111474880D01*
X148226190Y-111427261D01*
X148178571Y-111427261D01*
X148083333Y-111474880D01*
X148035714Y-111570119D01*
X148035714Y-111712976D01*
X148083333Y-111808214D01*
X148321428Y-112284404D02*
X148321428Y-113046309D01*
X148416666Y-113474880D02*
X148416666Y-113951071D01*
X148702380Y-113379642D02*
X147702380Y-113712976D01*
X148702380Y-114046309D01*
X148702380Y-114808214D02*
X147702380Y-114808214D01*
X148654761Y-114808214D02*
X148702380Y-114712976D01*
X148702380Y-114522500D01*
X148654761Y-114427261D01*
X148607142Y-114379642D01*
X148511904Y-114332023D01*
X148226190Y-114332023D01*
X148130952Y-114379642D01*
X148083333Y-114427261D01*
X148035714Y-114522500D01*
X148035714Y-114712976D01*
X148083333Y-114808214D01*
X148702380Y-115712976D02*
X148178571Y-115712976D01*
X148083333Y-115665357D01*
X148035714Y-115570119D01*
X148035714Y-115379642D01*
X148083333Y-115284404D01*
X148654761Y-115712976D02*
X148702380Y-115617738D01*
X148702380Y-115379642D01*
X148654761Y-115284404D01*
X148559523Y-115236785D01*
X148464285Y-115236785D01*
X148369047Y-115284404D01*
X148321428Y-115379642D01*
X148321428Y-115617738D01*
X148273809Y-115712976D01*
X148035714Y-116189166D02*
X149035714Y-116189166D01*
X148083333Y-116189166D02*
X148035714Y-116284404D01*
X148035714Y-116474880D01*
X148083333Y-116570119D01*
X148130952Y-116617738D01*
X148226190Y-116665357D01*
X148511904Y-116665357D01*
X148607142Y-116617738D01*
X148654761Y-116570119D01*
X148702380Y-116474880D01*
X148702380Y-116284404D01*
X148654761Y-116189166D01*
X148702380Y-117522500D02*
X148178571Y-117522500D01*
X148083333Y-117474880D01*
X148035714Y-117379642D01*
X148035714Y-117189166D01*
X148083333Y-117093928D01*
X148654761Y-117522500D02*
X148702380Y-117427261D01*
X148702380Y-117189166D01*
X148654761Y-117093928D01*
X148559523Y-117046309D01*
X148464285Y-117046309D01*
X148369047Y-117093928D01*
X148321428Y-117189166D01*
X148321428Y-117427261D01*
X148273809Y-117522500D01*
X148035714Y-117855833D02*
X148035714Y-118236785D01*
X147702380Y-117998690D02*
X148559523Y-117998690D01*
X148654761Y-118046309D01*
X148702380Y-118141547D01*
X148702380Y-118236785D01*
X148654761Y-118951071D02*
X148702380Y-118855833D01*
X148702380Y-118665357D01*
X148654761Y-118570119D01*
X148559523Y-118522500D01*
X148178571Y-118522500D01*
X148083333Y-118570119D01*
X148035714Y-118665357D01*
X148035714Y-118855833D01*
X148083333Y-118951071D01*
X148178571Y-118998690D01*
X148273809Y-118998690D01*
X148369047Y-118522500D01*
X148702380Y-119427261D02*
X148035714Y-119427261D01*
X148226190Y-119427261D02*
X148130952Y-119474880D01*
X148083333Y-119522500D01*
X148035714Y-119617738D01*
X148035714Y-119712976D01*
X150312380Y-86760595D02*
X149312380Y-86760595D01*
X150312380Y-87189166D02*
X149788571Y-87189166D01*
X149693333Y-87141547D01*
X149645714Y-87046309D01*
X149645714Y-86903452D01*
X149693333Y-86808214D01*
X149740952Y-86760595D01*
X149645714Y-87522500D02*
X149645714Y-87903452D01*
X149312380Y-87665357D02*
X150169523Y-87665357D01*
X150264761Y-87712976D01*
X150312380Y-87808214D01*
X150312380Y-87903452D01*
X149645714Y-88093928D02*
X149645714Y-88474880D01*
X149312380Y-88236785D02*
X150169523Y-88236785D01*
X150264761Y-88284404D01*
X150312380Y-88379642D01*
X150312380Y-88474880D01*
X149645714Y-88808214D02*
X150645714Y-88808214D01*
X149693333Y-88808214D02*
X149645714Y-88903452D01*
X149645714Y-89093928D01*
X149693333Y-89189166D01*
X149740952Y-89236785D01*
X149836190Y-89284404D01*
X150121904Y-89284404D01*
X150217142Y-89236785D01*
X150264761Y-89189166D01*
X150312380Y-89093928D01*
X150312380Y-88903452D01*
X150264761Y-88808214D01*
X150264761Y-89665357D02*
X150312380Y-89760595D01*
X150312380Y-89951071D01*
X150264761Y-90046309D01*
X150169523Y-90093928D01*
X150121904Y-90093928D01*
X150026666Y-90046309D01*
X149979047Y-89951071D01*
X149979047Y-89808214D01*
X149931428Y-89712976D01*
X149836190Y-89665357D01*
X149788571Y-89665357D01*
X149693333Y-89712976D01*
X149645714Y-89808214D01*
X149645714Y-89951071D01*
X149693333Y-90046309D01*
X150217142Y-90522500D02*
X150264761Y-90570119D01*
X150312380Y-90522500D01*
X150264761Y-90474880D01*
X150217142Y-90522500D01*
X150312380Y-90522500D01*
X149693333Y-90522500D02*
X149740952Y-90570119D01*
X149788571Y-90522500D01*
X149740952Y-90474880D01*
X149693333Y-90522500D01*
X149788571Y-90522500D01*
X149264761Y-91712976D02*
X150550476Y-90855833D01*
X149264761Y-92760595D02*
X150550476Y-91903452D01*
X149645714Y-93522500D02*
X150455238Y-93522500D01*
X150550476Y-93474880D01*
X150598095Y-93427261D01*
X150645714Y-93332023D01*
X150645714Y-93189166D01*
X150598095Y-93093928D01*
X150264761Y-93522500D02*
X150312380Y-93427261D01*
X150312380Y-93236785D01*
X150264761Y-93141547D01*
X150217142Y-93093928D01*
X150121904Y-93046309D01*
X149836190Y-93046309D01*
X149740952Y-93093928D01*
X149693333Y-93141547D01*
X149645714Y-93236785D01*
X149645714Y-93427261D01*
X149693333Y-93522500D01*
X150312380Y-93998690D02*
X149645714Y-93998690D01*
X149312380Y-93998690D02*
X149360000Y-93951071D01*
X149407619Y-93998690D01*
X149360000Y-94046309D01*
X149312380Y-93998690D01*
X149407619Y-93998690D01*
X149645714Y-94332023D02*
X149645714Y-94712976D01*
X149312380Y-94474880D02*
X150169523Y-94474880D01*
X150264761Y-94522500D01*
X150312380Y-94617738D01*
X150312380Y-94712976D01*
X150312380Y-95046309D02*
X149312380Y-95046309D01*
X150312380Y-95474880D02*
X149788571Y-95474880D01*
X149693333Y-95427261D01*
X149645714Y-95332023D01*
X149645714Y-95189166D01*
X149693333Y-95093928D01*
X149740952Y-95046309D01*
X149645714Y-96379642D02*
X150312380Y-96379642D01*
X149645714Y-95951071D02*
X150169523Y-95951071D01*
X150264761Y-95998690D01*
X150312380Y-96093928D01*
X150312380Y-96236785D01*
X150264761Y-96332023D01*
X150217142Y-96379642D01*
X150312380Y-96855833D02*
X149312380Y-96855833D01*
X149693333Y-96855833D02*
X149645714Y-96951071D01*
X149645714Y-97141547D01*
X149693333Y-97236785D01*
X149740952Y-97284404D01*
X149836190Y-97332023D01*
X150121904Y-97332023D01*
X150217142Y-97284404D01*
X150264761Y-97236785D01*
X150312380Y-97141547D01*
X150312380Y-96951071D01*
X150264761Y-96855833D01*
X150217142Y-97760595D02*
X150264761Y-97808214D01*
X150312380Y-97760595D01*
X150264761Y-97712976D01*
X150217142Y-97760595D01*
X150312380Y-97760595D01*
X150264761Y-98665357D02*
X150312380Y-98570119D01*
X150312380Y-98379642D01*
X150264761Y-98284404D01*
X150217142Y-98236785D01*
X150121904Y-98189166D01*
X149836190Y-98189166D01*
X149740952Y-98236785D01*
X149693333Y-98284404D01*
X149645714Y-98379642D01*
X149645714Y-98570119D01*
X149693333Y-98665357D01*
X150312380Y-99236785D02*
X150264761Y-99141547D01*
X150217142Y-99093928D01*
X150121904Y-99046309D01*
X149836190Y-99046309D01*
X149740952Y-99093928D01*
X149693333Y-99141547D01*
X149645714Y-99236785D01*
X149645714Y-99379642D01*
X149693333Y-99474880D01*
X149740952Y-99522500D01*
X149836190Y-99570119D01*
X150121904Y-99570119D01*
X150217142Y-99522500D01*
X150264761Y-99474880D01*
X150312380Y-99379642D01*
X150312380Y-99236785D01*
X150312380Y-99998690D02*
X149645714Y-99998690D01*
X149740952Y-99998690D02*
X149693333Y-100046309D01*
X149645714Y-100141547D01*
X149645714Y-100284404D01*
X149693333Y-100379642D01*
X149788571Y-100427261D01*
X150312380Y-100427261D01*
X149788571Y-100427261D02*
X149693333Y-100474880D01*
X149645714Y-100570119D01*
X149645714Y-100712976D01*
X149693333Y-100808214D01*
X149788571Y-100855833D01*
X150312380Y-100855833D01*
X149264761Y-102046309D02*
X150550476Y-101189166D01*
X150026666Y-102332023D02*
X150026666Y-102808214D01*
X150312380Y-102236785D02*
X149312380Y-102570119D01*
X150312380Y-102903452D01*
X149645714Y-103093928D02*
X149645714Y-103474880D01*
X149312380Y-103236785D02*
X150169523Y-103236785D01*
X150264761Y-103284404D01*
X150312380Y-103379642D01*
X150312380Y-103474880D01*
X150312380Y-103951071D02*
X150264761Y-103855833D01*
X150169523Y-103808214D01*
X149312380Y-103808214D01*
X150312380Y-104760595D02*
X149788571Y-104760595D01*
X149693333Y-104712976D01*
X149645714Y-104617738D01*
X149645714Y-104427261D01*
X149693333Y-104332023D01*
X150264761Y-104760595D02*
X150312380Y-104665357D01*
X150312380Y-104427261D01*
X150264761Y-104332023D01*
X150169523Y-104284404D01*
X150074285Y-104284404D01*
X149979047Y-104332023D01*
X149931428Y-104427261D01*
X149931428Y-104665357D01*
X149883809Y-104760595D01*
X150264761Y-105189166D02*
X150312380Y-105284404D01*
X150312380Y-105474880D01*
X150264761Y-105570119D01*
X150169523Y-105617738D01*
X150121904Y-105617738D01*
X150026666Y-105570119D01*
X149979047Y-105474880D01*
X149979047Y-105332023D01*
X149931428Y-105236785D01*
X149836190Y-105189166D01*
X149788571Y-105189166D01*
X149693333Y-105236785D01*
X149645714Y-105332023D01*
X149645714Y-105474880D01*
X149693333Y-105570119D01*
X149788571Y-106379642D02*
X149788571Y-106046309D01*
X150312380Y-106046309D02*
X149312380Y-106046309D01*
X149312380Y-106522499D01*
X150312380Y-106903452D02*
X149312380Y-106903452D01*
X149312380Y-107284404D01*
X149360000Y-107379642D01*
X149407619Y-107427261D01*
X149502857Y-107474880D01*
X149645714Y-107474880D01*
X149740952Y-107427261D01*
X149788571Y-107379642D01*
X149836190Y-107284404D01*
X149836190Y-106903452D01*
X149360000Y-108427261D02*
X149312380Y-108332023D01*
X149312380Y-108189166D01*
X149360000Y-108046309D01*
X149455238Y-107951071D01*
X149550476Y-107903452D01*
X149740952Y-107855833D01*
X149883809Y-107855833D01*
X150074285Y-107903452D01*
X150169523Y-107951071D01*
X150264761Y-108046309D01*
X150312380Y-108189166D01*
X150312380Y-108284404D01*
X150264761Y-108427261D01*
X150217142Y-108474880D01*
X149883809Y-108474880D01*
X149883809Y-108284404D01*
X150026666Y-108855833D02*
X150026666Y-109332023D01*
X150312380Y-108760595D02*
X149312380Y-109093928D01*
X150312380Y-109427261D01*
X151922380Y-87236785D02*
X151922380Y-86760595D01*
X150922380Y-86760595D01*
X151922380Y-87570119D02*
X151255714Y-87570119D01*
X150922380Y-87570119D02*
X150970000Y-87522500D01*
X151017619Y-87570119D01*
X150970000Y-87617738D01*
X150922380Y-87570119D01*
X151017619Y-87570119D01*
X151874761Y-88474880D02*
X151922380Y-88379642D01*
X151922380Y-88189166D01*
X151874761Y-88093928D01*
X151827142Y-88046309D01*
X151731904Y-87998690D01*
X151446190Y-87998690D01*
X151350952Y-88046309D01*
X151303333Y-88093928D01*
X151255714Y-88189166D01*
X151255714Y-88379642D01*
X151303333Y-88474880D01*
X151874761Y-89284404D02*
X151922380Y-89189166D01*
X151922380Y-88998690D01*
X151874761Y-88903452D01*
X151779523Y-88855833D01*
X151398571Y-88855833D01*
X151303333Y-88903452D01*
X151255714Y-88998690D01*
X151255714Y-89189166D01*
X151303333Y-89284404D01*
X151398571Y-89332023D01*
X151493809Y-89332023D01*
X151589047Y-88855833D01*
X151255714Y-89760595D02*
X151922380Y-89760595D01*
X151350952Y-89760595D02*
X151303333Y-89808214D01*
X151255714Y-89903452D01*
X151255714Y-90046309D01*
X151303333Y-90141547D01*
X151398571Y-90189166D01*
X151922380Y-90189166D01*
X151874761Y-90617738D02*
X151922380Y-90712976D01*
X151922380Y-90903452D01*
X151874761Y-90998690D01*
X151779523Y-91046309D01*
X151731904Y-91046309D01*
X151636666Y-90998690D01*
X151589047Y-90903452D01*
X151589047Y-90760595D01*
X151541428Y-90665357D01*
X151446190Y-90617738D01*
X151398571Y-90617738D01*
X151303333Y-90665357D01*
X151255714Y-90760595D01*
X151255714Y-90903452D01*
X151303333Y-90998690D01*
X151874761Y-91855833D02*
X151922380Y-91760595D01*
X151922380Y-91570119D01*
X151874761Y-91474880D01*
X151779523Y-91427261D01*
X151398571Y-91427261D01*
X151303333Y-91474880D01*
X151255714Y-91570119D01*
X151255714Y-91760595D01*
X151303333Y-91855833D01*
X151398571Y-91903452D01*
X151493809Y-91903452D01*
X151589047Y-91427261D01*
X151922380Y-92760595D02*
X150922380Y-92760595D01*
X151874761Y-92760595D02*
X151922380Y-92665357D01*
X151922380Y-92474880D01*
X151874761Y-92379642D01*
X151827142Y-92332023D01*
X151731904Y-92284404D01*
X151446190Y-92284404D01*
X151350952Y-92332023D01*
X151303333Y-92379642D01*
X151255714Y-92474880D01*
X151255714Y-92665357D01*
X151303333Y-92760595D01*
X151255714Y-94427261D02*
X151922380Y-94427261D01*
X151255714Y-93998690D02*
X151779523Y-93998690D01*
X151874761Y-94046309D01*
X151922380Y-94141547D01*
X151922380Y-94284404D01*
X151874761Y-94379642D01*
X151827142Y-94427261D01*
X151255714Y-94903452D02*
X151922380Y-94903452D01*
X151350952Y-94903452D02*
X151303333Y-94951071D01*
X151255714Y-95046309D01*
X151255714Y-95189166D01*
X151303333Y-95284404D01*
X151398571Y-95332023D01*
X151922380Y-95332023D01*
X151922380Y-96236785D02*
X150922380Y-96236785D01*
X151874761Y-96236785D02*
X151922380Y-96141547D01*
X151922380Y-95951071D01*
X151874761Y-95855833D01*
X151827142Y-95808214D01*
X151731904Y-95760595D01*
X151446190Y-95760595D01*
X151350952Y-95808214D01*
X151303333Y-95855833D01*
X151255714Y-95951071D01*
X151255714Y-96141547D01*
X151303333Y-96236785D01*
X151874761Y-97093928D02*
X151922380Y-96998690D01*
X151922380Y-96808214D01*
X151874761Y-96712976D01*
X151779523Y-96665357D01*
X151398571Y-96665357D01*
X151303333Y-96712976D01*
X151255714Y-96808214D01*
X151255714Y-96998690D01*
X151303333Y-97093928D01*
X151398571Y-97141547D01*
X151493809Y-97141547D01*
X151589047Y-96665357D01*
X151922380Y-97570119D02*
X151255714Y-97570119D01*
X151446190Y-97570119D02*
X151350952Y-97617738D01*
X151303333Y-97665357D01*
X151255714Y-97760595D01*
X151255714Y-97855833D01*
X151827142Y-99522500D02*
X151874761Y-99474880D01*
X151922380Y-99332023D01*
X151922380Y-99236785D01*
X151874761Y-99093928D01*
X151779523Y-98998690D01*
X151684285Y-98951071D01*
X151493809Y-98903452D01*
X151350952Y-98903452D01*
X151160476Y-98951071D01*
X151065238Y-98998690D01*
X150970000Y-99093928D01*
X150922380Y-99236785D01*
X150922380Y-99332023D01*
X150970000Y-99474880D01*
X151017619Y-99522500D01*
X151874761Y-100332023D02*
X151922380Y-100236785D01*
X151922380Y-100046309D01*
X151874761Y-99951071D01*
X151779523Y-99903452D01*
X151398571Y-99903452D01*
X151303333Y-99951071D01*
X151255714Y-100046309D01*
X151255714Y-100236785D01*
X151303333Y-100332023D01*
X151398571Y-100379642D01*
X151493809Y-100379642D01*
X151589047Y-99903452D01*
X151922380Y-100808214D02*
X151255714Y-100808214D01*
X151446190Y-100808214D02*
X151350952Y-100855833D01*
X151303333Y-100903452D01*
X151255714Y-100998690D01*
X151255714Y-101093928D01*
X151255714Y-101427261D02*
X151922380Y-101427261D01*
X151350952Y-101427261D02*
X151303333Y-101474880D01*
X151255714Y-101570119D01*
X151255714Y-101712976D01*
X151303333Y-101808214D01*
X151398571Y-101855833D01*
X151922380Y-101855833D01*
X150922380Y-103284404D02*
X150922380Y-103474880D01*
X150970000Y-103570119D01*
X151065238Y-103665357D01*
X151255714Y-103712976D01*
X151589047Y-103712976D01*
X151779523Y-103665357D01*
X151874761Y-103570119D01*
X151922380Y-103474880D01*
X151922380Y-103284404D01*
X151874761Y-103189166D01*
X151779523Y-103093928D01*
X151589047Y-103046309D01*
X151255714Y-103046309D01*
X151065238Y-103093928D01*
X150970000Y-103189166D01*
X150922380Y-103284404D01*
X151922380Y-104141547D02*
X150922380Y-104141547D01*
X151398571Y-104141547D02*
X151398571Y-104712976D01*
X151922380Y-104712976D02*
X150922380Y-104712976D01*
X151922380Y-105665357D02*
X151922380Y-105189166D01*
X150922380Y-105189166D01*
X151922380Y-106760595D02*
X150922380Y-106760595D01*
X151922380Y-107189166D02*
X151398571Y-107189166D01*
X151303333Y-107141547D01*
X151255714Y-107046309D01*
X151255714Y-106903452D01*
X151303333Y-106808214D01*
X151350952Y-106760595D01*
X151255714Y-107522499D02*
X151255714Y-107903452D01*
X150922380Y-107665357D02*
X151779523Y-107665357D01*
X151874761Y-107712976D01*
X151922380Y-107808214D01*
X151922380Y-107903452D01*
X151255714Y-108093928D02*
X151255714Y-108474880D01*
X150922380Y-108236785D02*
X151779523Y-108236785D01*
X151874761Y-108284404D01*
X151922380Y-108379642D01*
X151922380Y-108474880D01*
X151255714Y-108808214D02*
X152255714Y-108808214D01*
X151303333Y-108808214D02*
X151255714Y-108903452D01*
X151255714Y-109093928D01*
X151303333Y-109189166D01*
X151350952Y-109236785D01*
X151446190Y-109284404D01*
X151731904Y-109284404D01*
X151827142Y-109236785D01*
X151874761Y-109189166D01*
X151922380Y-109093928D01*
X151922380Y-108903452D01*
X151874761Y-108808214D01*
X151827142Y-109712976D02*
X151874761Y-109760595D01*
X151922380Y-109712976D01*
X151874761Y-109665357D01*
X151827142Y-109712976D01*
X151922380Y-109712976D01*
X151303333Y-109712976D02*
X151350952Y-109760595D01*
X151398571Y-109712976D01*
X151350952Y-109665357D01*
X151303333Y-109712976D01*
X151398571Y-109712976D01*
X150874761Y-110903452D02*
X152160476Y-110046309D01*
X150874761Y-111951071D02*
X152160476Y-111093928D01*
X151922380Y-112427261D02*
X151874761Y-112332023D01*
X151827142Y-112284404D01*
X151731904Y-112236785D01*
X151446190Y-112236785D01*
X151350952Y-112284404D01*
X151303333Y-112332023D01*
X151255714Y-112427261D01*
X151255714Y-112570119D01*
X151303333Y-112665357D01*
X151350952Y-112712976D01*
X151446190Y-112760595D01*
X151731904Y-112760595D01*
X151827142Y-112712976D01*
X151874761Y-112665357D01*
X151922380Y-112570119D01*
X151922380Y-112427261D01*
X151922380Y-113189166D02*
X150922380Y-113189166D01*
X151922380Y-113617738D02*
X151398571Y-113617738D01*
X151303333Y-113570119D01*
X151255714Y-113474880D01*
X151255714Y-113332023D01*
X151303333Y-113236785D01*
X151350952Y-113189166D01*
X151255714Y-113998690D02*
X151922380Y-114189166D01*
X151446190Y-114379642D01*
X151922380Y-114570119D01*
X151255714Y-114760595D01*
X151922380Y-115141547D02*
X151255714Y-115141547D01*
X151446190Y-115141547D02*
X151350952Y-115189166D01*
X151303333Y-115236785D01*
X151255714Y-115332023D01*
X151255714Y-115427261D01*
X151827142Y-115760595D02*
X151874761Y-115808214D01*
X151922380Y-115760595D01*
X151874761Y-115712976D01*
X151827142Y-115760595D01*
X151922380Y-115760595D01*
X151922380Y-116379642D02*
X151874761Y-116284404D01*
X151827142Y-116236785D01*
X151731904Y-116189166D01*
X151446190Y-116189166D01*
X151350952Y-116236785D01*
X151303333Y-116284404D01*
X151255714Y-116379642D01*
X151255714Y-116522499D01*
X151303333Y-116617738D01*
X151350952Y-116665357D01*
X151446190Y-116712976D01*
X151731904Y-116712976D01*
X151827142Y-116665357D01*
X151874761Y-116617738D01*
X151922380Y-116522499D01*
X151922380Y-116379642D01*
X151922380Y-117141547D02*
X151255714Y-117141547D01*
X151446190Y-117141547D02*
X151350952Y-117189166D01*
X151303333Y-117236785D01*
X151255714Y-117332023D01*
X151255714Y-117427261D01*
X151255714Y-118189166D02*
X152065238Y-118189166D01*
X152160476Y-118141547D01*
X152208095Y-118093928D01*
X152255714Y-117998690D01*
X152255714Y-117855833D01*
X152208095Y-117760595D01*
X151874761Y-118189166D02*
X151922380Y-118093928D01*
X151922380Y-117903452D01*
X151874761Y-117808214D01*
X151827142Y-117760595D01*
X151731904Y-117712976D01*
X151446190Y-117712976D01*
X151350952Y-117760595D01*
X151303333Y-117808214D01*
X151255714Y-117903452D01*
X151255714Y-118093928D01*
X151303333Y-118189166D01*
X150874761Y-119379642D02*
X152160476Y-118522499D01*
X151874761Y-120141547D02*
X151922380Y-120046309D01*
X151922380Y-119855833D01*
X151874761Y-119760595D01*
X151827142Y-119712976D01*
X151731904Y-119665357D01*
X151446190Y-119665357D01*
X151350952Y-119712976D01*
X151303333Y-119760595D01*
X151255714Y-119855833D01*
X151255714Y-120046309D01*
X151303333Y-120141547D01*
X151874761Y-120951071D02*
X151922380Y-120855833D01*
X151922380Y-120665357D01*
X151874761Y-120570119D01*
X151779523Y-120522499D01*
X151398571Y-120522499D01*
X151303333Y-120570119D01*
X151255714Y-120665357D01*
X151255714Y-120855833D01*
X151303333Y-120951071D01*
X151398571Y-120998690D01*
X151493809Y-120998690D01*
X151589047Y-120522499D01*
X151922380Y-121427261D02*
X151255714Y-121427261D01*
X151446190Y-121427261D02*
X151350952Y-121474880D01*
X151303333Y-121522499D01*
X151255714Y-121617738D01*
X151255714Y-121712976D01*
X151255714Y-122046309D02*
X151922380Y-122046309D01*
X151350952Y-122046309D02*
X151303333Y-122093928D01*
X151255714Y-122189166D01*
X151255714Y-122332023D01*
X151303333Y-122427261D01*
X151398571Y-122474880D01*
X151922380Y-122474880D01*
X151922380Y-123093928D02*
X151874761Y-122998690D01*
X151827142Y-122951071D01*
X151731904Y-122903452D01*
X151446190Y-122903452D01*
X151350952Y-122951071D01*
X151303333Y-122998690D01*
X151255714Y-123093928D01*
X151255714Y-123236785D01*
X151303333Y-123332023D01*
X151350952Y-123379642D01*
X151446190Y-123427261D01*
X151731904Y-123427261D01*
X151827142Y-123379642D01*
X151874761Y-123332023D01*
X151922380Y-123236785D01*
X151922380Y-123093928D01*
X151922380Y-123855833D02*
X150922380Y-123855833D01*
X151922380Y-124284404D02*
X151398571Y-124284404D01*
X151303333Y-124236785D01*
X151255714Y-124141547D01*
X151255714Y-123998690D01*
X151303333Y-123903452D01*
X151350952Y-123855833D01*
X151922380Y-124903452D02*
X151874761Y-124808214D01*
X151779523Y-124760595D01*
X150922380Y-124760595D01*
%LPC*%
D11*
X179070000Y-87884000D03*
D12*
X179070000Y-90424000D03*
X179070000Y-92964000D03*
X179070000Y-95504000D03*
X179070000Y-98044000D03*
X179070000Y-100584000D03*
D11*
X133985000Y-91440000D03*
D12*
X133985000Y-93980000D03*
X133985000Y-96520000D03*
X133985000Y-99060000D03*
X133985000Y-101600000D03*
X133985000Y-104140000D03*
X133985000Y-106680000D03*
X133985000Y-109220000D03*
X133985000Y-111760000D03*
X133985000Y-114300000D03*
X133985000Y-116840000D03*
X133985000Y-119380000D03*
X133985000Y-121920000D03*
X133985000Y-124460000D03*
D13*
X155333000Y-82535000D03*
D14*
X150183000Y-79505000D03*
D13*
X150483000Y-82535000D03*
D14*
X155633000Y-79505000D03*
D12*
X144018000Y-79375000D03*
X144018000Y-81915000D03*
D11*
X144018000Y-84455000D03*
D12*
X144018000Y-86995000D03*
X144018000Y-89535000D03*
X144018000Y-92075000D03*
X144018000Y-94615000D03*
D11*
X144018000Y-97155000D03*
D12*
X144018000Y-99695000D03*
X144018000Y-102235000D03*
X144018000Y-104775000D03*
X144018000Y-107315000D03*
D11*
X144018000Y-109855000D03*
D12*
X144018000Y-112395000D03*
X144018000Y-114935000D03*
X144018000Y-117475000D03*
X144018000Y-120015000D03*
D11*
X144018000Y-122555000D03*
D12*
X144018000Y-125095000D03*
X144018000Y-127635000D03*
X161798000Y-127635000D03*
X161798000Y-125095000D03*
D11*
X161798000Y-122555000D03*
D12*
X161798000Y-120015000D03*
X161798000Y-117475000D03*
X161798000Y-114935000D03*
X161798000Y-112395000D03*
D11*
X161798000Y-109855000D03*
D12*
X161798000Y-107315000D03*
X161798000Y-104775000D03*
X161798000Y-102235000D03*
X161798000Y-99695000D03*
D11*
X161798000Y-97155000D03*
D12*
X161798000Y-94615000D03*
X161798000Y-92075000D03*
X161798000Y-89535000D03*
X161798000Y-86995000D03*
D11*
X161798000Y-84455000D03*
D12*
X161798000Y-81915000D03*
X161798000Y-79375000D03*
X150368000Y-127405000D03*
D11*
X152908000Y-127405000D03*
D12*
X155448000Y-127405000D03*
D11*
X154940000Y-91440000D03*
D12*
X154940000Y-93980000D03*
X154940000Y-96520000D03*
X154940000Y-99060000D03*
X154940000Y-101600000D03*
X154940000Y-104140000D03*
X154940000Y-106680000D03*
X154940000Y-109220000D03*
X154940000Y-111760000D03*
X154940000Y-114300000D03*
X154940000Y-116840000D03*
X154940000Y-119380000D03*
X154940000Y-121920000D03*
X154940000Y-124460000D03*
D11*
X170180000Y-80010000D03*
D12*
X170180000Y-82550000D03*
D11*
X169545000Y-115570000D03*
D12*
X169545000Y-118110000D03*
X169545000Y-120650000D03*
X169545000Y-123190000D03*
X169545000Y-125730000D03*
X169545000Y-128270000D03*
D11*
X136525000Y-91440000D03*
D12*
X136525000Y-93980000D03*
X136525000Y-96520000D03*
D15*
X176224000Y-105700000D03*
X169724000Y-105700000D03*
X169724000Y-110200000D03*
X176224000Y-110200000D03*
D11*
X176784000Y-80005000D03*
D12*
X176784000Y-82545000D03*
D11*
X179705000Y-116586000D03*
D12*
X179705000Y-119126000D03*
X179705000Y-121666000D03*
X179705000Y-124206000D03*
D11*
X133985000Y-79375000D03*
D12*
X133985000Y-81915000D03*
X133985000Y-84455000D03*
D11*
X170180000Y-87630000D03*
D12*
X170180000Y-90170000D03*
X170180000Y-92710000D03*
X170180000Y-95250000D03*
X170180000Y-97790000D03*
X170180000Y-100330000D03*
M02*
