M48
; DRILL file {KiCad (6.0.0)} date Tue Mar 22 13:40:29 2022
; FORMAT={-:-/ absolute / metric / decimal}
; #@! TF.CreationDate,2022-03-22T13:40:29+01:00
; #@! TF.GenerationSoftware,Kicad,Pcbnew,(6.0.0)
; #@! TF.FileFunction,Plated,1,2,PTH
FMAT,2
METRIC
; #@! TA.AperFunction,Plated,PTH,ComponentDrill
T1C1.000
; #@! TA.AperFunction,Plated,PTH,ComponentDrill
T2C1.020
; #@! TA.AperFunction,Plated,PTH,ComponentDrill
T3C1.100
%
G90
G05
T1
X133.985Y-79.375
X133.985Y-81.915
X133.985Y-84.455
X133.985Y-91.44
X133.985Y-93.98
X133.985Y-96.52
X133.985Y-99.06
X133.985Y-101.6
X133.985Y-104.14
X133.985Y-106.68
X133.985Y-109.22
X133.985Y-111.76
X133.985Y-114.3
X133.985Y-116.84
X133.985Y-119.38
X133.985Y-121.92
X133.985Y-124.46
X136.525Y-91.44
X136.525Y-93.98
X136.525Y-96.52
X154.94Y-91.44
X154.94Y-93.98
X154.94Y-96.52
X154.94Y-99.06
X154.94Y-101.6
X154.94Y-104.14
X154.94Y-106.68
X154.94Y-109.22
X154.94Y-111.76
X154.94Y-114.3
X154.94Y-116.84
X154.94Y-119.38
X154.94Y-121.92
X154.94Y-124.46
X169.545Y-115.57
X169.545Y-118.11
X169.545Y-120.65
X169.545Y-123.19
X169.545Y-125.73
X169.545Y-128.27
X170.18Y-80.01
X170.18Y-82.55
X170.18Y-87.63
X170.18Y-90.17
X170.18Y-92.71
X170.18Y-95.25
X170.18Y-97.79
X170.18Y-100.33
X176.784Y-80.005
X176.784Y-82.545
X179.07Y-87.884
X179.07Y-90.424
X179.07Y-92.964
X179.07Y-95.504
X179.07Y-98.044
X179.07Y-100.584
X179.705Y-116.586
X179.705Y-119.126
X179.705Y-121.666
X179.705Y-124.206
T2
X144.018Y-79.375
X144.018Y-81.915
X144.018Y-84.455
X144.018Y-86.995
X144.018Y-89.535
X144.018Y-92.075
X144.018Y-94.615
X144.018Y-97.155
X144.018Y-99.695
X144.018Y-102.235
X144.018Y-104.775
X144.018Y-107.315
X144.018Y-109.855
X144.018Y-112.395
X144.018Y-114.935
X144.018Y-117.475
X144.018Y-120.015
X144.018Y-122.555
X144.018Y-125.095
X144.018Y-127.635
X150.368Y-127.405
X152.908Y-127.405
X155.448Y-127.405
X161.798Y-79.375
X161.798Y-81.915
X161.798Y-84.455
X161.798Y-86.995
X161.798Y-89.535
X161.798Y-92.075
X161.798Y-94.615
X161.798Y-97.155
X161.798Y-99.695
X161.798Y-102.235
X161.798Y-104.775
X161.798Y-107.315
X161.798Y-109.855
X161.798Y-112.395
X161.798Y-114.935
X161.798Y-117.475
X161.798Y-120.015
X161.798Y-122.555
X161.798Y-125.095
X161.798Y-127.635
T3
X169.724Y-105.7
X169.724Y-110.2
X176.224Y-105.7
X176.224Y-110.2
T0
M30
