G04 #@! TF.GenerationSoftware,KiCad,Pcbnew,(6.0.0)*
G04 #@! TF.CreationDate,2022-03-22T13:40:09+01:00*
G04 #@! TF.ProjectId,atlas_pipico_v02,61746c61-735f-4706-9970-69636f5f7630,rev?*
G04 #@! TF.SameCoordinates,Original*
G04 #@! TF.FileFunction,Copper,L1,Top*
G04 #@! TF.FilePolarity,Positive*
%FSLAX46Y46*%
G04 Gerber Fmt 4.6, Leading zero omitted, Abs format (unit mm)*
G04 Created by KiCad (PCBNEW (6.0.0)) date 2022-03-22 13:40:09*
%MOMM*%
%LPD*%
G01*
G04 APERTURE LIST*
G04 #@! TA.AperFunction,ComponentPad*
%ADD10R,1.700000X1.700000*%
G04 #@! TD*
G04 #@! TA.AperFunction,ComponentPad*
%ADD11O,1.700000X1.700000*%
G04 #@! TD*
G04 #@! TA.AperFunction,SMDPad,CuDef*
%ADD12R,3.500000X1.700000*%
G04 #@! TD*
G04 #@! TA.AperFunction,SMDPad,CuDef*
%ADD13R,1.700000X3.500000*%
G04 #@! TD*
G04 #@! TA.AperFunction,ComponentPad*
%ADD14C,2.000000*%
G04 #@! TD*
G04 #@! TA.AperFunction,Conductor*
%ADD15C,0.250000*%
G04 #@! TD*
G04 APERTURE END LIST*
D10*
X179070000Y-87884000D03*
D11*
X179070000Y-90424000D03*
X179070000Y-92964000D03*
X179070000Y-95504000D03*
X179070000Y-98044000D03*
X179070000Y-100584000D03*
D10*
X133985000Y-91440000D03*
D11*
X133985000Y-93980000D03*
X133985000Y-96520000D03*
X133985000Y-99060000D03*
X133985000Y-101600000D03*
X133985000Y-104140000D03*
X133985000Y-106680000D03*
X133985000Y-109220000D03*
X133985000Y-111760000D03*
X133985000Y-114300000D03*
X133985000Y-116840000D03*
X133985000Y-119380000D03*
X133985000Y-121920000D03*
X133985000Y-124460000D03*
D12*
X143118000Y-79375000D03*
D11*
X144018000Y-79375000D03*
D12*
X143118000Y-81915000D03*
D11*
X144018000Y-81915000D03*
D12*
X143118000Y-84455000D03*
D10*
X144018000Y-84455000D03*
D12*
X143118000Y-86995000D03*
D11*
X144018000Y-86995000D03*
D12*
X143118000Y-89535000D03*
D11*
X144018000Y-89535000D03*
D12*
X143118000Y-92075000D03*
D11*
X144018000Y-92075000D03*
X144018000Y-94615000D03*
D12*
X143118000Y-94615000D03*
D10*
X144018000Y-97155000D03*
D12*
X143118000Y-97155000D03*
D11*
X144018000Y-99695000D03*
D12*
X143118000Y-99695000D03*
D11*
X144018000Y-102235000D03*
D12*
X143118000Y-102235000D03*
D11*
X144018000Y-104775000D03*
D12*
X143118000Y-104775000D03*
D11*
X144018000Y-107315000D03*
D12*
X143118000Y-107315000D03*
D10*
X144018000Y-109855000D03*
D12*
X143118000Y-109855000D03*
X143118000Y-112395000D03*
D11*
X144018000Y-112395000D03*
D12*
X143118000Y-114935000D03*
D11*
X144018000Y-114935000D03*
D12*
X143118000Y-117475000D03*
D11*
X144018000Y-117475000D03*
X144018000Y-120015000D03*
D12*
X143118000Y-120015000D03*
X143118000Y-122555000D03*
D10*
X144018000Y-122555000D03*
D11*
X144018000Y-125095000D03*
D12*
X143118000Y-125095000D03*
D11*
X144018000Y-127635000D03*
D12*
X143118000Y-127635000D03*
D11*
X161798000Y-127635000D03*
D12*
X162698000Y-127635000D03*
X162698000Y-125095000D03*
D11*
X161798000Y-125095000D03*
D12*
X162698000Y-122555000D03*
D10*
X161798000Y-122555000D03*
D11*
X161798000Y-120015000D03*
D12*
X162698000Y-120015000D03*
X162698000Y-117475000D03*
D11*
X161798000Y-117475000D03*
D12*
X162698000Y-114935000D03*
D11*
X161798000Y-114935000D03*
D12*
X162698000Y-112395000D03*
D11*
X161798000Y-112395000D03*
D12*
X162698000Y-109855000D03*
D10*
X161798000Y-109855000D03*
D11*
X161798000Y-107315000D03*
D12*
X162698000Y-107315000D03*
D11*
X161798000Y-104775000D03*
D12*
X162698000Y-104775000D03*
X162698000Y-102235000D03*
D11*
X161798000Y-102235000D03*
X161798000Y-99695000D03*
D12*
X162698000Y-99695000D03*
X162698000Y-97155000D03*
D10*
X161798000Y-97155000D03*
D11*
X161798000Y-94615000D03*
D12*
X162698000Y-94615000D03*
X162698000Y-92075000D03*
D11*
X161798000Y-92075000D03*
D12*
X162698000Y-89535000D03*
D11*
X161798000Y-89535000D03*
D12*
X162698000Y-86995000D03*
D11*
X161798000Y-86995000D03*
D12*
X162698000Y-84455000D03*
D10*
X161798000Y-84455000D03*
D11*
X161798000Y-81915000D03*
D12*
X162698000Y-81915000D03*
X162698000Y-79375000D03*
D11*
X161798000Y-79375000D03*
X150368000Y-127405000D03*
D13*
X150368000Y-128305000D03*
X152908000Y-128305000D03*
D10*
X152908000Y-127405000D03*
D13*
X155448000Y-128305000D03*
D11*
X155448000Y-127405000D03*
D10*
X154940000Y-91440000D03*
D11*
X154940000Y-93980000D03*
X154940000Y-96520000D03*
X154940000Y-99060000D03*
X154940000Y-101600000D03*
X154940000Y-104140000D03*
X154940000Y-106680000D03*
X154940000Y-109220000D03*
X154940000Y-111760000D03*
X154940000Y-114300000D03*
X154940000Y-116840000D03*
X154940000Y-119380000D03*
X154940000Y-121920000D03*
X154940000Y-124460000D03*
D10*
X170180000Y-80010000D03*
D11*
X170180000Y-82550000D03*
D10*
X169545000Y-115570000D03*
D11*
X169545000Y-118110000D03*
X169545000Y-120650000D03*
X169545000Y-123190000D03*
X169545000Y-125730000D03*
X169545000Y-128270000D03*
D10*
X136525000Y-91440000D03*
D11*
X136525000Y-93980000D03*
X136525000Y-96520000D03*
D14*
X176224000Y-105700000D03*
X169724000Y-105700000D03*
X169724000Y-110200000D03*
X176224000Y-110200000D03*
D10*
X176784000Y-80005000D03*
D11*
X176784000Y-82545000D03*
D10*
X179705000Y-116586000D03*
D11*
X179705000Y-119126000D03*
X179705000Y-121666000D03*
X179705000Y-124206000D03*
D10*
X133985000Y-79375000D03*
D11*
X133985000Y-81915000D03*
X133985000Y-84455000D03*
D10*
X170180000Y-87630000D03*
D11*
X170180000Y-90170000D03*
X170180000Y-92710000D03*
X170180000Y-95250000D03*
X170180000Y-97790000D03*
X170180000Y-100330000D03*
D15*
X132809700Y-123284700D02*
X133985000Y-124460000D01*
X132809700Y-113741600D02*
X132809700Y-123284700D01*
X141042700Y-106423700D02*
X134436400Y-113030000D01*
X141042700Y-101061278D02*
X141042700Y-106423700D01*
X133521300Y-113030000D02*
X132809700Y-113741600D01*
X141043489Y-101060489D02*
X141042700Y-101061278D01*
X134436400Y-113030000D02*
X133521300Y-113030000D01*
X141043489Y-100383511D02*
X141043489Y-101060489D01*
X141732000Y-99695000D02*
X141043489Y-100383511D01*
X144018000Y-99695000D02*
X141732000Y-99695000D01*
X135159511Y-117845533D02*
X142408978Y-125095000D01*
X135159511Y-115474511D02*
X135159511Y-117845533D01*
X133985000Y-114300000D02*
X135159511Y-115474511D01*
X142408978Y-125095000D02*
X144018000Y-125095000D01*
X135160300Y-85630300D02*
X133985000Y-84455000D01*
X135160300Y-92615300D02*
X135160300Y-85630300D01*
X136525000Y-93980000D02*
X135160300Y-92615300D01*
X135968200Y-95344700D02*
X134792900Y-96520000D01*
X136827300Y-95344700D02*
X135968200Y-95344700D01*
X138819000Y-93353000D02*
X136827300Y-95344700D01*
X138819000Y-90697500D02*
X138819000Y-93353000D01*
X142521500Y-86995000D02*
X138819000Y-90697500D01*
X144018000Y-86995000D02*
X142521500Y-86995000D01*
X134792900Y-96520000D02*
X133985000Y-96520000D01*
X139530900Y-95248400D02*
X135719300Y-99060000D01*
X135719300Y-99060000D02*
X133985000Y-99060000D01*
X139530900Y-94448200D02*
X139530900Y-95248400D01*
X144018000Y-92075000D02*
X141904100Y-92075000D01*
X141904100Y-92075000D02*
X139530900Y-94448200D01*
X145193300Y-93118500D02*
X145193300Y-91077500D01*
X140430300Y-95033600D02*
X140430300Y-94185700D01*
X141176400Y-93439600D02*
X144872200Y-93439600D01*
X140430300Y-94185700D02*
X141176400Y-93439600D01*
X133985000Y-101600000D02*
X133985000Y-101478900D01*
X133985000Y-101478900D02*
X140430300Y-95033600D01*
X144872200Y-93439600D02*
X145193300Y-93118500D01*
X144018000Y-89902200D02*
X144018000Y-89535000D01*
X145193300Y-91077500D02*
X144018000Y-89902200D01*
X134239000Y-117952600D02*
X141042700Y-124756300D01*
X141042700Y-126268722D02*
X142408978Y-127635000D01*
X142408978Y-127635000D02*
X144018000Y-127635000D01*
X141042700Y-124756300D02*
X141042700Y-126268722D01*
X134239000Y-117094000D02*
X134239000Y-117952600D01*
X133985000Y-116840000D02*
X134239000Y-117094000D01*
X176784000Y-82545000D02*
X176784000Y-100527600D01*
X176784000Y-100527600D02*
X166999100Y-110312500D01*
X166999100Y-110312500D02*
X166999100Y-111228900D01*
X166999100Y-111228900D02*
X163293000Y-114935000D01*
X163293000Y-114935000D02*
X161798000Y-114935000D01*
X161798000Y-97155000D02*
X160601000Y-97155000D01*
X154454100Y-120714100D02*
X152908000Y-122260200D01*
X160601000Y-97155000D02*
X158020300Y-97155000D01*
X178689000Y-98475800D02*
X177894700Y-99270100D01*
X144018000Y-109855000D02*
X141042700Y-109855000D01*
X154940000Y-99060000D02*
X156115300Y-99060000D01*
X179070000Y-98044000D02*
X178689000Y-98425000D01*
X152908000Y-122260200D02*
X152908000Y-127405000D01*
X158020300Y-97155000D02*
X156115300Y-99060000D01*
X176224000Y-115277700D02*
X176224000Y-110200000D01*
X179171600Y-118211600D02*
X179157900Y-118211600D01*
X178689000Y-98425000D02*
X178689000Y-98475800D01*
X160622700Y-122555000D02*
X158781800Y-120714100D01*
X141042700Y-120999800D02*
X141042700Y-109855000D01*
X144018000Y-122555000D02*
X142597900Y-122555000D01*
X179705000Y-121666000D02*
X179705000Y-119126000D01*
X179157900Y-118211600D02*
X176224000Y-115277700D01*
X160601000Y-85652000D02*
X160601000Y-97155000D01*
X177894700Y-99270100D02*
X177894700Y-108529300D01*
X179705000Y-119126000D02*
X179705000Y-118745000D01*
X161798000Y-84455000D02*
X160601000Y-85652000D01*
X158781800Y-120714100D02*
X154454100Y-120714100D01*
X142597900Y-122555000D02*
X141042700Y-120999800D01*
X179705000Y-118745000D02*
X179171600Y-118211600D01*
X161798000Y-122555000D02*
X160622700Y-122555000D01*
X177894700Y-108529300D02*
X176224000Y-110200000D01*
X165415000Y-110229800D02*
X163249800Y-112395000D01*
X176784000Y-80005000D02*
X175608700Y-81180300D01*
X175608700Y-97571700D02*
X165415000Y-107765400D01*
X165415000Y-107765400D02*
X165415000Y-110229800D01*
X163249800Y-112395000D02*
X161798000Y-112395000D01*
X175608700Y-81180300D02*
X175608700Y-97571700D01*
X180880300Y-81867600D02*
X180880300Y-122222800D01*
X179705000Y-123398100D02*
X179705000Y-124206000D01*
X161798000Y-79742300D02*
X154940000Y-86600300D01*
X180880300Y-122222800D02*
X179705000Y-123398100D01*
X154940000Y-86600300D02*
X154940000Y-91440000D01*
X171355300Y-82550000D02*
X175075700Y-78829600D01*
X175075700Y-78829600D02*
X177842300Y-78829600D01*
X177842300Y-78829600D02*
X180880300Y-81867600D01*
X170180000Y-82550000D02*
X171355300Y-82550000D01*
X161798000Y-79375000D02*
X161798000Y-79742300D01*
X179070000Y-101193600D02*
X179070000Y-100584000D01*
X179705000Y-101828600D02*
X179070000Y-101193600D01*
X179705000Y-116586000D02*
X179705000Y-101828600D01*
X147098300Y-104140000D02*
X145193300Y-102235000D01*
X144018000Y-102235000D02*
X145193300Y-102235000D01*
X154940000Y-104140000D02*
X147098300Y-104140000D01*
X145193300Y-117234700D02*
X154572700Y-107855300D01*
X154609800Y-107855300D02*
X154609800Y-107010200D01*
X154609800Y-107010200D02*
X154940000Y-106680000D01*
X144018000Y-120015000D02*
X145193300Y-118839700D01*
X154572700Y-107855300D02*
X154609800Y-107855300D01*
X145193300Y-118839700D02*
X145193300Y-117234700D01*
X155185700Y-109220000D02*
X161798000Y-102607700D01*
X161798000Y-102607700D02*
X161798000Y-102235000D01*
X154940000Y-109220000D02*
X155185700Y-109220000D01*
X160875400Y-106045000D02*
X164515900Y-106045000D01*
X164773300Y-105787600D02*
X164773300Y-99695000D01*
X155160400Y-111760000D02*
X160875400Y-106045000D01*
X164515900Y-106045000D02*
X164773300Y-105787600D01*
X164773300Y-99695000D02*
X161798000Y-99695000D01*
X154940000Y-111760000D02*
X155160400Y-111760000D01*
X160667600Y-116840000D02*
X160719200Y-116891600D01*
X161302500Y-117475000D02*
X161798000Y-117475000D01*
X154940000Y-116840000D02*
X160667600Y-116840000D01*
X160719200Y-116891600D02*
X160719200Y-116891700D01*
X160719200Y-116891700D02*
X161302500Y-117475000D01*
X159290300Y-125095000D02*
X161798000Y-125095000D01*
X154940000Y-121920000D02*
X156115300Y-121920000D01*
X156115300Y-121920000D02*
X159290300Y-125095000D01*
X133985000Y-79375000D02*
X144018000Y-79375000D01*
X133985000Y-81915000D02*
X144018000Y-81915000D01*
X170180000Y-92710000D02*
X170180000Y-93517900D01*
X165223600Y-98474300D02*
X165223600Y-106864700D01*
X170180000Y-93517900D02*
X165223600Y-98474300D01*
X164773300Y-107315000D02*
X161798000Y-107315000D01*
X165223600Y-106864700D02*
X164773300Y-107315000D01*
X167099700Y-81915000D02*
X161798000Y-81915000D01*
X169004700Y-80010000D02*
X167099700Y-81915000D01*
X170180000Y-80010000D02*
X169004700Y-80010000D01*
G04 #@! TA.AperFunction,Conductor*
G36*
X184970055Y-76509500D02*
G01*
X184984856Y-76511805D01*
X184984859Y-76511805D01*
X184993728Y-76513186D01*
X185002630Y-76512022D01*
X185002632Y-76512022D01*
X185002690Y-76512014D01*
X185002729Y-76512009D01*
X185033167Y-76511738D01*
X185095374Y-76518747D01*
X185122882Y-76525026D01*
X185200069Y-76552035D01*
X185225490Y-76564277D01*
X185294737Y-76607788D01*
X185316796Y-76625380D01*
X185374620Y-76683204D01*
X185392212Y-76705263D01*
X185435723Y-76774510D01*
X185447965Y-76799931D01*
X185474974Y-76877119D01*
X185481253Y-76904624D01*
X185487522Y-76960255D01*
X185488305Y-76975904D01*
X185488196Y-76984858D01*
X185486814Y-76993732D01*
X185490980Y-77025587D01*
X185492042Y-77041787D01*
X185546949Y-130887872D01*
X185545449Y-130907384D01*
X185541814Y-130930731D01*
X185542978Y-130939635D01*
X185542869Y-130948606D01*
X185542531Y-130948602D01*
X185542460Y-130970014D01*
X185535142Y-131023242D01*
X185525877Y-131056293D01*
X185498088Y-131120243D01*
X185480248Y-131149565D01*
X185473946Y-131157308D01*
X185436229Y-131203643D01*
X185411135Y-131227063D01*
X185354155Y-131267253D01*
X185323669Y-131283034D01*
X185257958Y-131306352D01*
X185224346Y-131313318D01*
X185219366Y-131313656D01*
X185173704Y-131316752D01*
X185154967Y-131316626D01*
X185152864Y-131316455D01*
X185144106Y-131314465D01*
X185135145Y-131315013D01*
X185135144Y-131315013D01*
X185090155Y-131317765D01*
X185082462Y-131318000D01*
X131748327Y-131318000D01*
X131728942Y-131316500D01*
X131714141Y-131314195D01*
X131714138Y-131314195D01*
X131705269Y-131312814D01*
X131699148Y-131313615D01*
X131632626Y-131293197D01*
X131586791Y-131238978D01*
X131578223Y-131197137D01*
X131577186Y-131197273D01*
X131577168Y-131197137D01*
X131573013Y-131165363D01*
X131571950Y-131149182D01*
X131571950Y-131148621D01*
X131551369Y-113721543D01*
X132171480Y-113721543D01*
X132172226Y-113729435D01*
X132175641Y-113765561D01*
X132176200Y-113777419D01*
X132176200Y-123205933D01*
X132175673Y-123217116D01*
X132173998Y-123224609D01*
X132174247Y-123232535D01*
X132174247Y-123232536D01*
X132176138Y-123292686D01*
X132176200Y-123296645D01*
X132176200Y-123324556D01*
X132176697Y-123328490D01*
X132176697Y-123328491D01*
X132176705Y-123328556D01*
X132177638Y-123340393D01*
X132179027Y-123384589D01*
X132184678Y-123404039D01*
X132188687Y-123423400D01*
X132191226Y-123443497D01*
X132194145Y-123450868D01*
X132194145Y-123450870D01*
X132207504Y-123484612D01*
X132211349Y-123495842D01*
X132220808Y-123528401D01*
X132223682Y-123538293D01*
X132227715Y-123545112D01*
X132227717Y-123545117D01*
X132233993Y-123555728D01*
X132242688Y-123573476D01*
X132250148Y-123592317D01*
X132254810Y-123598733D01*
X132254810Y-123598734D01*
X132276136Y-123628087D01*
X132282652Y-123638007D01*
X132305158Y-123676062D01*
X132319479Y-123690383D01*
X132332319Y-123705416D01*
X132344228Y-123721807D01*
X132361989Y-123736500D01*
X132378305Y-123749998D01*
X132387084Y-123757988D01*
X132634778Y-124005682D01*
X132668804Y-124067994D01*
X132667100Y-124128448D01*
X132645989Y-124204570D01*
X132645441Y-124209700D01*
X132645440Y-124209704D01*
X132641933Y-124242522D01*
X132622251Y-124426695D01*
X132622548Y-124431848D01*
X132622548Y-124431851D01*
X132628011Y-124526590D01*
X132635110Y-124649715D01*
X132636247Y-124654761D01*
X132636248Y-124654767D01*
X132656119Y-124742939D01*
X132684222Y-124867639D01*
X132768266Y-125074616D01*
X132819019Y-125157438D01*
X132874009Y-125247173D01*
X132884987Y-125265088D01*
X133031250Y-125433938D01*
X133125905Y-125512522D01*
X133192204Y-125567564D01*
X133203126Y-125576632D01*
X133396000Y-125689338D01*
X133400825Y-125691180D01*
X133400826Y-125691181D01*
X133428768Y-125701851D01*
X133604692Y-125769030D01*
X133609760Y-125770061D01*
X133609763Y-125770062D01*
X133717017Y-125791883D01*
X133823597Y-125813567D01*
X133828772Y-125813757D01*
X133828774Y-125813757D01*
X134041673Y-125821564D01*
X134041677Y-125821564D01*
X134046837Y-125821753D01*
X134051957Y-125821097D01*
X134051959Y-125821097D01*
X134263288Y-125794025D01*
X134263289Y-125794025D01*
X134268416Y-125793368D01*
X134273366Y-125791883D01*
X134477429Y-125730661D01*
X134477434Y-125730659D01*
X134482384Y-125729174D01*
X134682994Y-125630896D01*
X134864860Y-125501173D01*
X134930926Y-125435338D01*
X134989572Y-125376896D01*
X135023096Y-125343489D01*
X135082594Y-125260689D01*
X135150435Y-125166277D01*
X135153453Y-125162077D01*
X135186605Y-125095000D01*
X135250136Y-124966453D01*
X135250137Y-124966451D01*
X135252430Y-124961811D01*
X135293990Y-124825020D01*
X135315865Y-124753023D01*
X135315865Y-124753021D01*
X135317370Y-124748069D01*
X135346529Y-124526590D01*
X135348156Y-124460000D01*
X135329852Y-124237361D01*
X135275431Y-124020702D01*
X135186354Y-123815840D01*
X135102911Y-123686857D01*
X135067822Y-123632617D01*
X135067820Y-123632614D01*
X135065014Y-123628277D01*
X134914670Y-123463051D01*
X134910619Y-123459852D01*
X134910615Y-123459848D01*
X134743414Y-123327800D01*
X134743410Y-123327798D01*
X134739359Y-123324598D01*
X134698053Y-123301796D01*
X134648084Y-123251364D01*
X134633312Y-123181921D01*
X134658428Y-123115516D01*
X134685780Y-123088909D01*
X134736814Y-123052507D01*
X134864860Y-122961173D01*
X134876718Y-122949357D01*
X135013075Y-122813475D01*
X135023096Y-122803489D01*
X135040754Y-122778916D01*
X135150435Y-122626277D01*
X135153453Y-122622077D01*
X135190143Y-122547841D01*
X135250136Y-122426453D01*
X135250137Y-122426451D01*
X135252430Y-122421811D01*
X135317370Y-122208069D01*
X135346529Y-121986590D01*
X135348156Y-121920000D01*
X135329852Y-121697361D01*
X135275431Y-121480702D01*
X135186354Y-121275840D01*
X135084819Y-121118891D01*
X135067822Y-121092617D01*
X135067820Y-121092614D01*
X135065014Y-121088277D01*
X134914670Y-120923051D01*
X134910619Y-120919852D01*
X134910615Y-120919848D01*
X134743414Y-120787800D01*
X134743410Y-120787798D01*
X134739359Y-120784598D01*
X134698053Y-120761796D01*
X134648084Y-120711364D01*
X134633312Y-120641921D01*
X134658428Y-120575516D01*
X134685780Y-120548909D01*
X134731866Y-120516036D01*
X134864860Y-120421173D01*
X135023096Y-120263489D01*
X135040754Y-120238916D01*
X135150435Y-120086277D01*
X135153453Y-120082077D01*
X135181171Y-120025994D01*
X135229285Y-119973788D01*
X135297987Y-119955881D01*
X135365463Y-119977960D01*
X135383223Y-119992727D01*
X137887108Y-122496613D01*
X140372295Y-124981800D01*
X140406321Y-125044112D01*
X140409200Y-125070895D01*
X140409200Y-126189955D01*
X140408673Y-126201138D01*
X140406998Y-126208631D01*
X140407247Y-126216557D01*
X140407247Y-126216558D01*
X140409138Y-126276708D01*
X140409200Y-126280667D01*
X140409200Y-126308578D01*
X140409697Y-126312512D01*
X140409697Y-126312513D01*
X140409705Y-126312578D01*
X140410638Y-126324415D01*
X140412027Y-126368611D01*
X140417678Y-126388061D01*
X140421687Y-126407422D01*
X140424226Y-126427519D01*
X140427145Y-126434890D01*
X140427145Y-126434892D01*
X140440504Y-126468634D01*
X140444349Y-126479864D01*
X140456682Y-126522315D01*
X140460715Y-126529134D01*
X140460717Y-126529139D01*
X140466993Y-126539750D01*
X140475688Y-126557498D01*
X140483148Y-126576339D01*
X140487810Y-126582755D01*
X140487810Y-126582756D01*
X140509136Y-126612109D01*
X140515652Y-126622029D01*
X140538158Y-126660084D01*
X140552479Y-126674405D01*
X140565319Y-126689438D01*
X140577228Y-126705829D01*
X140583334Y-126710880D01*
X140611305Y-126734020D01*
X140620084Y-126742010D01*
X140822595Y-126944521D01*
X140856621Y-127006833D01*
X140859500Y-127033616D01*
X140859500Y-128533134D01*
X140866255Y-128595316D01*
X140917385Y-128731705D01*
X141004739Y-128848261D01*
X141121295Y-128935615D01*
X141257684Y-128986745D01*
X141319866Y-128993500D01*
X143988826Y-128993500D01*
X143993443Y-128993585D01*
X144074673Y-128996564D01*
X144074677Y-128996564D01*
X144079837Y-128996753D01*
X144084957Y-128996097D01*
X144084959Y-128996097D01*
X144097261Y-128994521D01*
X144113271Y-128993500D01*
X144916134Y-128993500D01*
X144978316Y-128986745D01*
X145114705Y-128935615D01*
X145231261Y-128848261D01*
X145318615Y-128731705D01*
X145369745Y-128595316D01*
X145376500Y-128533134D01*
X145376500Y-127732856D01*
X145377578Y-127716409D01*
X145379092Y-127704908D01*
X145379529Y-127701590D01*
X145381156Y-127635000D01*
X145376924Y-127583524D01*
X145376500Y-127573200D01*
X145376500Y-127371695D01*
X149005251Y-127371695D01*
X149005548Y-127376848D01*
X149005548Y-127376851D01*
X149009291Y-127441763D01*
X149009500Y-127449016D01*
X149009500Y-130103134D01*
X149016255Y-130165316D01*
X149067385Y-130301705D01*
X149154739Y-130418261D01*
X149271295Y-130505615D01*
X149407684Y-130556745D01*
X149469866Y-130563500D01*
X151266134Y-130563500D01*
X151328316Y-130556745D01*
X151464705Y-130505615D01*
X151562851Y-130432058D01*
X151629358Y-130407210D01*
X151698741Y-130422263D01*
X151713982Y-130432058D01*
X151804351Y-130499786D01*
X151819946Y-130508324D01*
X151940394Y-130553478D01*
X151955649Y-130557105D01*
X152006514Y-130562631D01*
X152013328Y-130563000D01*
X152635885Y-130563000D01*
X152651124Y-130558525D01*
X152652329Y-130557135D01*
X152654000Y-130549452D01*
X152654000Y-126065116D01*
X152649525Y-126049877D01*
X152648135Y-126048672D01*
X152640452Y-126047001D01*
X152013331Y-126047001D01*
X152006510Y-126047371D01*
X151955648Y-126052895D01*
X151940396Y-126056521D01*
X151819946Y-126101676D01*
X151804351Y-126110214D01*
X151713982Y-126177942D01*
X151647475Y-126202790D01*
X151578093Y-126187737D01*
X151562852Y-126177942D01*
X151531677Y-126154578D01*
X151464705Y-126104385D01*
X151328316Y-126053255D01*
X151266134Y-126046500D01*
X150382985Y-126046500D01*
X150381446Y-126046491D01*
X150278081Y-126045228D01*
X150278079Y-126045228D01*
X150272911Y-126045165D01*
X150267797Y-126045948D01*
X150264289Y-126046193D01*
X150255496Y-126046500D01*
X149469866Y-126046500D01*
X149407684Y-126053255D01*
X149271295Y-126104385D01*
X149154739Y-126191739D01*
X149067385Y-126308295D01*
X149016255Y-126444684D01*
X149009500Y-126506866D01*
X149009500Y-127325219D01*
X149008787Y-127338607D01*
X149005251Y-127371695D01*
X145376500Y-127371695D01*
X145376500Y-126736866D01*
X145369745Y-126674684D01*
X145318615Y-126538295D01*
X145245370Y-126440564D01*
X145220522Y-126374059D01*
X145235575Y-126304676D01*
X145245370Y-126289435D01*
X145318615Y-126191705D01*
X145369745Y-126055316D01*
X145376500Y-125993134D01*
X145376500Y-125192856D01*
X145377578Y-125176409D01*
X145379092Y-125164908D01*
X145379529Y-125161590D01*
X145379611Y-125158240D01*
X145381074Y-125098365D01*
X145381074Y-125098361D01*
X145381156Y-125095000D01*
X145376924Y-125043524D01*
X145376500Y-125033200D01*
X145376500Y-124196866D01*
X145369745Y-124134684D01*
X145318615Y-123998295D01*
X145245058Y-123900148D01*
X145220210Y-123833642D01*
X145235263Y-123764259D01*
X145245058Y-123749018D01*
X145312786Y-123658649D01*
X145321324Y-123643054D01*
X145366478Y-123522606D01*
X145370105Y-123507351D01*
X145375631Y-123456486D01*
X145376000Y-123449672D01*
X145376000Y-122827115D01*
X145371525Y-122811876D01*
X145370135Y-122810671D01*
X145362452Y-122809000D01*
X142746000Y-122809000D01*
X142677879Y-122788998D01*
X142631386Y-122735342D01*
X142620000Y-122683000D01*
X142620000Y-122427000D01*
X142640002Y-122358879D01*
X142693658Y-122312386D01*
X142746000Y-122301000D01*
X145357884Y-122301000D01*
X145373123Y-122296525D01*
X145374328Y-122295135D01*
X145375999Y-122287452D01*
X145375999Y-121660331D01*
X145375629Y-121653510D01*
X145370105Y-121602648D01*
X145366479Y-121587396D01*
X145321324Y-121466946D01*
X145312786Y-121451351D01*
X145245058Y-121360982D01*
X145220210Y-121294475D01*
X145235263Y-121225093D01*
X145245058Y-121209852D01*
X145313229Y-121118891D01*
X145318615Y-121111705D01*
X145369745Y-120975316D01*
X145376500Y-120913134D01*
X145376500Y-120112856D01*
X145377578Y-120096409D01*
X145379092Y-120084908D01*
X145379529Y-120081590D01*
X145379630Y-120077442D01*
X145381074Y-120018365D01*
X145381074Y-120018361D01*
X145381156Y-120015000D01*
X145376924Y-119963524D01*
X145376500Y-119953200D01*
X145376500Y-119604594D01*
X145396502Y-119536473D01*
X145413405Y-119515499D01*
X145585547Y-119343357D01*
X145593837Y-119335813D01*
X145600318Y-119331700D01*
X145646959Y-119282032D01*
X145649713Y-119279191D01*
X145669434Y-119259470D01*
X145671858Y-119256345D01*
X145671865Y-119256337D01*
X145671911Y-119256277D01*
X145679620Y-119247251D01*
X145683203Y-119243435D01*
X145709886Y-119215021D01*
X145719646Y-119197268D01*
X145730499Y-119180745D01*
X145738053Y-119171006D01*
X145742913Y-119164741D01*
X145760476Y-119124157D01*
X145765683Y-119113527D01*
X145786995Y-119074760D01*
X145788966Y-119067083D01*
X145788968Y-119067078D01*
X145792032Y-119055142D01*
X145798438Y-119036430D01*
X145803333Y-119025119D01*
X145806481Y-119017845D01*
X145807721Y-119010017D01*
X145807723Y-119010010D01*
X145813399Y-118974176D01*
X145815805Y-118962556D01*
X145824828Y-118927411D01*
X145824828Y-118927410D01*
X145826800Y-118919730D01*
X145826800Y-118899476D01*
X145828351Y-118879765D01*
X145830280Y-118867586D01*
X145831520Y-118859757D01*
X145827359Y-118815738D01*
X145826800Y-118803881D01*
X145826800Y-117549294D01*
X145846802Y-117481173D01*
X145863705Y-117460199D01*
X153521976Y-109801928D01*
X153584288Y-109767902D01*
X153655103Y-109772967D01*
X153711939Y-109815514D01*
X153722278Y-109832183D01*
X153723266Y-109834616D01*
X153790375Y-109944128D01*
X153814196Y-109983000D01*
X153839987Y-110025088D01*
X153986250Y-110193938D01*
X154158126Y-110336632D01*
X154205433Y-110364276D01*
X154231445Y-110379476D01*
X154280169Y-110431114D01*
X154293240Y-110500897D01*
X154266509Y-110566669D01*
X154226055Y-110600027D01*
X154213607Y-110606507D01*
X154209474Y-110609610D01*
X154209471Y-110609612D01*
X154044525Y-110733457D01*
X154034965Y-110740635D01*
X154019814Y-110756490D01*
X153899718Y-110882163D01*
X153880629Y-110902138D01*
X153877715Y-110906410D01*
X153877714Y-110906411D01*
X153865404Y-110924457D01*
X153754743Y-111086680D01*
X153739007Y-111120581D01*
X153665584Y-111278758D01*
X153660688Y-111289305D01*
X153600989Y-111504570D01*
X153577251Y-111726695D01*
X153577548Y-111731848D01*
X153577548Y-111731851D01*
X153583011Y-111826590D01*
X153590110Y-111949715D01*
X153591247Y-111954761D01*
X153591248Y-111954767D01*
X153611119Y-112042939D01*
X153639222Y-112167639D01*
X153723266Y-112374616D01*
X153839987Y-112565088D01*
X153986250Y-112733938D01*
X154158126Y-112876632D01*
X154228595Y-112917811D01*
X154231445Y-112919476D01*
X154280169Y-112971114D01*
X154293240Y-113040897D01*
X154266509Y-113106669D01*
X154226055Y-113140027D01*
X154213607Y-113146507D01*
X154209474Y-113149610D01*
X154209471Y-113149612D01*
X154039100Y-113277530D01*
X154034965Y-113280635D01*
X154014459Y-113302093D01*
X153898123Y-113423832D01*
X153880629Y-113442138D01*
X153877715Y-113446410D01*
X153877714Y-113446411D01*
X153852552Y-113483297D01*
X153754743Y-113626680D01*
X153729146Y-113681824D01*
X153684773Y-113777419D01*
X153660688Y-113829305D01*
X153600989Y-114044570D01*
X153577251Y-114266695D01*
X153577548Y-114271848D01*
X153577548Y-114271851D01*
X153582857Y-114363919D01*
X153590110Y-114489715D01*
X153591247Y-114494761D01*
X153591248Y-114494767D01*
X153611119Y-114582939D01*
X153639222Y-114707639D01*
X153723266Y-114914616D01*
X153758286Y-114971763D01*
X153802440Y-115043816D01*
X153839987Y-115105088D01*
X153986250Y-115273938D01*
X154158126Y-115416632D01*
X154188969Y-115434655D01*
X154231445Y-115459476D01*
X154280169Y-115511114D01*
X154293240Y-115580897D01*
X154266509Y-115646669D01*
X154226055Y-115680027D01*
X154213607Y-115686507D01*
X154209474Y-115689610D01*
X154209471Y-115689612D01*
X154185247Y-115707800D01*
X154034965Y-115820635D01*
X153880629Y-115982138D01*
X153754743Y-116166680D01*
X153660688Y-116369305D01*
X153600989Y-116584570D01*
X153577251Y-116806695D01*
X153577548Y-116811848D01*
X153577548Y-116811851D01*
X153586932Y-116974598D01*
X153590110Y-117029715D01*
X153591247Y-117034761D01*
X153591248Y-117034767D01*
X153615304Y-117141508D01*
X153639222Y-117247639D01*
X153723266Y-117454616D01*
X153839987Y-117645088D01*
X153986250Y-117813938D01*
X154158126Y-117956632D01*
X154186765Y-117973367D01*
X154231445Y-117999476D01*
X154280169Y-118051114D01*
X154293240Y-118120897D01*
X154266509Y-118186669D01*
X154226055Y-118220027D01*
X154213607Y-118226507D01*
X154209474Y-118229610D01*
X154209471Y-118229612D01*
X154109374Y-118304767D01*
X154034965Y-118360635D01*
X154016605Y-118379848D01*
X153889748Y-118512596D01*
X153880629Y-118522138D01*
X153754743Y-118706680D01*
X153710618Y-118801739D01*
X153668720Y-118892002D01*
X153660688Y-118909305D01*
X153600989Y-119124570D01*
X153577251Y-119346695D01*
X153577548Y-119351848D01*
X153577548Y-119351851D01*
X153583011Y-119446590D01*
X153590110Y-119569715D01*
X153591247Y-119574761D01*
X153591248Y-119574767D01*
X153611119Y-119662939D01*
X153639222Y-119787639D01*
X153723266Y-119994616D01*
X153839987Y-120185088D01*
X153986250Y-120353938D01*
X154158126Y-120496632D01*
X154191332Y-120516036D01*
X154231445Y-120539476D01*
X154280169Y-120591114D01*
X154293240Y-120660897D01*
X154266509Y-120726669D01*
X154226055Y-120760027D01*
X154213607Y-120766507D01*
X154209474Y-120769610D01*
X154209471Y-120769612D01*
X154109374Y-120844767D01*
X154034965Y-120900635D01*
X154016605Y-120919848D01*
X153889748Y-121052596D01*
X153880629Y-121062138D01*
X153754743Y-121246680D01*
X153716011Y-121330121D01*
X153679471Y-121408841D01*
X153660688Y-121449305D01*
X153600989Y-121664570D01*
X153577251Y-121886695D01*
X153577548Y-121891848D01*
X153577548Y-121891851D01*
X153583011Y-121986590D01*
X153590110Y-122109715D01*
X153591247Y-122114761D01*
X153591248Y-122114767D01*
X153610195Y-122198839D01*
X153639222Y-122327639D01*
X153723266Y-122534616D01*
X153762182Y-122598121D01*
X153833683Y-122714800D01*
X153839987Y-122725088D01*
X153986250Y-122893938D01*
X154158126Y-123036632D01*
X154181215Y-123050124D01*
X154231445Y-123079476D01*
X154280169Y-123131114D01*
X154293240Y-123200897D01*
X154266509Y-123266669D01*
X154226055Y-123300027D01*
X154213607Y-123306507D01*
X154209474Y-123309610D01*
X154209471Y-123309612D01*
X154041631Y-123435630D01*
X154034965Y-123440635D01*
X153982208Y-123495842D01*
X153889748Y-123592596D01*
X153880629Y-123602138D01*
X153877715Y-123606410D01*
X153877714Y-123606411D01*
X153830201Y-123676062D01*
X153754743Y-123786680D01*
X153739003Y-123820590D01*
X153676284Y-123955707D01*
X153660688Y-123989305D01*
X153600989Y-124204570D01*
X153577251Y-124426695D01*
X153577548Y-124431848D01*
X153577548Y-124431851D01*
X153583011Y-124526590D01*
X153590110Y-124649715D01*
X153591247Y-124654761D01*
X153591248Y-124654767D01*
X153611119Y-124742939D01*
X153639222Y-124867639D01*
X153723266Y-125074616D01*
X153774019Y-125157438D01*
X153829009Y-125247173D01*
X153839987Y-125265088D01*
X153986250Y-125433938D01*
X154080905Y-125512522D01*
X154147204Y-125567564D01*
X154158126Y-125576632D01*
X154351000Y-125689338D01*
X154355825Y-125691180D01*
X154355826Y-125691181D01*
X154383768Y-125701851D01*
X154559692Y-125769030D01*
X154633383Y-125784023D01*
X154697315Y-125797030D01*
X154760081Y-125830211D01*
X154794943Y-125892059D01*
X154790834Y-125962936D01*
X154749057Y-126020341D01*
X154682878Y-126046046D01*
X154672195Y-126046500D01*
X154549866Y-126046500D01*
X154487684Y-126053255D01*
X154351295Y-126104385D01*
X154284323Y-126154578D01*
X154253148Y-126177942D01*
X154186642Y-126202790D01*
X154117259Y-126187737D01*
X154102018Y-126177942D01*
X154011649Y-126110214D01*
X153996054Y-126101676D01*
X153875606Y-126056522D01*
X153860351Y-126052895D01*
X153809486Y-126047369D01*
X153802672Y-126047000D01*
X153180115Y-126047000D01*
X153164876Y-126051475D01*
X153163671Y-126052865D01*
X153162000Y-126060548D01*
X153162000Y-130544884D01*
X153166475Y-130560123D01*
X153167865Y-130561328D01*
X153175548Y-130562999D01*
X153802669Y-130562999D01*
X153809490Y-130562629D01*
X153860352Y-130557105D01*
X153875604Y-130553479D01*
X153996054Y-130508324D01*
X154011649Y-130499786D01*
X154102018Y-130432058D01*
X154168525Y-130407210D01*
X154237907Y-130422263D01*
X154253148Y-130432058D01*
X154351295Y-130505615D01*
X154487684Y-130556745D01*
X154549866Y-130563500D01*
X156346134Y-130563500D01*
X156408316Y-130556745D01*
X156544705Y-130505615D01*
X156661261Y-130418261D01*
X156748615Y-130301705D01*
X156799745Y-130165316D01*
X156806500Y-130103134D01*
X156806500Y-127502856D01*
X156807578Y-127486409D01*
X156809092Y-127474908D01*
X156809529Y-127471590D01*
X156811156Y-127405000D01*
X156806924Y-127353524D01*
X156806500Y-127343200D01*
X156806500Y-126506866D01*
X156799745Y-126444684D01*
X156748615Y-126308295D01*
X156661261Y-126191739D01*
X156544705Y-126104385D01*
X156408316Y-126053255D01*
X156346134Y-126046500D01*
X155462985Y-126046500D01*
X155461446Y-126046491D01*
X155358081Y-126045228D01*
X155358079Y-126045228D01*
X155352911Y-126045165D01*
X155347797Y-126045948D01*
X155344289Y-126046193D01*
X155335496Y-126046500D01*
X155222619Y-126046500D01*
X155154498Y-126026498D01*
X155108005Y-125972842D01*
X155097901Y-125902568D01*
X155127395Y-125837988D01*
X155187121Y-125799604D01*
X155206609Y-125795521D01*
X155218288Y-125794025D01*
X155218289Y-125794025D01*
X155223416Y-125793368D01*
X155228366Y-125791883D01*
X155432429Y-125730661D01*
X155432434Y-125730659D01*
X155437384Y-125729174D01*
X155637994Y-125630896D01*
X155819860Y-125501173D01*
X155885926Y-125435338D01*
X155944572Y-125376896D01*
X155978096Y-125343489D01*
X156037594Y-125260689D01*
X156105435Y-125166277D01*
X156108453Y-125162077D01*
X156141605Y-125095000D01*
X156205136Y-124966453D01*
X156205137Y-124966451D01*
X156207430Y-124961811D01*
X156248990Y-124825020D01*
X156270865Y-124753023D01*
X156270865Y-124753021D01*
X156272370Y-124748069D01*
X156301529Y-124526590D01*
X156303156Y-124460000D01*
X156284852Y-124237361D01*
X156230431Y-124020702D01*
X156141354Y-123815840D01*
X156057911Y-123686857D01*
X156022822Y-123632617D01*
X156022820Y-123632614D01*
X156020014Y-123628277D01*
X155869670Y-123463051D01*
X155865619Y-123459852D01*
X155865615Y-123459848D01*
X155698414Y-123327800D01*
X155698410Y-123327798D01*
X155694359Y-123324598D01*
X155653053Y-123301796D01*
X155603084Y-123251364D01*
X155588312Y-123181921D01*
X155613428Y-123115516D01*
X155640780Y-123088909D01*
X155691814Y-123052507D01*
X155819860Y-122961173D01*
X155823517Y-122957529D01*
X155823523Y-122957524D01*
X155951506Y-122829988D01*
X156013877Y-122796072D01*
X156084684Y-122801261D01*
X156129540Y-122830144D01*
X157459426Y-124160031D01*
X158786648Y-125487253D01*
X158794188Y-125495539D01*
X158798300Y-125502018D01*
X158804077Y-125507443D01*
X158847951Y-125548643D01*
X158850793Y-125551398D01*
X158870530Y-125571135D01*
X158873727Y-125573615D01*
X158882747Y-125581318D01*
X158914979Y-125611586D01*
X158921925Y-125615405D01*
X158921928Y-125615407D01*
X158932734Y-125621348D01*
X158949253Y-125632199D01*
X158965259Y-125644614D01*
X158972528Y-125647759D01*
X158972532Y-125647762D01*
X159005837Y-125662174D01*
X159016487Y-125667391D01*
X159055240Y-125688695D01*
X159062915Y-125690666D01*
X159062916Y-125690666D01*
X159074862Y-125693733D01*
X159093567Y-125700137D01*
X159112155Y-125708181D01*
X159119978Y-125709420D01*
X159119988Y-125709423D01*
X159155824Y-125715099D01*
X159167444Y-125717505D01*
X159202589Y-125726528D01*
X159210270Y-125728500D01*
X159230524Y-125728500D01*
X159250234Y-125730051D01*
X159270243Y-125733220D01*
X159278135Y-125732474D01*
X159304307Y-125730000D01*
X159314262Y-125729059D01*
X159326119Y-125728500D01*
X160313500Y-125728500D01*
X160381621Y-125748502D01*
X160428114Y-125802158D01*
X160439500Y-125854500D01*
X160439500Y-125993134D01*
X160446255Y-126055316D01*
X160497385Y-126191705D01*
X160570630Y-126289435D01*
X160595478Y-126355941D01*
X160580425Y-126425324D01*
X160570632Y-126440562D01*
X160497385Y-126538295D01*
X160446255Y-126674684D01*
X160439500Y-126736866D01*
X160439500Y-127555219D01*
X160438787Y-127568607D01*
X160435251Y-127601695D01*
X160435548Y-127606848D01*
X160435548Y-127606851D01*
X160439291Y-127671763D01*
X160439500Y-127679016D01*
X160439500Y-128533134D01*
X160446255Y-128595316D01*
X160497385Y-128731705D01*
X160584739Y-128848261D01*
X160701295Y-128935615D01*
X160837684Y-128986745D01*
X160899866Y-128993500D01*
X161768826Y-128993500D01*
X161773443Y-128993585D01*
X161854673Y-128996564D01*
X161854677Y-128996564D01*
X161859837Y-128996753D01*
X161864957Y-128996097D01*
X161864959Y-128996097D01*
X161877261Y-128994521D01*
X161893271Y-128993500D01*
X164496134Y-128993500D01*
X164558316Y-128986745D01*
X164694705Y-128935615D01*
X164811261Y-128848261D01*
X164898615Y-128731705D01*
X164949745Y-128595316D01*
X164956500Y-128533134D01*
X164956500Y-128236695D01*
X168182251Y-128236695D01*
X168182548Y-128241848D01*
X168182548Y-128241851D01*
X168188011Y-128336590D01*
X168195110Y-128459715D01*
X168196247Y-128464761D01*
X168196248Y-128464767D01*
X168210886Y-128529717D01*
X168244222Y-128677639D01*
X168328266Y-128884616D01*
X168330965Y-128889020D01*
X168390851Y-128986745D01*
X168444987Y-129075088D01*
X168591250Y-129243938D01*
X168763126Y-129386632D01*
X168956000Y-129499338D01*
X169164692Y-129579030D01*
X169169760Y-129580061D01*
X169169763Y-129580062D01*
X169277017Y-129601883D01*
X169383597Y-129623567D01*
X169388772Y-129623757D01*
X169388774Y-129623757D01*
X169601673Y-129631564D01*
X169601677Y-129631564D01*
X169606837Y-129631753D01*
X169611957Y-129631097D01*
X169611959Y-129631097D01*
X169823288Y-129604025D01*
X169823289Y-129604025D01*
X169828416Y-129603368D01*
X169833366Y-129601883D01*
X170037429Y-129540661D01*
X170037434Y-129540659D01*
X170042384Y-129539174D01*
X170242994Y-129440896D01*
X170424860Y-129311173D01*
X170583096Y-129153489D01*
X170642594Y-129070689D01*
X170710435Y-128976277D01*
X170713453Y-128972077D01*
X170734136Y-128930229D01*
X170810136Y-128776453D01*
X170810137Y-128776451D01*
X170812430Y-128771811D01*
X170844900Y-128664940D01*
X170875865Y-128563023D01*
X170875865Y-128563021D01*
X170877370Y-128558069D01*
X170906529Y-128336590D01*
X170908156Y-128270000D01*
X170889852Y-128047361D01*
X170835431Y-127830702D01*
X170746354Y-127625840D01*
X170644398Y-127468240D01*
X170627822Y-127442617D01*
X170627820Y-127442614D01*
X170625014Y-127438277D01*
X170474670Y-127273051D01*
X170470619Y-127269852D01*
X170470615Y-127269848D01*
X170303414Y-127137800D01*
X170303410Y-127137798D01*
X170299359Y-127134598D01*
X170258053Y-127111796D01*
X170208084Y-127061364D01*
X170193312Y-126991921D01*
X170218428Y-126925516D01*
X170245780Y-126898909D01*
X170289603Y-126867650D01*
X170424860Y-126771173D01*
X170583096Y-126613489D01*
X170615088Y-126568968D01*
X170710435Y-126436277D01*
X170713453Y-126432077D01*
X170718563Y-126421739D01*
X170810136Y-126236453D01*
X170810137Y-126236451D01*
X170812430Y-126231811D01*
X170863076Y-126065116D01*
X170875865Y-126023023D01*
X170875865Y-126023021D01*
X170877370Y-126018069D01*
X170906529Y-125796590D01*
X170907177Y-125770062D01*
X170908074Y-125733365D01*
X170908074Y-125733361D01*
X170908156Y-125730000D01*
X170889852Y-125507361D01*
X170835431Y-125290702D01*
X170746354Y-125085840D01*
X170695149Y-125006689D01*
X170627822Y-124902617D01*
X170627820Y-124902614D01*
X170625014Y-124898277D01*
X170474670Y-124733051D01*
X170470619Y-124729852D01*
X170470615Y-124729848D01*
X170303414Y-124597800D01*
X170303410Y-124597798D01*
X170299359Y-124594598D01*
X170258053Y-124571796D01*
X170208084Y-124521364D01*
X170193312Y-124451921D01*
X170218428Y-124385516D01*
X170245780Y-124358909D01*
X170289603Y-124327650D01*
X170424860Y-124231173D01*
X170446745Y-124209365D01*
X170579435Y-124077137D01*
X170583096Y-124073489D01*
X170642594Y-123990689D01*
X170710435Y-123896277D01*
X170713453Y-123892077D01*
X170718563Y-123881739D01*
X170810136Y-123696453D01*
X170810137Y-123696451D01*
X170812430Y-123691811D01*
X170856999Y-123545117D01*
X170875865Y-123483023D01*
X170875865Y-123483021D01*
X170877370Y-123478069D01*
X170906529Y-123256590D01*
X170907117Y-123232536D01*
X170908074Y-123193365D01*
X170908074Y-123193361D01*
X170908156Y-123190000D01*
X170889852Y-122967361D01*
X170835431Y-122750702D01*
X170746354Y-122545840D01*
X170689437Y-122457860D01*
X170627822Y-122362617D01*
X170627820Y-122362614D01*
X170625014Y-122358277D01*
X170474670Y-122193051D01*
X170470619Y-122189852D01*
X170470615Y-122189848D01*
X170303414Y-122057800D01*
X170303410Y-122057798D01*
X170299359Y-122054598D01*
X170258053Y-122031796D01*
X170208084Y-121981364D01*
X170193312Y-121911921D01*
X170218428Y-121845516D01*
X170245780Y-121818909D01*
X170289603Y-121787650D01*
X170424860Y-121691173D01*
X170583096Y-121533489D01*
X170591710Y-121521502D01*
X170678886Y-121400183D01*
X178369389Y-121400183D01*
X178370912Y-121408607D01*
X178383292Y-121412000D01*
X179432885Y-121412000D01*
X179448124Y-121407525D01*
X179449329Y-121406135D01*
X179451000Y-121398452D01*
X179451000Y-119398115D01*
X179446525Y-119382876D01*
X179445135Y-119381671D01*
X179437452Y-119380000D01*
X178388225Y-119380000D01*
X178374694Y-119383973D01*
X178373257Y-119393966D01*
X178403565Y-119528446D01*
X178406645Y-119538275D01*
X178486770Y-119735603D01*
X178491413Y-119744794D01*
X178602694Y-119926388D01*
X178608777Y-119934699D01*
X178748213Y-120095667D01*
X178755580Y-120102883D01*
X178919434Y-120238916D01*
X178927881Y-120244831D01*
X178997479Y-120285501D01*
X179046203Y-120337140D01*
X179059274Y-120406923D01*
X179032543Y-120472694D01*
X178992087Y-120506053D01*
X178983462Y-120510542D01*
X178974738Y-120516036D01*
X178804433Y-120643905D01*
X178796726Y-120650748D01*
X178649590Y-120804717D01*
X178643104Y-120812727D01*
X178523098Y-120988649D01*
X178518000Y-120997623D01*
X178428338Y-121190783D01*
X178424775Y-121200470D01*
X178369389Y-121400183D01*
X170678886Y-121400183D01*
X170710435Y-121356277D01*
X170713453Y-121352077D01*
X170716585Y-121345741D01*
X170810136Y-121156453D01*
X170810137Y-121156451D01*
X170812430Y-121151811D01*
X170862003Y-120988649D01*
X170875865Y-120943023D01*
X170875865Y-120943021D01*
X170877370Y-120938069D01*
X170906529Y-120716590D01*
X170908156Y-120650000D01*
X170889852Y-120427361D01*
X170835431Y-120210702D01*
X170746354Y-120005840D01*
X170625014Y-119818277D01*
X170474670Y-119653051D01*
X170470619Y-119649852D01*
X170470615Y-119649848D01*
X170303414Y-119517800D01*
X170303410Y-119517798D01*
X170299359Y-119514598D01*
X170258053Y-119491796D01*
X170208084Y-119441364D01*
X170193312Y-119371921D01*
X170218428Y-119305516D01*
X170245780Y-119278909D01*
X170290163Y-119247251D01*
X170424860Y-119151173D01*
X170501541Y-119074760D01*
X170579435Y-118997137D01*
X170583096Y-118993489D01*
X170605324Y-118962556D01*
X170710435Y-118816277D01*
X170713453Y-118812077D01*
X170718563Y-118801739D01*
X170810136Y-118616453D01*
X170810137Y-118616451D01*
X170812430Y-118611811D01*
X170862003Y-118448649D01*
X170875865Y-118403023D01*
X170875865Y-118403021D01*
X170877370Y-118398069D01*
X170906529Y-118176590D01*
X170908156Y-118110000D01*
X170889852Y-117887361D01*
X170835431Y-117670702D01*
X170746354Y-117465840D01*
X170625014Y-117278277D01*
X170621532Y-117274450D01*
X170477798Y-117116488D01*
X170446746Y-117052642D01*
X170455141Y-116982143D01*
X170500317Y-116927375D01*
X170526761Y-116913706D01*
X170633297Y-116873767D01*
X170641705Y-116870615D01*
X170758261Y-116783261D01*
X170845615Y-116666705D01*
X170896745Y-116530316D01*
X170903500Y-116468134D01*
X170903500Y-114671866D01*
X170896745Y-114609684D01*
X170845615Y-114473295D01*
X170758261Y-114356739D01*
X170641705Y-114269385D01*
X170505316Y-114218255D01*
X170443134Y-114211500D01*
X168646866Y-114211500D01*
X168584684Y-114218255D01*
X168448295Y-114269385D01*
X168331739Y-114356739D01*
X168244385Y-114473295D01*
X168193255Y-114609684D01*
X168186500Y-114671866D01*
X168186500Y-116468134D01*
X168193255Y-116530316D01*
X168244385Y-116666705D01*
X168331739Y-116783261D01*
X168448295Y-116870615D01*
X168456704Y-116873767D01*
X168456705Y-116873768D01*
X168565451Y-116914535D01*
X168622216Y-116957176D01*
X168646916Y-117023738D01*
X168631709Y-117093087D01*
X168612316Y-117119568D01*
X168494748Y-117242596D01*
X168485629Y-117252138D01*
X168359743Y-117436680D01*
X168344003Y-117470590D01*
X168274634Y-117620033D01*
X168265688Y-117639305D01*
X168205989Y-117854570D01*
X168182251Y-118076695D01*
X168182548Y-118081848D01*
X168182548Y-118081851D01*
X168188011Y-118176590D01*
X168195110Y-118299715D01*
X168196247Y-118304761D01*
X168196248Y-118304767D01*
X168216119Y-118392939D01*
X168244222Y-118517639D01*
X168328266Y-118724616D01*
X168377724Y-118805324D01*
X168416504Y-118868607D01*
X168444987Y-118915088D01*
X168591250Y-119083938D01*
X168667846Y-119147529D01*
X168756103Y-119220801D01*
X168763126Y-119226632D01*
X168813858Y-119256277D01*
X168836445Y-119269476D01*
X168885169Y-119321114D01*
X168898240Y-119390897D01*
X168871509Y-119456669D01*
X168831055Y-119490027D01*
X168818607Y-119496507D01*
X168814474Y-119499610D01*
X168814471Y-119499612D01*
X168714374Y-119574767D01*
X168639965Y-119630635D01*
X168636393Y-119634373D01*
X168494748Y-119782596D01*
X168485629Y-119792138D01*
X168359743Y-119976680D01*
X168265688Y-120179305D01*
X168205989Y-120394570D01*
X168182251Y-120616695D01*
X168182548Y-120621848D01*
X168182548Y-120621851D01*
X168188011Y-120716590D01*
X168195110Y-120839715D01*
X168196247Y-120844761D01*
X168196248Y-120844767D01*
X168216119Y-120932939D01*
X168244222Y-121057639D01*
X168328266Y-121264616D01*
X168362982Y-121321267D01*
X168438110Y-121443865D01*
X168444987Y-121455088D01*
X168591250Y-121623938D01*
X168763126Y-121766632D01*
X168809961Y-121794000D01*
X168836445Y-121809476D01*
X168885169Y-121861114D01*
X168898240Y-121930897D01*
X168871509Y-121996669D01*
X168831055Y-122030027D01*
X168818607Y-122036507D01*
X168814474Y-122039610D01*
X168814471Y-122039612D01*
X168714374Y-122114767D01*
X168639965Y-122170635D01*
X168636393Y-122174373D01*
X168494748Y-122322596D01*
X168485629Y-122332138D01*
X168482715Y-122336410D01*
X168482714Y-122336411D01*
X168419805Y-122428633D01*
X168359743Y-122516680D01*
X168345279Y-122547841D01*
X168270461Y-122709023D01*
X168265688Y-122719305D01*
X168205989Y-122934570D01*
X168182251Y-123156695D01*
X168182548Y-123161848D01*
X168182548Y-123161851D01*
X168192160Y-123328556D01*
X168195110Y-123379715D01*
X168196247Y-123384761D01*
X168196248Y-123384767D01*
X168216119Y-123472939D01*
X168244222Y-123597639D01*
X168281881Y-123690383D01*
X168324112Y-123794385D01*
X168328266Y-123804616D01*
X168330965Y-123809020D01*
X168437801Y-123983361D01*
X168444987Y-123995088D01*
X168591250Y-124163938D01*
X168763126Y-124306632D01*
X168812528Y-124335500D01*
X168836445Y-124349476D01*
X168885169Y-124401114D01*
X168898240Y-124470897D01*
X168871509Y-124536669D01*
X168831055Y-124570027D01*
X168818607Y-124576507D01*
X168814474Y-124579610D01*
X168814471Y-124579612D01*
X168714374Y-124654767D01*
X168639965Y-124710635D01*
X168636393Y-124714373D01*
X168494748Y-124862596D01*
X168485629Y-124872138D01*
X168482715Y-124876410D01*
X168482714Y-124876411D01*
X168461113Y-124908077D01*
X168359743Y-125056680D01*
X168265688Y-125259305D01*
X168205989Y-125474570D01*
X168182251Y-125696695D01*
X168182548Y-125701848D01*
X168182548Y-125701851D01*
X168189424Y-125821097D01*
X168195110Y-125919715D01*
X168196247Y-125924761D01*
X168196248Y-125924767D01*
X168204850Y-125962936D01*
X168244222Y-126137639D01*
X168328266Y-126344616D01*
X168374248Y-126419652D01*
X168437160Y-126522315D01*
X168444987Y-126535088D01*
X168591250Y-126703938D01*
X168763126Y-126846632D01*
X168833595Y-126887811D01*
X168836445Y-126889476D01*
X168885169Y-126941114D01*
X168898240Y-127010897D01*
X168871509Y-127076669D01*
X168831055Y-127110027D01*
X168818607Y-127116507D01*
X168814474Y-127119610D01*
X168814471Y-127119612D01*
X168790247Y-127137800D01*
X168639965Y-127250635D01*
X168636393Y-127254373D01*
X168489235Y-127408365D01*
X168485629Y-127412138D01*
X168482715Y-127416410D01*
X168482714Y-127416411D01*
X168447359Y-127468240D01*
X168359743Y-127596680D01*
X168265688Y-127799305D01*
X168205989Y-128014570D01*
X168182251Y-128236695D01*
X164956500Y-128236695D01*
X164956500Y-126736866D01*
X164949745Y-126674684D01*
X164898615Y-126538295D01*
X164825370Y-126440564D01*
X164800522Y-126374059D01*
X164815575Y-126304676D01*
X164825370Y-126289435D01*
X164898615Y-126191705D01*
X164949745Y-126055316D01*
X164956500Y-125993134D01*
X164956500Y-124196866D01*
X164949745Y-124134684D01*
X164898615Y-123998295D01*
X164825058Y-123900148D01*
X164800210Y-123833642D01*
X164815263Y-123764259D01*
X164825058Y-123749018D01*
X164892786Y-123658649D01*
X164901324Y-123643054D01*
X164946478Y-123522606D01*
X164950105Y-123507351D01*
X164955631Y-123456486D01*
X164956000Y-123449672D01*
X164956000Y-122827115D01*
X164951525Y-122811876D01*
X164950135Y-122810671D01*
X164942452Y-122809000D01*
X160458116Y-122809000D01*
X160442877Y-122813475D01*
X160441672Y-122814865D01*
X160440001Y-122822548D01*
X160440001Y-123449669D01*
X160440371Y-123456490D01*
X160445895Y-123507352D01*
X160449521Y-123522604D01*
X160494676Y-123643054D01*
X160503214Y-123658649D01*
X160570942Y-123749018D01*
X160595790Y-123815525D01*
X160580737Y-123884907D01*
X160570942Y-123900148D01*
X160497385Y-123998295D01*
X160446255Y-124134684D01*
X160439500Y-124196866D01*
X160439500Y-124335500D01*
X160419498Y-124403621D01*
X160365842Y-124450114D01*
X160313500Y-124461500D01*
X159604894Y-124461500D01*
X159536773Y-124441498D01*
X159515799Y-124424595D01*
X156618952Y-121527747D01*
X156611412Y-121519461D01*
X156607300Y-121512982D01*
X156557648Y-121466356D01*
X156554807Y-121463602D01*
X156535070Y-121443865D01*
X156531873Y-121441385D01*
X156522851Y-121433680D01*
X156496400Y-121408841D01*
X156490621Y-121403414D01*
X156483675Y-121399595D01*
X156483672Y-121399593D01*
X156472866Y-121393652D01*
X156456347Y-121382801D01*
X156455883Y-121382441D01*
X156440341Y-121370386D01*
X156433072Y-121367241D01*
X156433068Y-121367238D01*
X156399763Y-121352826D01*
X156389113Y-121347609D01*
X156350360Y-121326305D01*
X156330737Y-121321267D01*
X156312034Y-121314863D01*
X156300720Y-121309967D01*
X156300719Y-121309967D01*
X156293445Y-121306819D01*
X156285622Y-121305580D01*
X156285612Y-121305577D01*
X156249776Y-121299901D01*
X156238156Y-121297495D01*
X156203012Y-121288472D01*
X156203009Y-121288472D01*
X156199702Y-121287622D01*
X156195331Y-121286500D01*
X156195643Y-121285285D01*
X156137848Y-121260079D01*
X156112924Y-121231894D01*
X156022822Y-121092617D01*
X156022820Y-121092614D01*
X156020014Y-121088277D01*
X155869670Y-120923051D01*
X155865619Y-120919852D01*
X155865615Y-120919848D01*
X155698414Y-120787800D01*
X155698410Y-120787798D01*
X155694359Y-120784598D01*
X155653053Y-120761796D01*
X155603084Y-120711364D01*
X155588312Y-120641921D01*
X155613428Y-120575516D01*
X155640780Y-120548909D01*
X155686866Y-120516036D01*
X155819860Y-120421173D01*
X155978096Y-120263489D01*
X155995754Y-120238916D01*
X156105435Y-120086277D01*
X156108453Y-120082077D01*
X156119851Y-120059016D01*
X156205136Y-119886453D01*
X156205137Y-119886451D01*
X156207430Y-119881811D01*
X156272370Y-119668069D01*
X156301529Y-119446590D01*
X156302505Y-119406638D01*
X156303074Y-119383365D01*
X156303074Y-119383361D01*
X156303156Y-119380000D01*
X156284852Y-119157361D01*
X156230431Y-118940702D01*
X156141354Y-118735840D01*
X156039819Y-118578891D01*
X156022822Y-118552617D01*
X156022820Y-118552614D01*
X156020014Y-118548277D01*
X155869670Y-118383051D01*
X155865619Y-118379852D01*
X155865615Y-118379848D01*
X155698414Y-118247800D01*
X155698410Y-118247798D01*
X155694359Y-118244598D01*
X155653053Y-118221796D01*
X155603084Y-118171364D01*
X155588312Y-118101921D01*
X155613428Y-118035516D01*
X155640780Y-118008909D01*
X155690608Y-117973367D01*
X155819860Y-117881173D01*
X155978096Y-117723489D01*
X156002239Y-117689891D01*
X156105435Y-117546277D01*
X156108453Y-117542077D01*
X156110746Y-117537437D01*
X156112446Y-117534608D01*
X156164674Y-117486518D01*
X156220451Y-117473500D01*
X160313500Y-117473500D01*
X160381621Y-117493502D01*
X160428114Y-117547158D01*
X160439500Y-117599500D01*
X160439500Y-118373134D01*
X160446255Y-118435316D01*
X160497385Y-118571705D01*
X160502771Y-118578891D01*
X160570630Y-118669435D01*
X160595478Y-118735941D01*
X160580425Y-118805324D01*
X160570632Y-118820562D01*
X160497385Y-118918295D01*
X160446255Y-119054684D01*
X160439500Y-119116866D01*
X160439500Y-119935219D01*
X160438787Y-119948607D01*
X160435251Y-119981695D01*
X160435548Y-119986848D01*
X160435548Y-119986851D01*
X160439291Y-120051763D01*
X160439500Y-120059016D01*
X160439500Y-120913134D01*
X160446255Y-120975316D01*
X160497385Y-121111705D01*
X160502771Y-121118891D01*
X160570942Y-121209852D01*
X160595790Y-121276358D01*
X160580737Y-121345741D01*
X160570942Y-121360982D01*
X160503214Y-121451351D01*
X160494676Y-121466946D01*
X160449522Y-121587394D01*
X160445895Y-121602649D01*
X160440369Y-121653514D01*
X160440000Y-121660328D01*
X160440000Y-122282885D01*
X160444475Y-122298124D01*
X160445865Y-122299329D01*
X160453548Y-122301000D01*
X164937884Y-122301000D01*
X164953123Y-122296525D01*
X164954328Y-122295135D01*
X164955999Y-122287452D01*
X164955999Y-121660331D01*
X164955629Y-121653510D01*
X164950105Y-121602648D01*
X164946479Y-121587396D01*
X164901324Y-121466946D01*
X164892786Y-121451351D01*
X164825058Y-121360982D01*
X164800210Y-121294475D01*
X164815263Y-121225093D01*
X164825058Y-121209852D01*
X164893229Y-121118891D01*
X164898615Y-121111705D01*
X164949745Y-120975316D01*
X164956500Y-120913134D01*
X164956500Y-119116866D01*
X164949745Y-119054684D01*
X164898615Y-118918295D01*
X164825370Y-118820564D01*
X164800522Y-118754059D01*
X164815575Y-118684676D01*
X164825370Y-118669435D01*
X164893229Y-118578891D01*
X164898615Y-118571705D01*
X164949745Y-118435316D01*
X164956500Y-118373134D01*
X164956500Y-116576866D01*
X164949745Y-116514684D01*
X164898615Y-116378295D01*
X164825370Y-116280564D01*
X164800522Y-116214059D01*
X164815575Y-116144676D01*
X164825370Y-116129435D01*
X164898615Y-116031705D01*
X164949745Y-115895316D01*
X164956500Y-115833134D01*
X164956500Y-114219594D01*
X164976502Y-114151473D01*
X164993405Y-114130499D01*
X167391353Y-111732552D01*
X167399639Y-111725012D01*
X167406118Y-111720900D01*
X167452744Y-111671248D01*
X167455498Y-111668407D01*
X167475235Y-111648670D01*
X167477715Y-111645473D01*
X167485420Y-111636451D01*
X167510259Y-111610000D01*
X167515686Y-111604221D01*
X167519505Y-111597275D01*
X167519507Y-111597272D01*
X167525448Y-111586466D01*
X167536299Y-111569947D01*
X167543858Y-111560201D01*
X167548714Y-111553941D01*
X167551859Y-111546672D01*
X167551862Y-111546668D01*
X167566274Y-111513363D01*
X167571491Y-111502713D01*
X167592795Y-111463960D01*
X167597833Y-111444337D01*
X167601828Y-111432670D01*
X168856160Y-111432670D01*
X168861887Y-111440320D01*
X169033042Y-111545205D01*
X169041837Y-111549687D01*
X169251988Y-111636734D01*
X169261373Y-111639783D01*
X169482554Y-111692885D01*
X169492301Y-111694428D01*
X169719070Y-111712275D01*
X169728930Y-111712275D01*
X169955699Y-111694428D01*
X169965446Y-111692885D01*
X170186627Y-111639783D01*
X170196012Y-111636734D01*
X170406163Y-111549687D01*
X170414958Y-111545205D01*
X170582445Y-111442568D01*
X170591400Y-111432670D01*
X175356160Y-111432670D01*
X175361887Y-111440320D01*
X175533042Y-111545205D01*
X175541837Y-111549687D01*
X175751988Y-111636734D01*
X175761373Y-111639783D01*
X175982554Y-111692885D01*
X175992301Y-111694428D01*
X176219070Y-111712275D01*
X176228930Y-111712275D01*
X176455699Y-111694428D01*
X176465446Y-111692885D01*
X176686627Y-111639783D01*
X176696012Y-111636734D01*
X176906163Y-111549687D01*
X176914958Y-111545205D01*
X177082445Y-111442568D01*
X177091907Y-111432110D01*
X177088124Y-111423334D01*
X176236812Y-110572022D01*
X176222868Y-110564408D01*
X176221035Y-110564539D01*
X176214420Y-110568790D01*
X175362920Y-111420290D01*
X175356160Y-111432670D01*
X170591400Y-111432670D01*
X170591907Y-111432110D01*
X170588124Y-111423334D01*
X169736812Y-110572022D01*
X169722868Y-110564408D01*
X169721035Y-110564539D01*
X169714420Y-110568790D01*
X168862920Y-111420290D01*
X168856160Y-111432670D01*
X167601828Y-111432670D01*
X167604237Y-111425634D01*
X167609133Y-111414320D01*
X167609133Y-111414319D01*
X167612281Y-111407045D01*
X167613520Y-111399222D01*
X167613523Y-111399212D01*
X167619199Y-111363376D01*
X167621605Y-111351756D01*
X167630628Y-111316611D01*
X167630628Y-111316610D01*
X167632600Y-111308930D01*
X167632600Y-111288676D01*
X167634151Y-111268965D01*
X167636080Y-111256786D01*
X167637320Y-111248957D01*
X167633159Y-111204938D01*
X167632600Y-111193081D01*
X167632600Y-110627094D01*
X167652602Y-110558973D01*
X167669505Y-110537999D01*
X168003202Y-110204302D01*
X168065514Y-110170276D01*
X168136329Y-110175341D01*
X168193165Y-110217888D01*
X168217909Y-110283511D01*
X168229572Y-110431699D01*
X168231115Y-110441446D01*
X168284217Y-110662627D01*
X168287266Y-110672012D01*
X168374313Y-110882163D01*
X168378795Y-110890958D01*
X168481432Y-111058445D01*
X168491890Y-111067907D01*
X168500666Y-111064124D01*
X169363658Y-110201132D01*
X170088408Y-110201132D01*
X170088539Y-110202965D01*
X170092790Y-110209580D01*
X170944290Y-111061080D01*
X170956670Y-111067840D01*
X170964320Y-111062113D01*
X171069205Y-110890958D01*
X171073687Y-110882163D01*
X171160734Y-110672012D01*
X171163783Y-110662627D01*
X171216885Y-110441446D01*
X171218428Y-110431699D01*
X171236275Y-110204930D01*
X174711725Y-110204930D01*
X174729572Y-110431699D01*
X174731115Y-110441446D01*
X174784217Y-110662627D01*
X174787266Y-110672012D01*
X174874313Y-110882163D01*
X174878795Y-110890958D01*
X174981432Y-111058445D01*
X174991890Y-111067907D01*
X175000666Y-111064124D01*
X175851978Y-110212812D01*
X175858356Y-110201132D01*
X176588408Y-110201132D01*
X176588539Y-110202965D01*
X176592790Y-110209580D01*
X177444290Y-111061080D01*
X177456670Y-111067840D01*
X177464320Y-111062113D01*
X177569205Y-110890958D01*
X177573687Y-110882163D01*
X177660734Y-110672012D01*
X177663783Y-110662627D01*
X177716885Y-110441446D01*
X177718428Y-110431699D01*
X177736275Y-110204930D01*
X177736275Y-110195070D01*
X177718428Y-109968301D01*
X177716885Y-109958554D01*
X177663783Y-109737373D01*
X177660734Y-109727988D01*
X177573687Y-109517837D01*
X177569205Y-109509042D01*
X177466568Y-109341555D01*
X177456110Y-109332093D01*
X177447334Y-109335876D01*
X176596022Y-110187188D01*
X176588408Y-110201132D01*
X175858356Y-110201132D01*
X175859592Y-110198868D01*
X175859461Y-110197035D01*
X175855210Y-110190420D01*
X175003710Y-109338920D01*
X174991330Y-109332160D01*
X174983680Y-109337887D01*
X174878795Y-109509042D01*
X174874313Y-109517837D01*
X174787266Y-109727988D01*
X174784217Y-109737373D01*
X174731115Y-109958554D01*
X174729572Y-109968301D01*
X174711725Y-110195070D01*
X174711725Y-110204930D01*
X171236275Y-110204930D01*
X171236275Y-110195070D01*
X171218428Y-109968301D01*
X171216885Y-109958554D01*
X171163783Y-109737373D01*
X171160734Y-109727988D01*
X171073687Y-109517837D01*
X171069205Y-109509042D01*
X170966568Y-109341555D01*
X170956110Y-109332093D01*
X170947334Y-109335876D01*
X170096022Y-110187188D01*
X170088408Y-110201132D01*
X169363658Y-110201132D01*
X170585080Y-108979710D01*
X170591534Y-108967890D01*
X175356093Y-108967890D01*
X175359876Y-108976666D01*
X176211188Y-109827978D01*
X176225132Y-109835592D01*
X176226965Y-109835461D01*
X176233580Y-109831210D01*
X177085080Y-108979710D01*
X177091840Y-108967330D01*
X177086113Y-108959680D01*
X176914958Y-108854795D01*
X176906163Y-108850313D01*
X176696012Y-108763266D01*
X176686627Y-108760217D01*
X176465446Y-108707115D01*
X176455699Y-108705572D01*
X176228930Y-108687725D01*
X176219070Y-108687725D01*
X175992301Y-108705572D01*
X175982554Y-108707115D01*
X175761373Y-108760217D01*
X175751988Y-108763266D01*
X175541837Y-108850313D01*
X175533042Y-108854795D01*
X175365555Y-108957432D01*
X175356093Y-108967890D01*
X170591534Y-108967890D01*
X170591840Y-108967330D01*
X170586113Y-108959680D01*
X170414958Y-108854795D01*
X170406163Y-108850313D01*
X170196012Y-108763266D01*
X170186627Y-108760217D01*
X169965446Y-108707115D01*
X169955699Y-108705572D01*
X169807511Y-108693909D01*
X169741170Y-108668623D01*
X169699030Y-108611485D01*
X169694471Y-108540635D01*
X169728302Y-108479202D01*
X172507504Y-105700000D01*
X174710835Y-105700000D01*
X174729465Y-105936711D01*
X174730619Y-105941518D01*
X174730620Y-105941524D01*
X174746263Y-106006680D01*
X174784895Y-106167594D01*
X174786788Y-106172165D01*
X174786789Y-106172167D01*
X174865644Y-106362540D01*
X174875760Y-106386963D01*
X174878346Y-106391183D01*
X174997241Y-106585202D01*
X174997245Y-106585208D01*
X174999824Y-106589416D01*
X175154031Y-106769969D01*
X175334584Y-106924176D01*
X175338792Y-106926755D01*
X175338798Y-106926759D01*
X175461923Y-107002210D01*
X175537037Y-107048240D01*
X175541607Y-107050133D01*
X175541611Y-107050135D01*
X175704012Y-107117403D01*
X175756406Y-107139105D01*
X175836609Y-107158360D01*
X175982476Y-107193380D01*
X175982482Y-107193381D01*
X175987289Y-107194535D01*
X176224000Y-107213165D01*
X176460711Y-107194535D01*
X176465518Y-107193381D01*
X176465524Y-107193380D01*
X176611391Y-107158360D01*
X176691594Y-107139105D01*
X176743988Y-107117403D01*
X176906389Y-107050135D01*
X176906393Y-107050133D01*
X176910963Y-107048240D01*
X176986077Y-107002210D01*
X177109202Y-106926759D01*
X177109208Y-106926755D01*
X177113416Y-106924176D01*
X177293969Y-106769969D01*
X177448176Y-106589416D01*
X177450755Y-106585208D01*
X177450759Y-106585202D01*
X177569654Y-106391183D01*
X177572240Y-106386963D01*
X177582357Y-106362540D01*
X177661211Y-106172167D01*
X177661212Y-106172165D01*
X177663105Y-106167594D01*
X177701737Y-106006680D01*
X177717380Y-105941524D01*
X177717381Y-105941518D01*
X177718535Y-105936711D01*
X177737165Y-105700000D01*
X177718535Y-105463289D01*
X177708949Y-105423357D01*
X177668921Y-105256632D01*
X177663105Y-105232406D01*
X177641884Y-105181173D01*
X177574135Y-105017611D01*
X177574133Y-105017607D01*
X177572240Y-105013037D01*
X177486337Y-104872856D01*
X177450759Y-104814798D01*
X177450755Y-104814792D01*
X177448176Y-104810584D01*
X177293969Y-104630031D01*
X177284865Y-104622255D01*
X177191596Y-104542596D01*
X177113416Y-104475824D01*
X177109208Y-104473245D01*
X177109202Y-104473241D01*
X176915183Y-104354346D01*
X176910963Y-104351760D01*
X176906393Y-104349867D01*
X176906389Y-104349865D01*
X176696167Y-104262789D01*
X176696165Y-104262788D01*
X176691594Y-104260895D01*
X176607013Y-104240589D01*
X176465524Y-104206620D01*
X176465518Y-104206619D01*
X176460711Y-104205465D01*
X176224000Y-104186835D01*
X175987289Y-104205465D01*
X175982482Y-104206619D01*
X175982476Y-104206620D01*
X175840987Y-104240589D01*
X175756406Y-104260895D01*
X175751835Y-104262788D01*
X175751833Y-104262789D01*
X175541611Y-104349865D01*
X175541607Y-104349867D01*
X175537037Y-104351760D01*
X175532817Y-104354346D01*
X175338798Y-104473241D01*
X175338792Y-104473245D01*
X175334584Y-104475824D01*
X175256404Y-104542596D01*
X175163136Y-104622255D01*
X175154031Y-104630031D01*
X174999824Y-104810584D01*
X174997245Y-104814792D01*
X174997241Y-104814798D01*
X174961663Y-104872856D01*
X174875760Y-105013037D01*
X174873867Y-105017607D01*
X174873865Y-105017611D01*
X174806116Y-105181173D01*
X174784895Y-105232406D01*
X174779079Y-105256632D01*
X174739052Y-105423357D01*
X174729465Y-105463289D01*
X174710835Y-105700000D01*
X172507504Y-105700000D01*
X177176247Y-101031257D01*
X177184537Y-101023713D01*
X177191018Y-101019600D01*
X177198700Y-101011420D01*
X177237658Y-100969933D01*
X177240413Y-100967091D01*
X177260134Y-100947370D01*
X177262612Y-100944175D01*
X177270318Y-100935153D01*
X177295158Y-100908701D01*
X177300586Y-100902921D01*
X177310346Y-100885168D01*
X177321199Y-100868645D01*
X177328753Y-100858906D01*
X177333613Y-100852641D01*
X177351176Y-100812057D01*
X177356383Y-100801427D01*
X177377695Y-100762660D01*
X177379666Y-100754983D01*
X177379668Y-100754978D01*
X177382732Y-100743042D01*
X177389138Y-100724330D01*
X177394033Y-100713019D01*
X177397181Y-100705745D01*
X177398421Y-100697917D01*
X177398423Y-100697910D01*
X177404099Y-100662076D01*
X177406505Y-100650456D01*
X177415528Y-100615311D01*
X177415528Y-100615310D01*
X177417500Y-100607630D01*
X177417500Y-100587376D01*
X177419051Y-100567665D01*
X177420980Y-100555486D01*
X177422220Y-100547657D01*
X177418059Y-100503638D01*
X177417500Y-100491781D01*
X177417500Y-83825427D01*
X177437502Y-83757306D01*
X177478618Y-83717550D01*
X177481994Y-83715896D01*
X177663860Y-83586173D01*
X177689793Y-83560331D01*
X177795276Y-83455215D01*
X177822096Y-83428489D01*
X177910806Y-83305036D01*
X177949435Y-83251277D01*
X177952453Y-83247077D01*
X177963844Y-83224030D01*
X178049136Y-83051453D01*
X178049137Y-83051451D01*
X178051430Y-83046811D01*
X178116370Y-82833069D01*
X178145529Y-82611590D01*
X178146582Y-82568502D01*
X178147074Y-82548365D01*
X178147074Y-82548361D01*
X178147156Y-82545000D01*
X178128852Y-82322361D01*
X178074431Y-82105702D01*
X177985354Y-81900840D01*
X177870280Y-81722962D01*
X177866822Y-81717617D01*
X177866820Y-81717614D01*
X177864014Y-81713277D01*
X177841379Y-81688401D01*
X177716798Y-81551488D01*
X177685746Y-81487642D01*
X177694141Y-81417143D01*
X177739317Y-81362375D01*
X177765761Y-81348706D01*
X177872297Y-81308767D01*
X177880705Y-81305615D01*
X177997261Y-81218261D01*
X178084615Y-81101705D01*
X178135745Y-80965316D01*
X178142500Y-80903134D01*
X178142500Y-80329894D01*
X178162502Y-80261773D01*
X178216158Y-80215280D01*
X178286432Y-80205176D01*
X178351012Y-80234670D01*
X178357594Y-80240798D01*
X179284930Y-81168135D01*
X180209895Y-82093100D01*
X180243921Y-82155412D01*
X180246800Y-82182195D01*
X180246800Y-86431613D01*
X180226798Y-86499734D01*
X180173142Y-86546227D01*
X180102868Y-86556331D01*
X180076570Y-86549595D01*
X180055518Y-86541703D01*
X180030316Y-86532255D01*
X179968134Y-86525500D01*
X178171866Y-86525500D01*
X178109684Y-86532255D01*
X177973295Y-86583385D01*
X177856739Y-86670739D01*
X177769385Y-86787295D01*
X177718255Y-86923684D01*
X177711500Y-86985866D01*
X177711500Y-88782134D01*
X177718255Y-88844316D01*
X177769385Y-88980705D01*
X177856739Y-89097261D01*
X177973295Y-89184615D01*
X177981704Y-89187767D01*
X177981705Y-89187768D01*
X178090451Y-89228535D01*
X178147216Y-89271176D01*
X178171916Y-89337738D01*
X178156709Y-89407087D01*
X178137316Y-89433568D01*
X178037170Y-89538365D01*
X178010629Y-89566138D01*
X178007715Y-89570410D01*
X178007714Y-89570411D01*
X177986445Y-89601590D01*
X177884743Y-89750680D01*
X177839520Y-89848105D01*
X177806284Y-89919707D01*
X177790688Y-89953305D01*
X177730989Y-90168570D01*
X177707251Y-90390695D01*
X177707548Y-90395848D01*
X177707548Y-90395851D01*
X177713710Y-90502715D01*
X177720110Y-90613715D01*
X177721247Y-90618761D01*
X177721248Y-90618767D01*
X177733203Y-90671813D01*
X177769222Y-90831639D01*
X177827470Y-90975088D01*
X177842497Y-91012094D01*
X177853266Y-91038616D01*
X177855965Y-91043020D01*
X177959009Y-91211173D01*
X177969987Y-91229088D01*
X178116250Y-91397938D01*
X178288126Y-91540632D01*
X178304204Y-91550027D01*
X178361445Y-91583476D01*
X178410169Y-91635114D01*
X178423240Y-91704897D01*
X178396509Y-91770669D01*
X178356055Y-91804027D01*
X178343607Y-91810507D01*
X178339474Y-91813610D01*
X178339471Y-91813612D01*
X178169100Y-91941530D01*
X178164965Y-91944635D01*
X178010629Y-92106138D01*
X177884743Y-92290680D01*
X177882564Y-92295375D01*
X177806284Y-92459707D01*
X177790688Y-92493305D01*
X177730989Y-92708570D01*
X177707251Y-92930695D01*
X177707548Y-92935848D01*
X177707548Y-92935851D01*
X177718781Y-93130665D01*
X177720110Y-93153715D01*
X177721247Y-93158761D01*
X177721248Y-93158767D01*
X177734249Y-93216453D01*
X177769222Y-93371639D01*
X177853266Y-93578616D01*
X177875047Y-93614159D01*
X177962801Y-93757361D01*
X177969987Y-93769088D01*
X178116250Y-93937938D01*
X178288126Y-94080632D01*
X178307233Y-94091797D01*
X178361445Y-94123476D01*
X178410169Y-94175114D01*
X178423240Y-94244897D01*
X178396509Y-94310669D01*
X178356055Y-94344027D01*
X178343607Y-94350507D01*
X178339474Y-94353610D01*
X178339471Y-94353612D01*
X178175324Y-94476857D01*
X178164965Y-94484635D01*
X178130144Y-94521073D01*
X178037170Y-94618365D01*
X178010629Y-94646138D01*
X178007715Y-94650410D01*
X178007714Y-94650411D01*
X177922556Y-94775249D01*
X177884743Y-94830680D01*
X177862208Y-94879228D01*
X177805254Y-95001926D01*
X177790688Y-95033305D01*
X177730989Y-95248570D01*
X177707251Y-95470695D01*
X177707548Y-95475848D01*
X177707548Y-95475851D01*
X177711421Y-95543023D01*
X177720110Y-95693715D01*
X177721247Y-95698761D01*
X177721248Y-95698767D01*
X177734249Y-95756453D01*
X177769222Y-95911639D01*
X177853266Y-96118616D01*
X177855965Y-96123020D01*
X177962801Y-96297361D01*
X177969987Y-96309088D01*
X178116250Y-96477938D01*
X178288126Y-96620632D01*
X178311937Y-96634546D01*
X178361955Y-96663774D01*
X178410679Y-96715412D01*
X178423750Y-96785195D01*
X178397019Y-96850967D01*
X178356562Y-96884327D01*
X178348457Y-96888546D01*
X178339738Y-96894036D01*
X178169433Y-97021905D01*
X178161726Y-97028748D01*
X178014590Y-97182717D01*
X178008104Y-97190727D01*
X177888098Y-97366649D01*
X177883000Y-97375623D01*
X177793338Y-97568783D01*
X177789775Y-97578470D01*
X177734389Y-97778183D01*
X177735912Y-97786607D01*
X177748292Y-97790000D01*
X179198000Y-97790000D01*
X179266121Y-97810002D01*
X179312614Y-97863658D01*
X179324000Y-97916000D01*
X179324000Y-98172000D01*
X179303998Y-98240121D01*
X179250342Y-98286614D01*
X179198000Y-98298000D01*
X177753225Y-98298000D01*
X177739694Y-98301973D01*
X177738257Y-98311966D01*
X177768565Y-98446446D01*
X177771645Y-98456275D01*
X177851770Y-98653603D01*
X177856413Y-98662794D01*
X177967694Y-98844388D01*
X177973777Y-98852699D01*
X178113213Y-99013667D01*
X178120580Y-99020883D01*
X178284434Y-99156916D01*
X178292881Y-99162831D01*
X178361969Y-99203203D01*
X178410693Y-99254842D01*
X178423764Y-99324625D01*
X178397033Y-99390396D01*
X178356584Y-99423752D01*
X178343607Y-99430507D01*
X178339474Y-99433610D01*
X178339471Y-99433612D01*
X178169100Y-99561530D01*
X178164965Y-99564635D01*
X178130144Y-99601073D01*
X178037170Y-99698365D01*
X178010629Y-99726138D01*
X178007715Y-99730410D01*
X178007714Y-99730411D01*
X177986445Y-99761590D01*
X177884743Y-99910680D01*
X177882564Y-99915375D01*
X177795104Y-100103792D01*
X177790688Y-100113305D01*
X177730989Y-100328570D01*
X177707251Y-100550695D01*
X177707548Y-100555848D01*
X177707548Y-100555851D01*
X177717739Y-100732596D01*
X177720110Y-100773715D01*
X177721247Y-100778761D01*
X177721248Y-100778767D01*
X177735544Y-100842200D01*
X177769222Y-100991639D01*
X177853266Y-101198616D01*
X177855965Y-101203020D01*
X177962801Y-101377361D01*
X177969987Y-101389088D01*
X178116250Y-101557938D01*
X178247122Y-101666590D01*
X178277204Y-101691564D01*
X178288126Y-101700632D01*
X178481000Y-101813338D01*
X178689692Y-101893030D01*
X178694760Y-101894061D01*
X178694763Y-101894062D01*
X178883322Y-101932425D01*
X178947296Y-101966800D01*
X179034595Y-102054099D01*
X179068621Y-102116411D01*
X179071500Y-102143194D01*
X179071500Y-115101500D01*
X179051498Y-115169621D01*
X178997842Y-115216114D01*
X178945500Y-115227500D01*
X178806866Y-115227500D01*
X178744684Y-115234255D01*
X178608295Y-115285385D01*
X178491739Y-115372739D01*
X178404385Y-115489295D01*
X178353255Y-115625684D01*
X178346500Y-115687866D01*
X178346500Y-117484134D01*
X178353255Y-117546316D01*
X178404385Y-117682705D01*
X178491739Y-117799261D01*
X178608295Y-117886615D01*
X178616704Y-117889767D01*
X178616705Y-117889768D01*
X178725960Y-117930726D01*
X178782725Y-117973367D01*
X178807425Y-118039929D01*
X178792218Y-118109278D01*
X178772825Y-118135759D01*
X178649590Y-118264717D01*
X178643104Y-118272727D01*
X178523098Y-118448649D01*
X178518000Y-118457623D01*
X178428338Y-118650783D01*
X178424775Y-118660470D01*
X178369389Y-118860183D01*
X178370912Y-118868607D01*
X178383292Y-118872000D01*
X179833000Y-118872000D01*
X179901121Y-118892002D01*
X179947614Y-118945658D01*
X179959000Y-118998000D01*
X179959000Y-121794000D01*
X179938998Y-121862121D01*
X179885342Y-121908614D01*
X179833000Y-121920000D01*
X178388225Y-121920000D01*
X178374694Y-121923973D01*
X178373257Y-121933966D01*
X178403565Y-122068446D01*
X178406645Y-122078275D01*
X178486770Y-122275603D01*
X178491413Y-122284794D01*
X178602694Y-122466388D01*
X178608777Y-122474699D01*
X178748213Y-122635667D01*
X178755580Y-122642883D01*
X178919434Y-122778916D01*
X178927881Y-122784831D01*
X178996969Y-122825203D01*
X179045693Y-122876842D01*
X179058764Y-122946625D01*
X179032033Y-123012396D01*
X178991584Y-123045752D01*
X178978607Y-123052507D01*
X178974474Y-123055610D01*
X178974471Y-123055612D01*
X178839841Y-123156695D01*
X178799965Y-123186635D01*
X178770190Y-123217793D01*
X178653025Y-123340399D01*
X178645629Y-123348138D01*
X178642715Y-123352410D01*
X178642714Y-123352411D01*
X178579982Y-123444373D01*
X178519743Y-123532680D01*
X178489082Y-123598734D01*
X178431954Y-123721807D01*
X178425688Y-123735305D01*
X178365989Y-123950570D01*
X178342251Y-124172695D01*
X178342548Y-124177848D01*
X178342548Y-124177851D01*
X178350124Y-124309242D01*
X178355110Y-124395715D01*
X178356247Y-124400761D01*
X178356248Y-124400767D01*
X178375601Y-124486638D01*
X178404222Y-124613639D01*
X178488266Y-124820616D01*
X178604987Y-125011088D01*
X178751250Y-125179938D01*
X178923126Y-125322632D01*
X179116000Y-125435338D01*
X179324692Y-125515030D01*
X179329760Y-125516061D01*
X179329763Y-125516062D01*
X179437017Y-125537883D01*
X179543597Y-125559567D01*
X179548772Y-125559757D01*
X179548774Y-125559757D01*
X179761673Y-125567564D01*
X179761677Y-125567564D01*
X179766837Y-125567753D01*
X179771957Y-125567097D01*
X179771959Y-125567097D01*
X179983288Y-125540025D01*
X179983289Y-125540025D01*
X179988416Y-125539368D01*
X179993366Y-125537883D01*
X180197429Y-125476661D01*
X180197434Y-125476659D01*
X180202384Y-125475174D01*
X180402994Y-125376896D01*
X180584860Y-125247173D01*
X180743096Y-125089489D01*
X180748843Y-125081492D01*
X180870435Y-124912277D01*
X180873453Y-124908077D01*
X180876152Y-124902617D01*
X180970136Y-124712453D01*
X180970137Y-124712451D01*
X180972430Y-124707811D01*
X181037370Y-124494069D01*
X181066529Y-124272590D01*
X181067468Y-124234171D01*
X181068074Y-124209365D01*
X181068074Y-124209361D01*
X181068156Y-124206000D01*
X181049852Y-123983361D01*
X180995431Y-123766702D01*
X180906354Y-123561840D01*
X180785014Y-123374277D01*
X180782382Y-123371384D01*
X180756800Y-123305545D01*
X180770947Y-123235972D01*
X180793250Y-123205754D01*
X181272547Y-122726457D01*
X181280837Y-122718913D01*
X181287318Y-122714800D01*
X181333959Y-122665132D01*
X181336713Y-122662291D01*
X181356434Y-122642570D01*
X181358912Y-122639375D01*
X181366618Y-122630353D01*
X181391458Y-122603901D01*
X181396886Y-122598121D01*
X181406646Y-122580368D01*
X181417499Y-122563845D01*
X181425053Y-122554106D01*
X181429913Y-122547841D01*
X181447476Y-122507257D01*
X181452683Y-122496627D01*
X181473995Y-122457860D01*
X181475966Y-122450183D01*
X181475968Y-122450178D01*
X181479032Y-122438242D01*
X181485438Y-122419530D01*
X181490333Y-122408219D01*
X181493481Y-122400945D01*
X181494721Y-122393117D01*
X181494723Y-122393110D01*
X181500399Y-122357276D01*
X181502805Y-122345656D01*
X181511828Y-122310511D01*
X181511828Y-122310510D01*
X181513800Y-122302830D01*
X181513800Y-122282576D01*
X181515351Y-122262865D01*
X181517280Y-122250686D01*
X181518520Y-122242857D01*
X181514359Y-122198838D01*
X181513800Y-122186981D01*
X181513800Y-81946367D01*
X181514327Y-81935184D01*
X181516002Y-81927691D01*
X181515022Y-81896492D01*
X181513862Y-81859601D01*
X181513800Y-81855643D01*
X181513800Y-81827744D01*
X181513296Y-81823753D01*
X181512363Y-81811911D01*
X181511223Y-81775636D01*
X181510974Y-81767711D01*
X181508762Y-81760097D01*
X181508761Y-81760092D01*
X181505323Y-81748259D01*
X181501312Y-81728895D01*
X181499767Y-81716664D01*
X181498774Y-81708803D01*
X181495857Y-81701436D01*
X181495856Y-81701431D01*
X181482498Y-81667692D01*
X181478654Y-81656465D01*
X181468530Y-81621622D01*
X181466318Y-81614007D01*
X181456007Y-81596572D01*
X181447312Y-81578824D01*
X181439852Y-81559983D01*
X181413864Y-81524213D01*
X181407348Y-81514293D01*
X181388880Y-81483065D01*
X181388878Y-81483062D01*
X181384842Y-81476238D01*
X181370521Y-81461917D01*
X181357680Y-81446883D01*
X181350431Y-81436906D01*
X181345772Y-81430493D01*
X181311695Y-81402302D01*
X181302916Y-81394312D01*
X178345952Y-78437347D01*
X178338412Y-78429061D01*
X178334300Y-78422582D01*
X178284648Y-78375956D01*
X178281807Y-78373202D01*
X178262070Y-78353465D01*
X178258873Y-78350985D01*
X178249851Y-78343280D01*
X178230720Y-78325315D01*
X178217621Y-78313014D01*
X178210675Y-78309195D01*
X178210672Y-78309193D01*
X178199866Y-78303252D01*
X178183347Y-78292401D01*
X178182883Y-78292041D01*
X178167341Y-78279986D01*
X178160072Y-78276841D01*
X178160068Y-78276838D01*
X178126763Y-78262426D01*
X178116113Y-78257209D01*
X178077360Y-78235905D01*
X178057737Y-78230867D01*
X178039034Y-78224463D01*
X178027720Y-78219567D01*
X178027719Y-78219567D01*
X178020445Y-78216419D01*
X178012622Y-78215180D01*
X178012612Y-78215177D01*
X177976776Y-78209501D01*
X177965156Y-78207095D01*
X177930011Y-78198072D01*
X177930010Y-78198072D01*
X177922330Y-78196100D01*
X177902076Y-78196100D01*
X177882365Y-78194549D01*
X177870186Y-78192620D01*
X177862357Y-78191380D01*
X177833086Y-78194147D01*
X177818339Y-78195541D01*
X177806481Y-78196100D01*
X175154467Y-78196100D01*
X175143284Y-78195573D01*
X175135791Y-78193898D01*
X175127865Y-78194147D01*
X175127864Y-78194147D01*
X175067714Y-78196038D01*
X175063755Y-78196100D01*
X175035844Y-78196100D01*
X175031910Y-78196597D01*
X175031909Y-78196597D01*
X175031844Y-78196605D01*
X175020007Y-78197538D01*
X174988190Y-78198538D01*
X174983729Y-78198678D01*
X174975810Y-78198927D01*
X174958154Y-78204056D01*
X174956358Y-78204578D01*
X174937006Y-78208586D01*
X174929935Y-78209480D01*
X174916903Y-78211126D01*
X174909534Y-78214043D01*
X174909532Y-78214044D01*
X174875797Y-78227400D01*
X174864569Y-78231245D01*
X174822107Y-78243582D01*
X174815284Y-78247617D01*
X174815282Y-78247618D01*
X174804672Y-78253893D01*
X174786924Y-78262588D01*
X174768083Y-78270048D01*
X174761667Y-78274710D01*
X174761666Y-78274710D01*
X174732313Y-78296036D01*
X174722393Y-78302552D01*
X174691165Y-78321020D01*
X174691162Y-78321022D01*
X174684338Y-78325058D01*
X174670017Y-78339379D01*
X174654984Y-78352219D01*
X174638593Y-78364128D01*
X174629917Y-78374616D01*
X174610402Y-78398205D01*
X174602412Y-78406984D01*
X171368229Y-81641166D01*
X171305917Y-81675192D01*
X171235101Y-81670127D01*
X171185941Y-81636871D01*
X171112798Y-81556488D01*
X171081746Y-81492642D01*
X171090141Y-81422143D01*
X171135317Y-81367375D01*
X171161761Y-81353706D01*
X171268297Y-81313767D01*
X171276705Y-81310615D01*
X171393261Y-81223261D01*
X171480615Y-81106705D01*
X171531745Y-80970316D01*
X171538500Y-80908134D01*
X171538500Y-79111866D01*
X171531745Y-79049684D01*
X171480615Y-78913295D01*
X171393261Y-78796739D01*
X171276705Y-78709385D01*
X171140316Y-78658255D01*
X171078134Y-78651500D01*
X169281866Y-78651500D01*
X169219684Y-78658255D01*
X169083295Y-78709385D01*
X168966739Y-78796739D01*
X168879385Y-78913295D01*
X168828255Y-79049684D01*
X168821500Y-79111866D01*
X168821500Y-79311836D01*
X168801498Y-79379957D01*
X168750622Y-79423160D01*
X168751108Y-79423981D01*
X168746324Y-79426810D01*
X168746321Y-79426812D01*
X168744284Y-79428017D01*
X168744282Y-79428018D01*
X168733672Y-79434293D01*
X168715924Y-79442988D01*
X168697083Y-79450448D01*
X168690667Y-79455110D01*
X168690666Y-79455110D01*
X168661313Y-79476436D01*
X168651393Y-79482952D01*
X168620165Y-79501420D01*
X168620162Y-79501422D01*
X168613338Y-79505458D01*
X168599017Y-79519779D01*
X168583984Y-79532619D01*
X168567593Y-79544528D01*
X168562542Y-79550634D01*
X168539402Y-79578605D01*
X168531412Y-79587384D01*
X166874200Y-81244595D01*
X166811888Y-81278621D01*
X166785105Y-81281500D01*
X165082500Y-81281500D01*
X165014379Y-81261498D01*
X164967886Y-81207842D01*
X164956500Y-81155500D01*
X164956500Y-81016866D01*
X164949745Y-80954684D01*
X164898615Y-80818295D01*
X164825370Y-80720564D01*
X164800522Y-80654059D01*
X164815575Y-80584676D01*
X164825370Y-80569435D01*
X164874036Y-80504500D01*
X164898615Y-80471705D01*
X164949745Y-80335316D01*
X164956500Y-80273134D01*
X164956500Y-78476866D01*
X164949745Y-78414684D01*
X164898615Y-78278295D01*
X164811261Y-78161739D01*
X164694705Y-78074385D01*
X164558316Y-78023255D01*
X164496134Y-78016500D01*
X161812985Y-78016500D01*
X161811446Y-78016491D01*
X161708081Y-78015228D01*
X161708079Y-78015228D01*
X161702911Y-78015165D01*
X161697797Y-78015948D01*
X161694289Y-78016193D01*
X161685496Y-78016500D01*
X160899866Y-78016500D01*
X160837684Y-78023255D01*
X160701295Y-78074385D01*
X160584739Y-78161739D01*
X160497385Y-78278295D01*
X160446255Y-78414684D01*
X160439500Y-78476866D01*
X160439500Y-79295219D01*
X160438787Y-79308607D01*
X160435251Y-79341695D01*
X160435548Y-79346848D01*
X160435548Y-79346851D01*
X160439291Y-79411763D01*
X160439500Y-79419016D01*
X160439500Y-80152706D01*
X160419498Y-80220827D01*
X160402595Y-80241801D01*
X157474927Y-83169468D01*
X154547747Y-86096648D01*
X154539461Y-86104188D01*
X154532982Y-86108300D01*
X154527557Y-86114077D01*
X154486357Y-86157951D01*
X154483602Y-86160793D01*
X154463865Y-86180530D01*
X154461385Y-86183727D01*
X154453682Y-86192747D01*
X154423414Y-86224979D01*
X154419595Y-86231925D01*
X154419593Y-86231928D01*
X154413652Y-86242734D01*
X154402801Y-86259253D01*
X154390386Y-86275259D01*
X154387241Y-86282528D01*
X154387238Y-86282532D01*
X154372826Y-86315837D01*
X154367609Y-86326487D01*
X154346305Y-86365240D01*
X154344334Y-86372915D01*
X154344334Y-86372916D01*
X154341267Y-86384862D01*
X154334863Y-86403566D01*
X154326819Y-86422155D01*
X154325580Y-86429978D01*
X154325577Y-86429988D01*
X154319901Y-86465824D01*
X154317495Y-86477444D01*
X154308472Y-86512589D01*
X154306500Y-86520270D01*
X154306500Y-86540524D01*
X154304949Y-86560234D01*
X154301780Y-86580243D01*
X154302526Y-86588135D01*
X154305941Y-86624261D01*
X154306500Y-86636119D01*
X154306500Y-89955500D01*
X154286498Y-90023621D01*
X154232842Y-90070114D01*
X154180500Y-90081500D01*
X154041866Y-90081500D01*
X153979684Y-90088255D01*
X153843295Y-90139385D01*
X153726739Y-90226739D01*
X153639385Y-90343295D01*
X153588255Y-90479684D01*
X153581500Y-90541866D01*
X153581500Y-92338134D01*
X153588255Y-92400316D01*
X153639385Y-92536705D01*
X153726739Y-92653261D01*
X153843295Y-92740615D01*
X153851704Y-92743767D01*
X153851705Y-92743768D01*
X153960451Y-92784535D01*
X154017216Y-92827176D01*
X154041916Y-92893738D01*
X154026709Y-92963087D01*
X154007316Y-92989568D01*
X153889748Y-93112596D01*
X153880629Y-93122138D01*
X153877715Y-93126410D01*
X153877714Y-93126411D01*
X153874812Y-93130665D01*
X153754743Y-93306680D01*
X153731914Y-93355861D01*
X153688764Y-93448821D01*
X153660688Y-93509305D01*
X153600989Y-93724570D01*
X153577251Y-93946695D01*
X153577548Y-93951848D01*
X153577548Y-93951851D01*
X153585124Y-94083242D01*
X153590110Y-94169715D01*
X153591247Y-94174761D01*
X153591248Y-94174767D01*
X153610601Y-94260638D01*
X153639222Y-94387639D01*
X153723266Y-94594616D01*
X153743200Y-94627145D01*
X153815231Y-94744689D01*
X153839987Y-94785088D01*
X153986250Y-94953938D01*
X154158126Y-95096632D01*
X154228595Y-95137811D01*
X154231445Y-95139476D01*
X154280169Y-95191114D01*
X154293240Y-95260897D01*
X154266509Y-95326669D01*
X154226055Y-95360027D01*
X154213607Y-95366507D01*
X154209474Y-95369610D01*
X154209471Y-95369612D01*
X154077513Y-95468689D01*
X154034965Y-95500635D01*
X153880629Y-95662138D01*
X153754743Y-95846680D01*
X153729010Y-95902117D01*
X153697532Y-95969932D01*
X153660688Y-96049305D01*
X153600989Y-96264570D01*
X153577251Y-96486695D01*
X153577548Y-96491848D01*
X153577548Y-96491851D01*
X153585636Y-96632120D01*
X153590110Y-96709715D01*
X153591247Y-96714761D01*
X153591248Y-96714767D01*
X153603224Y-96767905D01*
X153639222Y-96927639D01*
X153723266Y-97134616D01*
X153774019Y-97217438D01*
X153837291Y-97320688D01*
X153839987Y-97325088D01*
X153986250Y-97493938D01*
X154158126Y-97636632D01*
X154197878Y-97659861D01*
X154231955Y-97679774D01*
X154280679Y-97731412D01*
X154293750Y-97801195D01*
X154267019Y-97866967D01*
X154226562Y-97900327D01*
X154218457Y-97904546D01*
X154209738Y-97910036D01*
X154039433Y-98037905D01*
X154031726Y-98044748D01*
X153884590Y-98198717D01*
X153878104Y-98206727D01*
X153758098Y-98382649D01*
X153753000Y-98391623D01*
X153663338Y-98584783D01*
X153659775Y-98594470D01*
X153604389Y-98794183D01*
X153605912Y-98802607D01*
X153618292Y-98806000D01*
X156258344Y-98806000D01*
X156271875Y-98802027D01*
X156273180Y-98792947D01*
X156231214Y-98625875D01*
X156227894Y-98616124D01*
X156142972Y-98420814D01*
X156138105Y-98411739D01*
X156022426Y-98232926D01*
X156016136Y-98224757D01*
X155872806Y-98067240D01*
X155865273Y-98060215D01*
X155698139Y-97928222D01*
X155689556Y-97922520D01*
X155652602Y-97902120D01*
X155602631Y-97851687D01*
X155587859Y-97782245D01*
X155612975Y-97715839D01*
X155640327Y-97689232D01*
X155681504Y-97659861D01*
X155819860Y-97561173D01*
X155830276Y-97550794D01*
X155968075Y-97413475D01*
X155978096Y-97403489D01*
X156037594Y-97320689D01*
X156105435Y-97226277D01*
X156108453Y-97222077D01*
X156129320Y-97179857D01*
X156205136Y-97026453D01*
X156205137Y-97026451D01*
X156207430Y-97021811D01*
X156272370Y-96808069D01*
X156301529Y-96586590D01*
X156301649Y-96581687D01*
X156303074Y-96523365D01*
X156303074Y-96523361D01*
X156303156Y-96520000D01*
X156284852Y-96297361D01*
X156230431Y-96080702D01*
X156141354Y-95875840D01*
X156039819Y-95718891D01*
X156022822Y-95692617D01*
X156022820Y-95692614D01*
X156020014Y-95688277D01*
X155869670Y-95523051D01*
X155865619Y-95519852D01*
X155865615Y-95519848D01*
X155698414Y-95387800D01*
X155698410Y-95387798D01*
X155694359Y-95384598D01*
X155653053Y-95361796D01*
X155603084Y-95311364D01*
X155588312Y-95241921D01*
X155613428Y-95175516D01*
X155640780Y-95148909D01*
X155684603Y-95117650D01*
X155819860Y-95021173D01*
X155839175Y-95001926D01*
X155974435Y-94867137D01*
X155978096Y-94863489D01*
X156037594Y-94780689D01*
X156105435Y-94686277D01*
X156108453Y-94682077D01*
X156113297Y-94672277D01*
X156158065Y-94581695D01*
X160435251Y-94581695D01*
X160435548Y-94586848D01*
X160435548Y-94586851D01*
X160439291Y-94651763D01*
X160439500Y-94659016D01*
X160439500Y-95513134D01*
X160446255Y-95575316D01*
X160497385Y-95711705D01*
X160502771Y-95718891D01*
X160570942Y-95809852D01*
X160595790Y-95876358D01*
X160580737Y-95945741D01*
X160570942Y-95960982D01*
X160503214Y-96051351D01*
X160494676Y-96066946D01*
X160449522Y-96187394D01*
X160445895Y-96202649D01*
X160440369Y-96253514D01*
X160440000Y-96260328D01*
X160440000Y-96882885D01*
X160444475Y-96898124D01*
X160445865Y-96899329D01*
X160453548Y-96901000D01*
X164937884Y-96901000D01*
X164953123Y-96896525D01*
X164954328Y-96895135D01*
X164955999Y-96887452D01*
X164955999Y-96260331D01*
X164955629Y-96253510D01*
X164950105Y-96202648D01*
X164946479Y-96187396D01*
X164901324Y-96066946D01*
X164892786Y-96051351D01*
X164825058Y-95960982D01*
X164800210Y-95894475D01*
X164815263Y-95825093D01*
X164825058Y-95809852D01*
X164893229Y-95718891D01*
X164898615Y-95711705D01*
X164949745Y-95575316D01*
X164956500Y-95513134D01*
X164956500Y-93716866D01*
X164949745Y-93654684D01*
X164898615Y-93518295D01*
X164825370Y-93420564D01*
X164800522Y-93354059D01*
X164815575Y-93284676D01*
X164825370Y-93269435D01*
X164898615Y-93171705D01*
X164949745Y-93035316D01*
X164956500Y-92973134D01*
X164956500Y-91176866D01*
X164949745Y-91114684D01*
X164898615Y-90978295D01*
X164825370Y-90880564D01*
X164800522Y-90814059D01*
X164815575Y-90744676D01*
X164825370Y-90729435D01*
X164829288Y-90724207D01*
X164898615Y-90631705D01*
X164949745Y-90495316D01*
X164956500Y-90433134D01*
X164956500Y-88636866D01*
X164949745Y-88574684D01*
X164898615Y-88438295D01*
X164825370Y-88340564D01*
X164800522Y-88274059D01*
X164815575Y-88204676D01*
X164825370Y-88189435D01*
X164893229Y-88098891D01*
X164898615Y-88091705D01*
X164949745Y-87955316D01*
X164956500Y-87893134D01*
X164956500Y-86096866D01*
X164949745Y-86034684D01*
X164898615Y-85898295D01*
X164825058Y-85800148D01*
X164800210Y-85733642D01*
X164815263Y-85664259D01*
X164825058Y-85649018D01*
X164892786Y-85558649D01*
X164901324Y-85543054D01*
X164946478Y-85422606D01*
X164950105Y-85407351D01*
X164955631Y-85356486D01*
X164956000Y-85349672D01*
X164956000Y-84727115D01*
X164951525Y-84711876D01*
X164950135Y-84710671D01*
X164942452Y-84709000D01*
X160458116Y-84709000D01*
X160442877Y-84713475D01*
X160441672Y-84714865D01*
X160440001Y-84722548D01*
X160440001Y-85349669D01*
X160440371Y-85356490D01*
X160445895Y-85407352D01*
X160449521Y-85422604D01*
X160494676Y-85543054D01*
X160503214Y-85558649D01*
X160570942Y-85649018D01*
X160595790Y-85715525D01*
X160580737Y-85784907D01*
X160570942Y-85800148D01*
X160497385Y-85898295D01*
X160446255Y-86034684D01*
X160439500Y-86096866D01*
X160439500Y-86915219D01*
X160438787Y-86928607D01*
X160435251Y-86961695D01*
X160435548Y-86966848D01*
X160435548Y-86966851D01*
X160439291Y-87031763D01*
X160439500Y-87039016D01*
X160439500Y-87893134D01*
X160446255Y-87955316D01*
X160497385Y-88091705D01*
X160502771Y-88098891D01*
X160570630Y-88189435D01*
X160595478Y-88255941D01*
X160580425Y-88325324D01*
X160570632Y-88340562D01*
X160497385Y-88438295D01*
X160446255Y-88574684D01*
X160439500Y-88636866D01*
X160439500Y-89455219D01*
X160438787Y-89468607D01*
X160435251Y-89501695D01*
X160435548Y-89506848D01*
X160435548Y-89506851D01*
X160439291Y-89571763D01*
X160439500Y-89579016D01*
X160439500Y-90433134D01*
X160446255Y-90495316D01*
X160497385Y-90631705D01*
X160566712Y-90724207D01*
X160570630Y-90729435D01*
X160595478Y-90795941D01*
X160580425Y-90865324D01*
X160570632Y-90880562D01*
X160497385Y-90978295D01*
X160446255Y-91114684D01*
X160439500Y-91176866D01*
X160439500Y-91995219D01*
X160438787Y-92008607D01*
X160435251Y-92041695D01*
X160435548Y-92046848D01*
X160435548Y-92046851D01*
X160439291Y-92111763D01*
X160439500Y-92119016D01*
X160439500Y-92973134D01*
X160446255Y-93035316D01*
X160497385Y-93171705D01*
X160570630Y-93269435D01*
X160595478Y-93335941D01*
X160580425Y-93405324D01*
X160570632Y-93420562D01*
X160497385Y-93518295D01*
X160446255Y-93654684D01*
X160439500Y-93716866D01*
X160439500Y-94535219D01*
X160438787Y-94548607D01*
X160435251Y-94581695D01*
X156158065Y-94581695D01*
X156205136Y-94486453D01*
X156205137Y-94486451D01*
X156207430Y-94481811D01*
X156272370Y-94268069D01*
X156301529Y-94046590D01*
X156302468Y-94008171D01*
X156303074Y-93983365D01*
X156303074Y-93983361D01*
X156303156Y-93980000D01*
X156284852Y-93757361D01*
X156230431Y-93540702D01*
X156141354Y-93335840D01*
X156039421Y-93178276D01*
X156022822Y-93152617D01*
X156022820Y-93152614D01*
X156020014Y-93148277D01*
X156016532Y-93144450D01*
X155872798Y-92986488D01*
X155841746Y-92922642D01*
X155850141Y-92852143D01*
X155895317Y-92797375D01*
X155921761Y-92783706D01*
X156028297Y-92743767D01*
X156036705Y-92740615D01*
X156153261Y-92653261D01*
X156240615Y-92536705D01*
X156291745Y-92400316D01*
X156298500Y-92338134D01*
X156298500Y-90541866D01*
X156291745Y-90479684D01*
X156240615Y-90343295D01*
X156153261Y-90226739D01*
X156036705Y-90139385D01*
X155900316Y-90088255D01*
X155838134Y-90081500D01*
X155699500Y-90081500D01*
X155631379Y-90061498D01*
X155584886Y-90007842D01*
X155573500Y-89955500D01*
X155573500Y-86914894D01*
X155593502Y-86846773D01*
X155610405Y-86825799D01*
X160224405Y-82211799D01*
X160286717Y-82177773D01*
X160357532Y-82182838D01*
X160414368Y-82225385D01*
X160439179Y-82291905D01*
X160439500Y-82300894D01*
X160439500Y-82813134D01*
X160446255Y-82875316D01*
X160497385Y-83011705D01*
X160527175Y-83051453D01*
X160570942Y-83109852D01*
X160595790Y-83176358D01*
X160580737Y-83245741D01*
X160570942Y-83260982D01*
X160503214Y-83351351D01*
X160494676Y-83366946D01*
X160449522Y-83487394D01*
X160445895Y-83502649D01*
X160440369Y-83553514D01*
X160440000Y-83560328D01*
X160440000Y-84182885D01*
X160444475Y-84198124D01*
X160445865Y-84199329D01*
X160453548Y-84201000D01*
X164937884Y-84201000D01*
X164953123Y-84196525D01*
X164954328Y-84195135D01*
X164955999Y-84187452D01*
X164955999Y-83560331D01*
X164955629Y-83553510D01*
X164950105Y-83502648D01*
X164946479Y-83487396D01*
X164901324Y-83366946D01*
X164892786Y-83351351D01*
X164825058Y-83260982D01*
X164800210Y-83194475D01*
X164815263Y-83125093D01*
X164825058Y-83109852D01*
X164868825Y-83051453D01*
X164898615Y-83011705D01*
X164949745Y-82875316D01*
X164956500Y-82813134D01*
X164956500Y-82674500D01*
X164976502Y-82606379D01*
X165030158Y-82559886D01*
X165082500Y-82548500D01*
X167020933Y-82548500D01*
X167032116Y-82549027D01*
X167039609Y-82550702D01*
X167047535Y-82550453D01*
X167047536Y-82550453D01*
X167107686Y-82548562D01*
X167111645Y-82548500D01*
X167139556Y-82548500D01*
X167143491Y-82548003D01*
X167143556Y-82547995D01*
X167155393Y-82547062D01*
X167187651Y-82546048D01*
X167191670Y-82545922D01*
X167199589Y-82545673D01*
X167219043Y-82540021D01*
X167238400Y-82536013D01*
X167250630Y-82534468D01*
X167250631Y-82534468D01*
X167258497Y-82533474D01*
X167265868Y-82530555D01*
X167265870Y-82530555D01*
X167299612Y-82517196D01*
X167310842Y-82513351D01*
X167345683Y-82503229D01*
X167345684Y-82503229D01*
X167353293Y-82501018D01*
X167360112Y-82496985D01*
X167360117Y-82496983D01*
X167370728Y-82490707D01*
X167388476Y-82482012D01*
X167407317Y-82474552D01*
X167443087Y-82448564D01*
X167453007Y-82442048D01*
X167484235Y-82423580D01*
X167484238Y-82423578D01*
X167491062Y-82419542D01*
X167505383Y-82405221D01*
X167520417Y-82392380D01*
X167530394Y-82385131D01*
X167536807Y-82380472D01*
X167564998Y-82346395D01*
X167572988Y-82337616D01*
X168744284Y-81166321D01*
X168806596Y-81132295D01*
X168877412Y-81137360D01*
X168934205Y-81179851D01*
X168966739Y-81223261D01*
X169083295Y-81310615D01*
X169091704Y-81313767D01*
X169091705Y-81313768D01*
X169200451Y-81354535D01*
X169257216Y-81397176D01*
X169281916Y-81463738D01*
X169266709Y-81533087D01*
X169247316Y-81559568D01*
X169120629Y-81692138D01*
X169117715Y-81696410D01*
X169117714Y-81696411D01*
X169038925Y-81811911D01*
X168994743Y-81876680D01*
X168900688Y-82079305D01*
X168840989Y-82294570D01*
X168817251Y-82516695D01*
X168817548Y-82521848D01*
X168817548Y-82521851D01*
X168822914Y-82614908D01*
X168830110Y-82739715D01*
X168831247Y-82744761D01*
X168831248Y-82744767D01*
X168852265Y-82838023D01*
X168879222Y-82957639D01*
X168930626Y-83084232D01*
X168956662Y-83148351D01*
X168963266Y-83164616D01*
X168974838Y-83183500D01*
X169072290Y-83342527D01*
X169079987Y-83355088D01*
X169226250Y-83523938D01*
X169398126Y-83666632D01*
X169591000Y-83779338D01*
X169799692Y-83859030D01*
X169804760Y-83860061D01*
X169804763Y-83860062D01*
X169912017Y-83881883D01*
X170018597Y-83903567D01*
X170023772Y-83903757D01*
X170023774Y-83903757D01*
X170236673Y-83911564D01*
X170236677Y-83911564D01*
X170241837Y-83911753D01*
X170246957Y-83911097D01*
X170246959Y-83911097D01*
X170458288Y-83884025D01*
X170458289Y-83884025D01*
X170463416Y-83883368D01*
X170468366Y-83881883D01*
X170672429Y-83820661D01*
X170672434Y-83820659D01*
X170677384Y-83819174D01*
X170877994Y-83720896D01*
X171059860Y-83591173D01*
X171218096Y-83433489D01*
X171277594Y-83350689D01*
X171345435Y-83256277D01*
X171348453Y-83252077D01*
X171350746Y-83247438D01*
X171353405Y-83243012D01*
X171355108Y-83244035D01*
X171397420Y-83198097D01*
X171442584Y-83181663D01*
X171447262Y-83180922D01*
X171455189Y-83180673D01*
X171474643Y-83175021D01*
X171494000Y-83171013D01*
X171506230Y-83169468D01*
X171506231Y-83169468D01*
X171514097Y-83168474D01*
X171521468Y-83165555D01*
X171521470Y-83165555D01*
X171555212Y-83152196D01*
X171566442Y-83148351D01*
X171601283Y-83138229D01*
X171601284Y-83138229D01*
X171608893Y-83136018D01*
X171615712Y-83131985D01*
X171615717Y-83131983D01*
X171626328Y-83125707D01*
X171644076Y-83117012D01*
X171662917Y-83109552D01*
X171698687Y-83083564D01*
X171708607Y-83077048D01*
X171739835Y-83058580D01*
X171739838Y-83058578D01*
X171746662Y-83054542D01*
X171760983Y-83040221D01*
X171776017Y-83027380D01*
X171785994Y-83020131D01*
X171792407Y-83015472D01*
X171820598Y-82981395D01*
X171828588Y-82972616D01*
X175210405Y-79590799D01*
X175272717Y-79556773D01*
X175343532Y-79561838D01*
X175400368Y-79604385D01*
X175425179Y-79670905D01*
X175425500Y-79679894D01*
X175425500Y-80415405D01*
X175405498Y-80483526D01*
X175388595Y-80504500D01*
X175216447Y-80676648D01*
X175208161Y-80684188D01*
X175201682Y-80688300D01*
X175196257Y-80694077D01*
X175155057Y-80737951D01*
X175152302Y-80740793D01*
X175132565Y-80760530D01*
X175130085Y-80763727D01*
X175122382Y-80772747D01*
X175092114Y-80804979D01*
X175088295Y-80811925D01*
X175088293Y-80811928D01*
X175082352Y-80822734D01*
X175071501Y-80839253D01*
X175059086Y-80855259D01*
X175055941Y-80862528D01*
X175055938Y-80862532D01*
X175041526Y-80895837D01*
X175036309Y-80906487D01*
X175015005Y-80945240D01*
X175013034Y-80952915D01*
X175013034Y-80952916D01*
X175009967Y-80964862D01*
X175003563Y-80983566D01*
X174995519Y-81002155D01*
X174994280Y-81009978D01*
X174994277Y-81009988D01*
X174988601Y-81045824D01*
X174986195Y-81057444D01*
X174977172Y-81092589D01*
X174975200Y-81100270D01*
X174975200Y-81120524D01*
X174973649Y-81140234D01*
X174970480Y-81160243D01*
X174971226Y-81168135D01*
X174974641Y-81204261D01*
X174975200Y-81216119D01*
X174975200Y-97257106D01*
X174955198Y-97325227D01*
X174938295Y-97346201D01*
X171751480Y-100533015D01*
X171689168Y-100567041D01*
X171618352Y-100561976D01*
X171561517Y-100519429D01*
X171536706Y-100452909D01*
X171537463Y-100427473D01*
X171541092Y-100399908D01*
X171541529Y-100396590D01*
X171542530Y-100355625D01*
X171543074Y-100333365D01*
X171543074Y-100333361D01*
X171543156Y-100330000D01*
X171524852Y-100107361D01*
X171470431Y-99890702D01*
X171381354Y-99685840D01*
X171300934Y-99561530D01*
X171262822Y-99502617D01*
X171262820Y-99502614D01*
X171260014Y-99498277D01*
X171109670Y-99333051D01*
X171105619Y-99329852D01*
X171105615Y-99329848D01*
X170938414Y-99197800D01*
X170938410Y-99197798D01*
X170934359Y-99194598D01*
X170892569Y-99171529D01*
X170842598Y-99121097D01*
X170827826Y-99051654D01*
X170852942Y-98985248D01*
X170880294Y-98958641D01*
X171055328Y-98833792D01*
X171063200Y-98827139D01*
X171214052Y-98676812D01*
X171220730Y-98668965D01*
X171345003Y-98496020D01*
X171350313Y-98487183D01*
X171444670Y-98296267D01*
X171448469Y-98286672D01*
X171510377Y-98082910D01*
X171512555Y-98072837D01*
X171513986Y-98061962D01*
X171511775Y-98047778D01*
X171498617Y-98044000D01*
X168863225Y-98044000D01*
X168849694Y-98047973D01*
X168848257Y-98057966D01*
X168878565Y-98192446D01*
X168881645Y-98202275D01*
X168961770Y-98399603D01*
X168966413Y-98408794D01*
X169077694Y-98590388D01*
X169083777Y-98598699D01*
X169223213Y-98759667D01*
X169230580Y-98766883D01*
X169394434Y-98902916D01*
X169402881Y-98908831D01*
X169471969Y-98949203D01*
X169520693Y-99000842D01*
X169533764Y-99070625D01*
X169507033Y-99136396D01*
X169466584Y-99169752D01*
X169453607Y-99176507D01*
X169449474Y-99179610D01*
X169449471Y-99179612D01*
X169349374Y-99254767D01*
X169274965Y-99310635D01*
X169244192Y-99342837D01*
X169129748Y-99462596D01*
X169120629Y-99472138D01*
X169117715Y-99476410D01*
X169117714Y-99476411D01*
X169062964Y-99556672D01*
X168994743Y-99656680D01*
X168900688Y-99859305D01*
X168840989Y-100074570D01*
X168817251Y-100296695D01*
X168817548Y-100301848D01*
X168817548Y-100301851D01*
X168825889Y-100446507D01*
X168830110Y-100519715D01*
X168831247Y-100524761D01*
X168831248Y-100524767D01*
X168849923Y-100607630D01*
X168879222Y-100737639D01*
X168922965Y-100845365D01*
X168959424Y-100935153D01*
X168963266Y-100944616D01*
X168998126Y-101001502D01*
X169063084Y-101107504D01*
X169079987Y-101135088D01*
X169226250Y-101303938D01*
X169398126Y-101446632D01*
X169591000Y-101559338D01*
X169799692Y-101639030D01*
X169804760Y-101640061D01*
X169804763Y-101640062D01*
X169912379Y-101661957D01*
X170018597Y-101683567D01*
X170023772Y-101683757D01*
X170023774Y-101683757D01*
X170236673Y-101691564D01*
X170236677Y-101691564D01*
X170241837Y-101691753D01*
X170246956Y-101691097D01*
X170246961Y-101691097D01*
X170278226Y-101687092D01*
X170348336Y-101698277D01*
X170401270Y-101745591D01*
X170420220Y-101814012D01*
X170399171Y-101881816D01*
X170383330Y-101901166D01*
X168212975Y-104071520D01*
X166072195Y-106212300D01*
X166009883Y-106246326D01*
X165939067Y-106241261D01*
X165882232Y-106198714D01*
X165857421Y-106132194D01*
X165857100Y-106123205D01*
X165857100Y-98788894D01*
X165877102Y-98720773D01*
X165894005Y-98699799D01*
X168761943Y-95831862D01*
X168824255Y-95797836D01*
X168895071Y-95802901D01*
X168951906Y-95845448D01*
X168962266Y-95862152D01*
X168963266Y-95864616D01*
X169079987Y-96055088D01*
X169226250Y-96223938D01*
X169398126Y-96366632D01*
X169433819Y-96387489D01*
X169471955Y-96409774D01*
X169520679Y-96461412D01*
X169533750Y-96531195D01*
X169507019Y-96596967D01*
X169466562Y-96630327D01*
X169458457Y-96634546D01*
X169449738Y-96640036D01*
X169279433Y-96767905D01*
X169271726Y-96774748D01*
X169124590Y-96928717D01*
X169118104Y-96936727D01*
X168998098Y-97112649D01*
X168993000Y-97121623D01*
X168903338Y-97314783D01*
X168899775Y-97324470D01*
X168844389Y-97524183D01*
X168845912Y-97532607D01*
X168858292Y-97536000D01*
X171498344Y-97536000D01*
X171511875Y-97532027D01*
X171513180Y-97522947D01*
X171471214Y-97355875D01*
X171467894Y-97346124D01*
X171382972Y-97150814D01*
X171378105Y-97141739D01*
X171262426Y-96962926D01*
X171256136Y-96954757D01*
X171112806Y-96797240D01*
X171105273Y-96790215D01*
X170938139Y-96658222D01*
X170929556Y-96652520D01*
X170892602Y-96632120D01*
X170842631Y-96581687D01*
X170827859Y-96512245D01*
X170852975Y-96445839D01*
X170880327Y-96419232D01*
X170924829Y-96387489D01*
X171059860Y-96291173D01*
X171218096Y-96133489D01*
X171277594Y-96050689D01*
X171345435Y-95956277D01*
X171348453Y-95952077D01*
X171351585Y-95945741D01*
X171445136Y-95756453D01*
X171445137Y-95756451D01*
X171447430Y-95751811D01*
X171494974Y-95595326D01*
X171510865Y-95543023D01*
X171510865Y-95543021D01*
X171512370Y-95538069D01*
X171541529Y-95316590D01*
X171542890Y-95260897D01*
X171543074Y-95253365D01*
X171543074Y-95253361D01*
X171543156Y-95250000D01*
X171524852Y-95027361D01*
X171470431Y-94810702D01*
X171381354Y-94605840D01*
X171302943Y-94484635D01*
X171262822Y-94422617D01*
X171262820Y-94422614D01*
X171260014Y-94418277D01*
X171109670Y-94253051D01*
X171105619Y-94249852D01*
X171105615Y-94249848D01*
X170938414Y-94117800D01*
X170938410Y-94117798D01*
X170934359Y-94114598D01*
X170893053Y-94091796D01*
X170843084Y-94041364D01*
X170828312Y-93971921D01*
X170853428Y-93905516D01*
X170880780Y-93878909D01*
X170999399Y-93794299D01*
X171059860Y-93751173D01*
X171218096Y-93593489D01*
X171262895Y-93531145D01*
X171345435Y-93416277D01*
X171348453Y-93412077D01*
X171352958Y-93402963D01*
X171445136Y-93216453D01*
X171445137Y-93216451D01*
X171447430Y-93211811D01*
X171486663Y-93082681D01*
X171510865Y-93003023D01*
X171510865Y-93003021D01*
X171512370Y-92998069D01*
X171541529Y-92776590D01*
X171542540Y-92735229D01*
X171543074Y-92713365D01*
X171543074Y-92713361D01*
X171543156Y-92710000D01*
X171524852Y-92487361D01*
X171470431Y-92270702D01*
X171381354Y-92065840D01*
X171300934Y-91941530D01*
X171262822Y-91882617D01*
X171262820Y-91882614D01*
X171260014Y-91878277D01*
X171109670Y-91713051D01*
X171105619Y-91709852D01*
X171105615Y-91709848D01*
X170938414Y-91577800D01*
X170938410Y-91577798D01*
X170934359Y-91574598D01*
X170893053Y-91551796D01*
X170843084Y-91501364D01*
X170828312Y-91431921D01*
X170853428Y-91365516D01*
X170880780Y-91338909D01*
X170924829Y-91307489D01*
X171059860Y-91211173D01*
X171218096Y-91053489D01*
X171236599Y-91027740D01*
X171342354Y-90880565D01*
X171348453Y-90872077D01*
X171353563Y-90861739D01*
X171445136Y-90676453D01*
X171445137Y-90676451D01*
X171447430Y-90671811D01*
X171495960Y-90512080D01*
X171510865Y-90463023D01*
X171510865Y-90463021D01*
X171512370Y-90458069D01*
X171541529Y-90236590D01*
X171541901Y-90221358D01*
X171543074Y-90173365D01*
X171543074Y-90173361D01*
X171543156Y-90170000D01*
X171524852Y-89947361D01*
X171470431Y-89730702D01*
X171381354Y-89525840D01*
X171302943Y-89404635D01*
X171262822Y-89342617D01*
X171262820Y-89342614D01*
X171260014Y-89338277D01*
X171256532Y-89334450D01*
X171112798Y-89176488D01*
X171081746Y-89112642D01*
X171090141Y-89042143D01*
X171135317Y-88987375D01*
X171161761Y-88973706D01*
X171268297Y-88933767D01*
X171276705Y-88930615D01*
X171393261Y-88843261D01*
X171480615Y-88726705D01*
X171531745Y-88590316D01*
X171538500Y-88528134D01*
X171538500Y-86731866D01*
X171531745Y-86669684D01*
X171480615Y-86533295D01*
X171393261Y-86416739D01*
X171276705Y-86329385D01*
X171140316Y-86278255D01*
X171078134Y-86271500D01*
X169281866Y-86271500D01*
X169219684Y-86278255D01*
X169083295Y-86329385D01*
X168966739Y-86416739D01*
X168879385Y-86533295D01*
X168828255Y-86669684D01*
X168821500Y-86731866D01*
X168821500Y-88528134D01*
X168828255Y-88590316D01*
X168879385Y-88726705D01*
X168966739Y-88843261D01*
X169083295Y-88930615D01*
X169091704Y-88933767D01*
X169091705Y-88933768D01*
X169200451Y-88974535D01*
X169257216Y-89017176D01*
X169281916Y-89083738D01*
X169266709Y-89153087D01*
X169247316Y-89179568D01*
X169160413Y-89270507D01*
X169120629Y-89312138D01*
X169117715Y-89316410D01*
X169117714Y-89316411D01*
X169057532Y-89404635D01*
X168994743Y-89496680D01*
X168900688Y-89699305D01*
X168840989Y-89914570D01*
X168817251Y-90136695D01*
X168817548Y-90141848D01*
X168817548Y-90141851D01*
X168827946Y-90322179D01*
X168830110Y-90359715D01*
X168831247Y-90364761D01*
X168831248Y-90364767D01*
X168839572Y-90401700D01*
X168879222Y-90577639D01*
X168937622Y-90721461D01*
X168957284Y-90769883D01*
X168963266Y-90784616D01*
X169079987Y-90975088D01*
X169226250Y-91143938D01*
X169398126Y-91286632D01*
X169433819Y-91307489D01*
X169471445Y-91329476D01*
X169520169Y-91381114D01*
X169533240Y-91450897D01*
X169506509Y-91516669D01*
X169466055Y-91550027D01*
X169453607Y-91556507D01*
X169449474Y-91559610D01*
X169449471Y-91559612D01*
X169348912Y-91635114D01*
X169274965Y-91690635D01*
X169213108Y-91755364D01*
X169160413Y-91810507D01*
X169120629Y-91852138D01*
X169117715Y-91856410D01*
X169117714Y-91856411D01*
X169059650Y-91941530D01*
X168994743Y-92036680D01*
X168900688Y-92239305D01*
X168840989Y-92454570D01*
X168817251Y-92676695D01*
X168817548Y-92681848D01*
X168817548Y-92681851D01*
X168826932Y-92844598D01*
X168830110Y-92899715D01*
X168831247Y-92904761D01*
X168831248Y-92904767D01*
X168851119Y-92992939D01*
X168879222Y-93117639D01*
X168917461Y-93211811D01*
X168945180Y-93280074D01*
X168963266Y-93324616D01*
X169079987Y-93515088D01*
X169099236Y-93537310D01*
X169128719Y-93601892D01*
X169118605Y-93672165D01*
X169093094Y-93708901D01*
X165171095Y-97630900D01*
X165108783Y-97664926D01*
X165037968Y-97659861D01*
X164981132Y-97617314D01*
X164956321Y-97550794D01*
X164956000Y-97541805D01*
X164956000Y-97427115D01*
X164951525Y-97411876D01*
X164950135Y-97410671D01*
X164942452Y-97409000D01*
X160458116Y-97409000D01*
X160442877Y-97413475D01*
X160441672Y-97414865D01*
X160440001Y-97422548D01*
X160440001Y-98049669D01*
X160440371Y-98056490D01*
X160445895Y-98107352D01*
X160449521Y-98122604D01*
X160494676Y-98243054D01*
X160503214Y-98258649D01*
X160570942Y-98349018D01*
X160595790Y-98415525D01*
X160580737Y-98484907D01*
X160570942Y-98500148D01*
X160497385Y-98598295D01*
X160446255Y-98734684D01*
X160439500Y-98796866D01*
X160439500Y-99615219D01*
X160438787Y-99628607D01*
X160435251Y-99661695D01*
X160435548Y-99666848D01*
X160435548Y-99666851D01*
X160439291Y-99731763D01*
X160439500Y-99739016D01*
X160439500Y-100593134D01*
X160446255Y-100655316D01*
X160497385Y-100791705D01*
X160560919Y-100876478D01*
X160570630Y-100889435D01*
X160595478Y-100955941D01*
X160580425Y-101025324D01*
X160570632Y-101040562D01*
X160497385Y-101138295D01*
X160446255Y-101274684D01*
X160439500Y-101336866D01*
X160439500Y-102155219D01*
X160438787Y-102168607D01*
X160435251Y-102201695D01*
X160435548Y-102206848D01*
X160435548Y-102206851D01*
X160439291Y-102271763D01*
X160439500Y-102279016D01*
X160439500Y-103018105D01*
X160419498Y-103086226D01*
X160402595Y-103107200D01*
X156493999Y-107015796D01*
X156431687Y-107049822D01*
X156360872Y-107044757D01*
X156304036Y-107002210D01*
X156279225Y-106935690D01*
X156279982Y-106910255D01*
X156301092Y-106749911D01*
X156301092Y-106749907D01*
X156301529Y-106746590D01*
X156303156Y-106680000D01*
X156284852Y-106457361D01*
X156230431Y-106240702D01*
X156141354Y-106035840D01*
X156039819Y-105878891D01*
X156022822Y-105852617D01*
X156022820Y-105852614D01*
X156020014Y-105848277D01*
X155869670Y-105683051D01*
X155865619Y-105679852D01*
X155865615Y-105679848D01*
X155698414Y-105547800D01*
X155698410Y-105547798D01*
X155694359Y-105544598D01*
X155653053Y-105521796D01*
X155603084Y-105471364D01*
X155588312Y-105401921D01*
X155613428Y-105335516D01*
X155640780Y-105308909D01*
X155684603Y-105277650D01*
X155819860Y-105181173D01*
X155853789Y-105147363D01*
X155924198Y-105077199D01*
X155978096Y-105023489D01*
X155985607Y-105013037D01*
X156105435Y-104846277D01*
X156108453Y-104842077D01*
X156112611Y-104833665D01*
X156205136Y-104646453D01*
X156205137Y-104646451D01*
X156207430Y-104641811D01*
X156272370Y-104428069D01*
X156301529Y-104206590D01*
X156303156Y-104140000D01*
X156284852Y-103917361D01*
X156230431Y-103700702D01*
X156141354Y-103495840D01*
X156073738Y-103391321D01*
X156022822Y-103312617D01*
X156022820Y-103312614D01*
X156020014Y-103308277D01*
X155869670Y-103143051D01*
X155865619Y-103139852D01*
X155865615Y-103139848D01*
X155698414Y-103007800D01*
X155698410Y-103007798D01*
X155694359Y-103004598D01*
X155653053Y-102981796D01*
X155603084Y-102931364D01*
X155588312Y-102861921D01*
X155613428Y-102795516D01*
X155640780Y-102768909D01*
X155684603Y-102737650D01*
X155819860Y-102641173D01*
X155978096Y-102483489D01*
X156037594Y-102400689D01*
X156105435Y-102306277D01*
X156108453Y-102302077D01*
X156119851Y-102279016D01*
X156205136Y-102106453D01*
X156205137Y-102106451D01*
X156207430Y-102101811D01*
X156272370Y-101888069D01*
X156301529Y-101666590D01*
X156301611Y-101663240D01*
X156303074Y-101603365D01*
X156303074Y-101603361D01*
X156303156Y-101600000D01*
X156284852Y-101377361D01*
X156230431Y-101160702D01*
X156141354Y-100955840D01*
X156074592Y-100852641D01*
X156022822Y-100772617D01*
X156022820Y-100772614D01*
X156020014Y-100768277D01*
X155869670Y-100603051D01*
X155865619Y-100599852D01*
X155865615Y-100599848D01*
X155698414Y-100467800D01*
X155698410Y-100467798D01*
X155694359Y-100464598D01*
X155652569Y-100441529D01*
X155602598Y-100391097D01*
X155587826Y-100321654D01*
X155612942Y-100255248D01*
X155640294Y-100228641D01*
X155815328Y-100103792D01*
X155823200Y-100097139D01*
X155974052Y-99946812D01*
X155980730Y-99938965D01*
X156105003Y-99766020D01*
X156110313Y-99757183D01*
X156204670Y-99566267D01*
X156208469Y-99556672D01*
X156270377Y-99352910D01*
X156272555Y-99342837D01*
X156273986Y-99331962D01*
X156271775Y-99317778D01*
X156258617Y-99314000D01*
X153623225Y-99314000D01*
X153609694Y-99317973D01*
X153608257Y-99327966D01*
X153638565Y-99462446D01*
X153641645Y-99472275D01*
X153721770Y-99669603D01*
X153726413Y-99678794D01*
X153837694Y-99860388D01*
X153843777Y-99868699D01*
X153983213Y-100029667D01*
X153990580Y-100036883D01*
X154154434Y-100172916D01*
X154162881Y-100178831D01*
X154231969Y-100219203D01*
X154280693Y-100270842D01*
X154293764Y-100340625D01*
X154267033Y-100406396D01*
X154226584Y-100439752D01*
X154213607Y-100446507D01*
X154209474Y-100449610D01*
X154209471Y-100449612D01*
X154052239Y-100567665D01*
X154034965Y-100580635D01*
X154016745Y-100599701D01*
X153889748Y-100732596D01*
X153880629Y-100742138D01*
X153754743Y-100926680D01*
X153726931Y-100986596D01*
X153670808Y-101107504D01*
X153660688Y-101129305D01*
X153600989Y-101344570D01*
X153577251Y-101566695D01*
X153577548Y-101571848D01*
X153577548Y-101571851D01*
X153585999Y-101718414D01*
X153590110Y-101789715D01*
X153591247Y-101794761D01*
X153591248Y-101794767D01*
X153595849Y-101815181D01*
X153639222Y-102007639D01*
X153723266Y-102214616D01*
X153839987Y-102405088D01*
X153986250Y-102573938D01*
X154158126Y-102716632D01*
X154228595Y-102757811D01*
X154231445Y-102759476D01*
X154280169Y-102811114D01*
X154293240Y-102880897D01*
X154266509Y-102946669D01*
X154226055Y-102980027D01*
X154213607Y-102986507D01*
X154209474Y-102989610D01*
X154209471Y-102989612D01*
X154039100Y-103117530D01*
X154034965Y-103120635D01*
X153880629Y-103282138D01*
X153877715Y-103286410D01*
X153877714Y-103286411D01*
X153765095Y-103451504D01*
X153710184Y-103496507D01*
X153661007Y-103506500D01*
X147412894Y-103506500D01*
X147344773Y-103486498D01*
X147323799Y-103469595D01*
X145696952Y-101842747D01*
X145689412Y-101834461D01*
X145685300Y-101827982D01*
X145635648Y-101781356D01*
X145632807Y-101778602D01*
X145613070Y-101758865D01*
X145609873Y-101756385D01*
X145600851Y-101748680D01*
X145574400Y-101723841D01*
X145568621Y-101718414D01*
X145561675Y-101714595D01*
X145561672Y-101714593D01*
X145550866Y-101708652D01*
X145534347Y-101697801D01*
X145533736Y-101697327D01*
X145518341Y-101685386D01*
X145511072Y-101682241D01*
X145511068Y-101682238D01*
X145477763Y-101667826D01*
X145467104Y-101662604D01*
X145441801Y-101648694D01*
X145391741Y-101598350D01*
X145376500Y-101538279D01*
X145376500Y-101336866D01*
X145369745Y-101274684D01*
X145318615Y-101138295D01*
X145245370Y-101040564D01*
X145220522Y-100974059D01*
X145235575Y-100904676D01*
X145245370Y-100889435D01*
X145255081Y-100876478D01*
X145318615Y-100791705D01*
X145369745Y-100655316D01*
X145376500Y-100593134D01*
X145376500Y-99792856D01*
X145377578Y-99776409D01*
X145379092Y-99764908D01*
X145379529Y-99761590D01*
X145381156Y-99695000D01*
X145376924Y-99643524D01*
X145376500Y-99633200D01*
X145376500Y-98796866D01*
X145369745Y-98734684D01*
X145318615Y-98598295D01*
X145245058Y-98500148D01*
X145220210Y-98433642D01*
X145235263Y-98364259D01*
X145245058Y-98349018D01*
X145312786Y-98258649D01*
X145321324Y-98243054D01*
X145366478Y-98122606D01*
X145370105Y-98107351D01*
X145375631Y-98056486D01*
X145376000Y-98049672D01*
X145376000Y-97427115D01*
X145371525Y-97411876D01*
X145370135Y-97410671D01*
X145362452Y-97409000D01*
X140878116Y-97409000D01*
X140862877Y-97413475D01*
X140861672Y-97414865D01*
X140860001Y-97422548D01*
X140860001Y-98049669D01*
X140860371Y-98056490D01*
X140865895Y-98107352D01*
X140869521Y-98122604D01*
X140914676Y-98243054D01*
X140923214Y-98258649D01*
X140990942Y-98349018D01*
X141015790Y-98415525D01*
X141000737Y-98484907D01*
X140990942Y-98500148D01*
X140917385Y-98598295D01*
X140866255Y-98734684D01*
X140859500Y-98796866D01*
X140859500Y-99619405D01*
X140839498Y-99687526D01*
X140822595Y-99708500D01*
X140651236Y-99879859D01*
X140642950Y-99887399D01*
X140636471Y-99891511D01*
X140631046Y-99897288D01*
X140589846Y-99941162D01*
X140587091Y-99944004D01*
X140567354Y-99963741D01*
X140564874Y-99966938D01*
X140557171Y-99975958D01*
X140526903Y-100008190D01*
X140523084Y-100015136D01*
X140523082Y-100015139D01*
X140517141Y-100025945D01*
X140506290Y-100042464D01*
X140493875Y-100058470D01*
X140490730Y-100065739D01*
X140490727Y-100065743D01*
X140476315Y-100099048D01*
X140471098Y-100109698D01*
X140449794Y-100148451D01*
X140447823Y-100156126D01*
X140447823Y-100156127D01*
X140444756Y-100168073D01*
X140438352Y-100186777D01*
X140430308Y-100205366D01*
X140429069Y-100213189D01*
X140429066Y-100213199D01*
X140423390Y-100249035D01*
X140420984Y-100260655D01*
X140415486Y-100282069D01*
X140409989Y-100303481D01*
X140409989Y-100323735D01*
X140408438Y-100343445D01*
X140405269Y-100363454D01*
X140406015Y-100371346D01*
X140409430Y-100407472D01*
X140409989Y-100419330D01*
X140409989Y-100975002D01*
X140409725Y-100979204D01*
X140409200Y-100981248D01*
X140409200Y-101001502D01*
X140407649Y-101021212D01*
X140404480Y-101041221D01*
X140405226Y-101049113D01*
X140408641Y-101085239D01*
X140409200Y-101097097D01*
X140409200Y-106109106D01*
X140389198Y-106177227D01*
X140372295Y-106198201D01*
X135398515Y-111171981D01*
X135336203Y-111206007D01*
X135265388Y-111200942D01*
X135208552Y-111158395D01*
X135193874Y-111133134D01*
X135186354Y-111115840D01*
X135065014Y-110928277D01*
X134914670Y-110763051D01*
X134910619Y-110759852D01*
X134910615Y-110759848D01*
X134743414Y-110627800D01*
X134743410Y-110627798D01*
X134739359Y-110624598D01*
X134698053Y-110601796D01*
X134648084Y-110551364D01*
X134633312Y-110481921D01*
X134658428Y-110415516D01*
X134685780Y-110388909D01*
X134751018Y-110342375D01*
X134864860Y-110261173D01*
X134893664Y-110232470D01*
X134956075Y-110170276D01*
X135023096Y-110103489D01*
X135077314Y-110028037D01*
X135150435Y-109926277D01*
X135153453Y-109922077D01*
X135179117Y-109870151D01*
X135250136Y-109726453D01*
X135250137Y-109726451D01*
X135252430Y-109721811D01*
X135317370Y-109508069D01*
X135346529Y-109286590D01*
X135348156Y-109220000D01*
X135329852Y-108997361D01*
X135275431Y-108780702D01*
X135186354Y-108575840D01*
X135084819Y-108418891D01*
X135067822Y-108392617D01*
X135067820Y-108392614D01*
X135065014Y-108388277D01*
X134914670Y-108223051D01*
X134910619Y-108219852D01*
X134910615Y-108219848D01*
X134743414Y-108087800D01*
X134743410Y-108087798D01*
X134739359Y-108084598D01*
X134698053Y-108061796D01*
X134648084Y-108011364D01*
X134633312Y-107941921D01*
X134658428Y-107875516D01*
X134685780Y-107848909D01*
X134744541Y-107806995D01*
X134864860Y-107721173D01*
X135023096Y-107563489D01*
X135027132Y-107557873D01*
X135150435Y-107386277D01*
X135153453Y-107382077D01*
X135186605Y-107315000D01*
X135250136Y-107186453D01*
X135250137Y-107186451D01*
X135252430Y-107181811D01*
X135317370Y-106968069D01*
X135346529Y-106746590D01*
X135348156Y-106680000D01*
X135329852Y-106457361D01*
X135275431Y-106240702D01*
X135186354Y-106035840D01*
X135084819Y-105878891D01*
X135067822Y-105852617D01*
X135067820Y-105852614D01*
X135065014Y-105848277D01*
X134914670Y-105683051D01*
X134910619Y-105679852D01*
X134910615Y-105679848D01*
X134743414Y-105547800D01*
X134743410Y-105547798D01*
X134739359Y-105544598D01*
X134698053Y-105521796D01*
X134648084Y-105471364D01*
X134633312Y-105401921D01*
X134658428Y-105335516D01*
X134685780Y-105308909D01*
X134729603Y-105277650D01*
X134864860Y-105181173D01*
X134898789Y-105147363D01*
X134969198Y-105077199D01*
X135023096Y-105023489D01*
X135030607Y-105013037D01*
X135150435Y-104846277D01*
X135153453Y-104842077D01*
X135157611Y-104833665D01*
X135250136Y-104646453D01*
X135250137Y-104646451D01*
X135252430Y-104641811D01*
X135317370Y-104428069D01*
X135346529Y-104206590D01*
X135348156Y-104140000D01*
X135329852Y-103917361D01*
X135275431Y-103700702D01*
X135186354Y-103495840D01*
X135118738Y-103391321D01*
X135067822Y-103312617D01*
X135067820Y-103312614D01*
X135065014Y-103308277D01*
X134914670Y-103143051D01*
X134910619Y-103139852D01*
X134910615Y-103139848D01*
X134743414Y-103007800D01*
X134743410Y-103007798D01*
X134739359Y-103004598D01*
X134698053Y-102981796D01*
X134648084Y-102931364D01*
X134633312Y-102861921D01*
X134658428Y-102795516D01*
X134685780Y-102768909D01*
X134729603Y-102737650D01*
X134864860Y-102641173D01*
X135023096Y-102483489D01*
X135082594Y-102400689D01*
X135150435Y-102306277D01*
X135153453Y-102302077D01*
X135164851Y-102279016D01*
X135250136Y-102106453D01*
X135250137Y-102106451D01*
X135252430Y-102101811D01*
X135317370Y-101888069D01*
X135346529Y-101666590D01*
X135346611Y-101663240D01*
X135348074Y-101603365D01*
X135348074Y-101603361D01*
X135348156Y-101600000D01*
X135329852Y-101377361D01*
X135277509Y-101168975D01*
X135280313Y-101098036D01*
X135310618Y-101049186D01*
X140705579Y-95654225D01*
X140767891Y-95620199D01*
X140838706Y-95625264D01*
X140895542Y-95667811D01*
X140912656Y-95699092D01*
X140914231Y-95703293D01*
X140917385Y-95711705D01*
X140922771Y-95718891D01*
X140990942Y-95809852D01*
X141015790Y-95876358D01*
X141000737Y-95945741D01*
X140990942Y-95960982D01*
X140923214Y-96051351D01*
X140914676Y-96066946D01*
X140869522Y-96187394D01*
X140865895Y-96202649D01*
X140860369Y-96253514D01*
X140860000Y-96260328D01*
X140860000Y-96882885D01*
X140864475Y-96898124D01*
X140865865Y-96899329D01*
X140873548Y-96901000D01*
X145357884Y-96901000D01*
X145373123Y-96896525D01*
X145374328Y-96895135D01*
X145375999Y-96887452D01*
X145375999Y-96260331D01*
X145375629Y-96253510D01*
X145370105Y-96202648D01*
X145366479Y-96187396D01*
X145321324Y-96066946D01*
X145312786Y-96051351D01*
X145245058Y-95960982D01*
X145220210Y-95894475D01*
X145235263Y-95825093D01*
X145245058Y-95809852D01*
X145313229Y-95718891D01*
X145318615Y-95711705D01*
X145369745Y-95575316D01*
X145376500Y-95513134D01*
X145376500Y-94712856D01*
X145377578Y-94696409D01*
X145379092Y-94684908D01*
X145379529Y-94681590D01*
X145379611Y-94678240D01*
X145381074Y-94618365D01*
X145381074Y-94618361D01*
X145381156Y-94615000D01*
X145376924Y-94563524D01*
X145376500Y-94553200D01*
X145376500Y-93883395D01*
X145396502Y-93815274D01*
X145413405Y-93794299D01*
X145487422Y-93720283D01*
X145585558Y-93622147D01*
X145593837Y-93614613D01*
X145600318Y-93610500D01*
X145646945Y-93560847D01*
X145649699Y-93558006D01*
X145669435Y-93538270D01*
X145671915Y-93535073D01*
X145679620Y-93526051D01*
X145686252Y-93518989D01*
X145709886Y-93493821D01*
X145713705Y-93486875D01*
X145713707Y-93486872D01*
X145719648Y-93476066D01*
X145730499Y-93459547D01*
X145738058Y-93449801D01*
X145742914Y-93443541D01*
X145746059Y-93436272D01*
X145746062Y-93436268D01*
X145760474Y-93402963D01*
X145765691Y-93392313D01*
X145786995Y-93353560D01*
X145792033Y-93333937D01*
X145798437Y-93315234D01*
X145803333Y-93303920D01*
X145803333Y-93303919D01*
X145806481Y-93296645D01*
X145807720Y-93288822D01*
X145807723Y-93288812D01*
X145813399Y-93252976D01*
X145815805Y-93241356D01*
X145824828Y-93206211D01*
X145824828Y-93206210D01*
X145826800Y-93198530D01*
X145826800Y-93178276D01*
X145828351Y-93158565D01*
X145829981Y-93148277D01*
X145831520Y-93138557D01*
X145827359Y-93094538D01*
X145826800Y-93082681D01*
X145826800Y-91156267D01*
X145827327Y-91145084D01*
X145829002Y-91137591D01*
X145826862Y-91069514D01*
X145826800Y-91065555D01*
X145826800Y-91037644D01*
X145826295Y-91033644D01*
X145825362Y-91021801D01*
X145824222Y-90985529D01*
X145823973Y-90977610D01*
X145818322Y-90958158D01*
X145814314Y-90938806D01*
X145812767Y-90926563D01*
X145811774Y-90918703D01*
X145808856Y-90911332D01*
X145795500Y-90877597D01*
X145791655Y-90866370D01*
X145790309Y-90861739D01*
X145779318Y-90823907D01*
X145775284Y-90817085D01*
X145775281Y-90817079D01*
X145769006Y-90806468D01*
X145760310Y-90788718D01*
X145755772Y-90777256D01*
X145755769Y-90777251D01*
X145752852Y-90769883D01*
X145726873Y-90734125D01*
X145720357Y-90724207D01*
X145701875Y-90692957D01*
X145697842Y-90686137D01*
X145683516Y-90671811D01*
X145670676Y-90656778D01*
X145658772Y-90640393D01*
X145624706Y-90612211D01*
X145615927Y-90604222D01*
X145413405Y-90401700D01*
X145379379Y-90339388D01*
X145376500Y-90312605D01*
X145376500Y-89632856D01*
X145377578Y-89616409D01*
X145379092Y-89604908D01*
X145379529Y-89601590D01*
X145381156Y-89535000D01*
X145376924Y-89483524D01*
X145376500Y-89473200D01*
X145376500Y-88636866D01*
X145369745Y-88574684D01*
X145318615Y-88438295D01*
X145245370Y-88340564D01*
X145220522Y-88274059D01*
X145235575Y-88204676D01*
X145245370Y-88189435D01*
X145313229Y-88098891D01*
X145318615Y-88091705D01*
X145369745Y-87955316D01*
X145376500Y-87893134D01*
X145376500Y-87092856D01*
X145377578Y-87076409D01*
X145379092Y-87064908D01*
X145379529Y-87061590D01*
X145381156Y-86995000D01*
X145376924Y-86943524D01*
X145376500Y-86933200D01*
X145376500Y-86096866D01*
X145369745Y-86034684D01*
X145318615Y-85898295D01*
X145245058Y-85800148D01*
X145220210Y-85733642D01*
X145235263Y-85664259D01*
X145245058Y-85649018D01*
X145312786Y-85558649D01*
X145321324Y-85543054D01*
X145366478Y-85422606D01*
X145370105Y-85407351D01*
X145375631Y-85356486D01*
X145376000Y-85349672D01*
X145376000Y-84727115D01*
X145371525Y-84711876D01*
X145370135Y-84710671D01*
X145362452Y-84709000D01*
X140878116Y-84709000D01*
X140862877Y-84713475D01*
X140861672Y-84714865D01*
X140860001Y-84722548D01*
X140860001Y-85349669D01*
X140860371Y-85356490D01*
X140865895Y-85407352D01*
X140869521Y-85422604D01*
X140914676Y-85543054D01*
X140923214Y-85558649D01*
X140990942Y-85649018D01*
X141015790Y-85715525D01*
X141000737Y-85784907D01*
X140990942Y-85800148D01*
X140917385Y-85898295D01*
X140866255Y-86034684D01*
X140859500Y-86096866D01*
X140859500Y-87708906D01*
X140839498Y-87777027D01*
X140822595Y-87798001D01*
X139604088Y-89016507D01*
X138426747Y-90193848D01*
X138418461Y-90201388D01*
X138411982Y-90205500D01*
X138406557Y-90211277D01*
X138365357Y-90255151D01*
X138362602Y-90257993D01*
X138342865Y-90277730D01*
X138340385Y-90280927D01*
X138332682Y-90289947D01*
X138302414Y-90322179D01*
X138298595Y-90329125D01*
X138298593Y-90329128D01*
X138292652Y-90339934D01*
X138281801Y-90356453D01*
X138269386Y-90372459D01*
X138266241Y-90379728D01*
X138266238Y-90379732D01*
X138251826Y-90413037D01*
X138246609Y-90423687D01*
X138225305Y-90462440D01*
X138220878Y-90479684D01*
X138220267Y-90482062D01*
X138213863Y-90500766D01*
X138205819Y-90519355D01*
X138204580Y-90527180D01*
X138204579Y-90527182D01*
X138198903Y-90563019D01*
X138196496Y-90574642D01*
X138187471Y-90609791D01*
X138187470Y-90609795D01*
X138185500Y-90617470D01*
X138185500Y-90637724D01*
X138183949Y-90657434D01*
X138180780Y-90677443D01*
X138181526Y-90685335D01*
X138184941Y-90721461D01*
X138185500Y-90733319D01*
X138185500Y-93038406D01*
X138165498Y-93106527D01*
X138148595Y-93127501D01*
X137920235Y-93355861D01*
X137857923Y-93389887D01*
X137787108Y-93384822D01*
X137730272Y-93342275D01*
X137725348Y-93335206D01*
X137607426Y-93152926D01*
X137601136Y-93144757D01*
X137457293Y-92986677D01*
X137426241Y-92922831D01*
X137434635Y-92852333D01*
X137479812Y-92797564D01*
X137506256Y-92783895D01*
X137613297Y-92743767D01*
X137621705Y-92740615D01*
X137738261Y-92653261D01*
X137825615Y-92536705D01*
X137876745Y-92400316D01*
X137883500Y-92338134D01*
X137883500Y-90541866D01*
X137876745Y-90479684D01*
X137825615Y-90343295D01*
X137738261Y-90226739D01*
X137621705Y-90139385D01*
X137485316Y-90088255D01*
X137423134Y-90081500D01*
X135626866Y-90081500D01*
X135564684Y-90088255D01*
X135428295Y-90139385D01*
X135332370Y-90211277D01*
X135330565Y-90212630D01*
X135264059Y-90237478D01*
X135194676Y-90222425D01*
X135179435Y-90212630D01*
X135177630Y-90211277D01*
X135081705Y-90139385D01*
X134945316Y-90088255D01*
X134883134Y-90081500D01*
X133086866Y-90081500D01*
X133024684Y-90088255D01*
X132888295Y-90139385D01*
X132771739Y-90226739D01*
X132684385Y-90343295D01*
X132633255Y-90479684D01*
X132626500Y-90541866D01*
X132626500Y-92338134D01*
X132633255Y-92400316D01*
X132684385Y-92536705D01*
X132771739Y-92653261D01*
X132888295Y-92740615D01*
X132896704Y-92743767D01*
X132896705Y-92743768D01*
X133005451Y-92784535D01*
X133062216Y-92827176D01*
X133086916Y-92893738D01*
X133071709Y-92963087D01*
X133052316Y-92989568D01*
X132934748Y-93112596D01*
X132925629Y-93122138D01*
X132922715Y-93126410D01*
X132922714Y-93126411D01*
X132919812Y-93130665D01*
X132799743Y-93306680D01*
X132776914Y-93355861D01*
X132733764Y-93448821D01*
X132705688Y-93509305D01*
X132645989Y-93724570D01*
X132622251Y-93946695D01*
X132622548Y-93951848D01*
X132622548Y-93951851D01*
X132630124Y-94083242D01*
X132635110Y-94169715D01*
X132636247Y-94174761D01*
X132636248Y-94174767D01*
X132655601Y-94260638D01*
X132684222Y-94387639D01*
X132768266Y-94594616D01*
X132788200Y-94627145D01*
X132860231Y-94744689D01*
X132884987Y-94785088D01*
X133031250Y-94953938D01*
X133203126Y-95096632D01*
X133273595Y-95137811D01*
X133276445Y-95139476D01*
X133325169Y-95191114D01*
X133338240Y-95260897D01*
X133311509Y-95326669D01*
X133271055Y-95360027D01*
X133258607Y-95366507D01*
X133254474Y-95369610D01*
X133254471Y-95369612D01*
X133122513Y-95468689D01*
X133079965Y-95500635D01*
X132925629Y-95662138D01*
X132799743Y-95846680D01*
X132774010Y-95902117D01*
X132742532Y-95969932D01*
X132705688Y-96049305D01*
X132645989Y-96264570D01*
X132622251Y-96486695D01*
X132622548Y-96491848D01*
X132622548Y-96491851D01*
X132630636Y-96632120D01*
X132635110Y-96709715D01*
X132636247Y-96714761D01*
X132636248Y-96714767D01*
X132648224Y-96767905D01*
X132684222Y-96927639D01*
X132768266Y-97134616D01*
X132819019Y-97217438D01*
X132882291Y-97320688D01*
X132884987Y-97325088D01*
X133031250Y-97493938D01*
X133203126Y-97636632D01*
X133242878Y-97659861D01*
X133276445Y-97679476D01*
X133325169Y-97731114D01*
X133338240Y-97800897D01*
X133311509Y-97866669D01*
X133271055Y-97900027D01*
X133258607Y-97906507D01*
X133254474Y-97909610D01*
X133254471Y-97909612D01*
X133117276Y-98012621D01*
X133079965Y-98040635D01*
X133049192Y-98072837D01*
X132954430Y-98172000D01*
X132925629Y-98202138D01*
X132922715Y-98206410D01*
X132922714Y-98206411D01*
X132912758Y-98221006D01*
X132799743Y-98386680D01*
X132705688Y-98589305D01*
X132645989Y-98804570D01*
X132622251Y-99026695D01*
X132622548Y-99031848D01*
X132622548Y-99031851D01*
X132630889Y-99176507D01*
X132635110Y-99249715D01*
X132636247Y-99254761D01*
X132636248Y-99254767D01*
X132655601Y-99340638D01*
X132684222Y-99467639D01*
X132768266Y-99674616D01*
X132884987Y-99865088D01*
X133031250Y-100033938D01*
X133203126Y-100176632D01*
X133239849Y-100198091D01*
X133276445Y-100219476D01*
X133325169Y-100271114D01*
X133338240Y-100340897D01*
X133311509Y-100406669D01*
X133271055Y-100440027D01*
X133258607Y-100446507D01*
X133254474Y-100449610D01*
X133254471Y-100449612D01*
X133097239Y-100567665D01*
X133079965Y-100580635D01*
X133061745Y-100599701D01*
X132934748Y-100732596D01*
X132925629Y-100742138D01*
X132799743Y-100926680D01*
X132771931Y-100986596D01*
X132715808Y-101107504D01*
X132705688Y-101129305D01*
X132645989Y-101344570D01*
X132622251Y-101566695D01*
X132622548Y-101571848D01*
X132622548Y-101571851D01*
X132630999Y-101718414D01*
X132635110Y-101789715D01*
X132636247Y-101794761D01*
X132636248Y-101794767D01*
X132640849Y-101815181D01*
X132684222Y-102007639D01*
X132768266Y-102214616D01*
X132884987Y-102405088D01*
X133031250Y-102573938D01*
X133203126Y-102716632D01*
X133273595Y-102757811D01*
X133276445Y-102759476D01*
X133325169Y-102811114D01*
X133338240Y-102880897D01*
X133311509Y-102946669D01*
X133271055Y-102980027D01*
X133258607Y-102986507D01*
X133254474Y-102989610D01*
X133254471Y-102989612D01*
X133084100Y-103117530D01*
X133079965Y-103120635D01*
X132925629Y-103282138D01*
X132799743Y-103466680D01*
X132705688Y-103669305D01*
X132645989Y-103884570D01*
X132622251Y-104106695D01*
X132622548Y-104111848D01*
X132622548Y-104111851D01*
X132628202Y-104209908D01*
X132635110Y-104329715D01*
X132636247Y-104334761D01*
X132636248Y-104334767D01*
X132656119Y-104422939D01*
X132684222Y-104547639D01*
X132739900Y-104684758D01*
X132761817Y-104738733D01*
X132768266Y-104754616D01*
X132816707Y-104833665D01*
X132882291Y-104940688D01*
X132884987Y-104945088D01*
X133031250Y-105113938D01*
X133203126Y-105256632D01*
X133273595Y-105297811D01*
X133276445Y-105299476D01*
X133325169Y-105351114D01*
X133338240Y-105420897D01*
X133311509Y-105486669D01*
X133271055Y-105520027D01*
X133258607Y-105526507D01*
X133254474Y-105529610D01*
X133254471Y-105529612D01*
X133084100Y-105657530D01*
X133079965Y-105660635D01*
X132925629Y-105822138D01*
X132799743Y-106006680D01*
X132764312Y-106083010D01*
X132725050Y-106167594D01*
X132705688Y-106209305D01*
X132645989Y-106424570D01*
X132622251Y-106646695D01*
X132622548Y-106651848D01*
X132622548Y-106651851D01*
X132628011Y-106746590D01*
X132635110Y-106869715D01*
X132636247Y-106874761D01*
X132636248Y-106874767D01*
X132649978Y-106935690D01*
X132684222Y-107087639D01*
X132768266Y-107294616D01*
X132818631Y-107376804D01*
X132863811Y-107450531D01*
X132884987Y-107485088D01*
X133031250Y-107653938D01*
X133203126Y-107796632D01*
X133273595Y-107837811D01*
X133276445Y-107839476D01*
X133325169Y-107891114D01*
X133338240Y-107960897D01*
X133311509Y-108026669D01*
X133271055Y-108060027D01*
X133258607Y-108066507D01*
X133254474Y-108069610D01*
X133254471Y-108069612D01*
X133230247Y-108087800D01*
X133079965Y-108200635D01*
X132925629Y-108362138D01*
X132799743Y-108546680D01*
X132705688Y-108749305D01*
X132645989Y-108964570D01*
X132622251Y-109186695D01*
X132622548Y-109191848D01*
X132622548Y-109191851D01*
X132631028Y-109338920D01*
X132635110Y-109409715D01*
X132636247Y-109414761D01*
X132636248Y-109414767D01*
X132659477Y-109517837D01*
X132684222Y-109627639D01*
X132743233Y-109772967D01*
X132765571Y-109827978D01*
X132768266Y-109834616D01*
X132802160Y-109889926D01*
X132859196Y-109983000D01*
X132884987Y-110025088D01*
X133031250Y-110193938D01*
X133203126Y-110336632D01*
X133250433Y-110364276D01*
X133276445Y-110379476D01*
X133325169Y-110431114D01*
X133338240Y-110500897D01*
X133311509Y-110566669D01*
X133271055Y-110600027D01*
X133258607Y-110606507D01*
X133254474Y-110609610D01*
X133254471Y-110609612D01*
X133089525Y-110733457D01*
X133079965Y-110740635D01*
X133064814Y-110756490D01*
X132944718Y-110882163D01*
X132925629Y-110902138D01*
X132922715Y-110906410D01*
X132922714Y-110906411D01*
X132910404Y-110924457D01*
X132799743Y-111086680D01*
X132784007Y-111120581D01*
X132710584Y-111278758D01*
X132705688Y-111289305D01*
X132645989Y-111504570D01*
X132622251Y-111726695D01*
X132622548Y-111731848D01*
X132622548Y-111731851D01*
X132628011Y-111826590D01*
X132635110Y-111949715D01*
X132636247Y-111954761D01*
X132636248Y-111954767D01*
X132656119Y-112042939D01*
X132684222Y-112167639D01*
X132768266Y-112374616D01*
X132884987Y-112565088D01*
X132888367Y-112568990D01*
X132903495Y-112586455D01*
X132932976Y-112651041D01*
X132922859Y-112721313D01*
X132897350Y-112758045D01*
X132417447Y-113237948D01*
X132409161Y-113245488D01*
X132402682Y-113249600D01*
X132397257Y-113255377D01*
X132356057Y-113299251D01*
X132353302Y-113302093D01*
X132333565Y-113321830D01*
X132331085Y-113325027D01*
X132323382Y-113334047D01*
X132293114Y-113366279D01*
X132289295Y-113373225D01*
X132289293Y-113373228D01*
X132283352Y-113384034D01*
X132272501Y-113400553D01*
X132260086Y-113416559D01*
X132256941Y-113423828D01*
X132256938Y-113423832D01*
X132242526Y-113457137D01*
X132237309Y-113467787D01*
X132216005Y-113506540D01*
X132214034Y-113514215D01*
X132214034Y-113514216D01*
X132210967Y-113526162D01*
X132204563Y-113544866D01*
X132196519Y-113563455D01*
X132195280Y-113571278D01*
X132195277Y-113571288D01*
X132189601Y-113607124D01*
X132187195Y-113618744D01*
X132185158Y-113626680D01*
X132176200Y-113661570D01*
X132176200Y-113681824D01*
X132174649Y-113701534D01*
X132171480Y-113721543D01*
X131551369Y-113721543D01*
X131539076Y-103312617D01*
X131517122Y-84722966D01*
X132653257Y-84722966D01*
X132683565Y-84857446D01*
X132686645Y-84867275D01*
X132766770Y-85064603D01*
X132771413Y-85073794D01*
X132882694Y-85255388D01*
X132888777Y-85263699D01*
X133028213Y-85424667D01*
X133035580Y-85431883D01*
X133199434Y-85567916D01*
X133207881Y-85573831D01*
X133391756Y-85681279D01*
X133401042Y-85685729D01*
X133600001Y-85761703D01*
X133609899Y-85764579D01*
X133713250Y-85785606D01*
X133727299Y-85784410D01*
X133731000Y-85774065D01*
X133731000Y-85773517D01*
X134239000Y-85773517D01*
X134243064Y-85787359D01*
X134256478Y-85789393D01*
X134263184Y-85788534D01*
X134273262Y-85786392D01*
X134477255Y-85725191D01*
X134486842Y-85721433D01*
X134678095Y-85627739D01*
X134686945Y-85622464D01*
X134860328Y-85498792D01*
X134868200Y-85492139D01*
X135019052Y-85341812D01*
X135025730Y-85333965D01*
X135150003Y-85161020D01*
X135155313Y-85152183D01*
X135249670Y-84961267D01*
X135253469Y-84951672D01*
X135315377Y-84747910D01*
X135317555Y-84737837D01*
X135318986Y-84726962D01*
X135316775Y-84712778D01*
X135303617Y-84709000D01*
X134257115Y-84709000D01*
X134241876Y-84713475D01*
X134240671Y-84714865D01*
X134239000Y-84722548D01*
X134239000Y-85773517D01*
X133731000Y-85773517D01*
X133731000Y-84727115D01*
X133726525Y-84711876D01*
X133725135Y-84710671D01*
X133717452Y-84709000D01*
X132668225Y-84709000D01*
X132654694Y-84712973D01*
X132653257Y-84722966D01*
X131517122Y-84722966D01*
X131513766Y-81881695D01*
X132622251Y-81881695D01*
X132622548Y-81886848D01*
X132622548Y-81886851D01*
X132633374Y-82074610D01*
X132635110Y-82104715D01*
X132636247Y-82109761D01*
X132636248Y-82109767D01*
X132652571Y-82182195D01*
X132684222Y-82322639D01*
X132744014Y-82469890D01*
X132761662Y-82513351D01*
X132768266Y-82529616D01*
X132884987Y-82720088D01*
X133031250Y-82888938D01*
X133203126Y-83031632D01*
X133220624Y-83041857D01*
X133276955Y-83074774D01*
X133325679Y-83126412D01*
X133338750Y-83196195D01*
X133312019Y-83261967D01*
X133271562Y-83295327D01*
X133263457Y-83299546D01*
X133254738Y-83305036D01*
X133084433Y-83432905D01*
X133076726Y-83439748D01*
X132929590Y-83593717D01*
X132923104Y-83601727D01*
X132803098Y-83777649D01*
X132798000Y-83786623D01*
X132708338Y-83979783D01*
X132704775Y-83989470D01*
X132649389Y-84189183D01*
X132650912Y-84197607D01*
X132663292Y-84201000D01*
X135303344Y-84201000D01*
X135316875Y-84197027D01*
X135318180Y-84187947D01*
X135276214Y-84020875D01*
X135272894Y-84011124D01*
X135187972Y-83815814D01*
X135183105Y-83806739D01*
X135067426Y-83627926D01*
X135061136Y-83619757D01*
X134917806Y-83462240D01*
X134910273Y-83455215D01*
X134743139Y-83323222D01*
X134734556Y-83317520D01*
X134697602Y-83297120D01*
X134647631Y-83246687D01*
X134632859Y-83177245D01*
X134657975Y-83110839D01*
X134685327Y-83084232D01*
X134726951Y-83054542D01*
X134864860Y-82956173D01*
X135023096Y-82798489D01*
X135058734Y-82748894D01*
X135150435Y-82621277D01*
X135153453Y-82617077D01*
X135155746Y-82612437D01*
X135157446Y-82609608D01*
X135209674Y-82561518D01*
X135265451Y-82548500D01*
X140733500Y-82548500D01*
X140801621Y-82568502D01*
X140848114Y-82622158D01*
X140859500Y-82674500D01*
X140859500Y-82813134D01*
X140866255Y-82875316D01*
X140917385Y-83011705D01*
X140947175Y-83051453D01*
X140990942Y-83109852D01*
X141015790Y-83176358D01*
X141000737Y-83245741D01*
X140990942Y-83260982D01*
X140923214Y-83351351D01*
X140914676Y-83366946D01*
X140869522Y-83487394D01*
X140865895Y-83502649D01*
X140860369Y-83553514D01*
X140860000Y-83560328D01*
X140860000Y-84182885D01*
X140864475Y-84198124D01*
X140865865Y-84199329D01*
X140873548Y-84201000D01*
X145357884Y-84201000D01*
X145373123Y-84196525D01*
X145374328Y-84195135D01*
X145375999Y-84187452D01*
X145375999Y-83560331D01*
X145375629Y-83553510D01*
X145370105Y-83502648D01*
X145366479Y-83487396D01*
X145321324Y-83366946D01*
X145312786Y-83351351D01*
X145245058Y-83260982D01*
X145220210Y-83194475D01*
X145235263Y-83125093D01*
X145245058Y-83109852D01*
X145288825Y-83051453D01*
X145318615Y-83011705D01*
X145369745Y-82875316D01*
X145376500Y-82813134D01*
X145376500Y-82535000D01*
X149219693Y-82535000D01*
X149238885Y-82754371D01*
X149295880Y-82967076D01*
X149335226Y-83051453D01*
X149386618Y-83161666D01*
X149386621Y-83161671D01*
X149388944Y-83166653D01*
X149392100Y-83171160D01*
X149392101Y-83171162D01*
X149481997Y-83299546D01*
X149515251Y-83347038D01*
X149670962Y-83502749D01*
X149675471Y-83505906D01*
X149675473Y-83505908D01*
X149743456Y-83553510D01*
X149851346Y-83629056D01*
X150050924Y-83722120D01*
X150263629Y-83779115D01*
X150483000Y-83798307D01*
X150702371Y-83779115D01*
X150915076Y-83722120D01*
X151114654Y-83629056D01*
X151222544Y-83553510D01*
X151290527Y-83505908D01*
X151290529Y-83505906D01*
X151295038Y-83502749D01*
X151450749Y-83347038D01*
X151484004Y-83299546D01*
X151573899Y-83171162D01*
X151573900Y-83171160D01*
X151577056Y-83166653D01*
X151579379Y-83161671D01*
X151579382Y-83161666D01*
X151630774Y-83051453D01*
X151670120Y-82967076D01*
X151727115Y-82754371D01*
X151746307Y-82535000D01*
X154069693Y-82535000D01*
X154088885Y-82754371D01*
X154145880Y-82967076D01*
X154185226Y-83051453D01*
X154236618Y-83161666D01*
X154236621Y-83161671D01*
X154238944Y-83166653D01*
X154242100Y-83171160D01*
X154242101Y-83171162D01*
X154331997Y-83299546D01*
X154365251Y-83347038D01*
X154520962Y-83502749D01*
X154525471Y-83505906D01*
X154525473Y-83505908D01*
X154593456Y-83553510D01*
X154701346Y-83629056D01*
X154900924Y-83722120D01*
X155113629Y-83779115D01*
X155333000Y-83798307D01*
X155552371Y-83779115D01*
X155765076Y-83722120D01*
X155964654Y-83629056D01*
X156072544Y-83553510D01*
X156140527Y-83505908D01*
X156140529Y-83505906D01*
X156145038Y-83502749D01*
X156300749Y-83347038D01*
X156334004Y-83299546D01*
X156423899Y-83171162D01*
X156423900Y-83171160D01*
X156427056Y-83166653D01*
X156429379Y-83161671D01*
X156429382Y-83161666D01*
X156480774Y-83051453D01*
X156520120Y-82967076D01*
X156577115Y-82754371D01*
X156596307Y-82535000D01*
X156577115Y-82315629D01*
X156520120Y-82102924D01*
X156470451Y-81996409D01*
X156429382Y-81908334D01*
X156429379Y-81908329D01*
X156427056Y-81903347D01*
X156422256Y-81896492D01*
X156303908Y-81727473D01*
X156303906Y-81727470D01*
X156300749Y-81722962D01*
X156145038Y-81567251D01*
X156134659Y-81559983D01*
X156031345Y-81487642D01*
X155964654Y-81440944D01*
X155765076Y-81347880D01*
X155552371Y-81290885D01*
X155333000Y-81271693D01*
X155113629Y-81290885D01*
X154900924Y-81347880D01*
X154807562Y-81391415D01*
X154706334Y-81438618D01*
X154706329Y-81438621D01*
X154701347Y-81440944D01*
X154696840Y-81444100D01*
X154696838Y-81444101D01*
X154525473Y-81564092D01*
X154525470Y-81564094D01*
X154520962Y-81567251D01*
X154365251Y-81722962D01*
X154362094Y-81727470D01*
X154362092Y-81727473D01*
X154243744Y-81896492D01*
X154238944Y-81903347D01*
X154236621Y-81908329D01*
X154236618Y-81908334D01*
X154195549Y-81996409D01*
X154145880Y-82102924D01*
X154088885Y-82315629D01*
X154069693Y-82535000D01*
X151746307Y-82535000D01*
X151727115Y-82315629D01*
X151670120Y-82102924D01*
X151620451Y-81996409D01*
X151579382Y-81908334D01*
X151579379Y-81908329D01*
X151577056Y-81903347D01*
X151572256Y-81896492D01*
X151453908Y-81727473D01*
X151453906Y-81727470D01*
X151450749Y-81722962D01*
X151295038Y-81567251D01*
X151284659Y-81559983D01*
X151181345Y-81487642D01*
X151114654Y-81440944D01*
X150915076Y-81347880D01*
X150702371Y-81290885D01*
X150483000Y-81271693D01*
X150263629Y-81290885D01*
X150050924Y-81347880D01*
X149957562Y-81391415D01*
X149856334Y-81438618D01*
X149856329Y-81438621D01*
X149851347Y-81440944D01*
X149846840Y-81444100D01*
X149846838Y-81444101D01*
X149675473Y-81564092D01*
X149675470Y-81564094D01*
X149670962Y-81567251D01*
X149515251Y-81722962D01*
X149512094Y-81727470D01*
X149512092Y-81727473D01*
X149393744Y-81896492D01*
X149388944Y-81903347D01*
X149386621Y-81908329D01*
X149386618Y-81908334D01*
X149345549Y-81996409D01*
X149295880Y-82102924D01*
X149238885Y-82315629D01*
X149219693Y-82535000D01*
X145376500Y-82535000D01*
X145376500Y-82012856D01*
X145377578Y-81996409D01*
X145379092Y-81984908D01*
X145379529Y-81981590D01*
X145380605Y-81937542D01*
X145381074Y-81918365D01*
X145381074Y-81918361D01*
X145381156Y-81915000D01*
X145376924Y-81863524D01*
X145376500Y-81853200D01*
X145376500Y-81016866D01*
X145369745Y-80954684D01*
X145318615Y-80818295D01*
X145245370Y-80720564D01*
X145220522Y-80654059D01*
X145235575Y-80584676D01*
X145245370Y-80569435D01*
X145294036Y-80504500D01*
X145318615Y-80471705D01*
X145369745Y-80335316D01*
X145376500Y-80273134D01*
X145376500Y-79472856D01*
X145376656Y-79470469D01*
X148770095Y-79470469D01*
X148770392Y-79475622D01*
X148770392Y-79475625D01*
X148776067Y-79574041D01*
X148783427Y-79701697D01*
X148784564Y-79706743D01*
X148784565Y-79706749D01*
X148816741Y-79849523D01*
X148834346Y-79927642D01*
X148836288Y-79932424D01*
X148836289Y-79932428D01*
X148890681Y-80066379D01*
X148921484Y-80142237D01*
X149042501Y-80339719D01*
X149194147Y-80514784D01*
X149372349Y-80662730D01*
X149572322Y-80779584D01*
X149788694Y-80862209D01*
X149793760Y-80863240D01*
X149793761Y-80863240D01*
X149846846Y-80874040D01*
X150015656Y-80908385D01*
X150146324Y-80913176D01*
X150241949Y-80916683D01*
X150241953Y-80916683D01*
X150247113Y-80916872D01*
X150252233Y-80916216D01*
X150252235Y-80916216D01*
X150354353Y-80903134D01*
X150476847Y-80887442D01*
X150481795Y-80885957D01*
X150481802Y-80885956D01*
X150693747Y-80822369D01*
X150698690Y-80820886D01*
X150716976Y-80811928D01*
X150902049Y-80721262D01*
X150902052Y-80721260D01*
X150906684Y-80718991D01*
X151095243Y-80584494D01*
X151259303Y-80421005D01*
X151394458Y-80232917D01*
X151408169Y-80205176D01*
X151494784Y-80029922D01*
X151494785Y-80029920D01*
X151497078Y-80025280D01*
X151564408Y-79803671D01*
X151594640Y-79574041D01*
X151595652Y-79532620D01*
X151596245Y-79508365D01*
X151596245Y-79508361D01*
X151596327Y-79505000D01*
X151593488Y-79470469D01*
X154220095Y-79470469D01*
X154220392Y-79475622D01*
X154220392Y-79475625D01*
X154226067Y-79574041D01*
X154233427Y-79701697D01*
X154234564Y-79706743D01*
X154234565Y-79706749D01*
X154266741Y-79849523D01*
X154284346Y-79927642D01*
X154286288Y-79932424D01*
X154286289Y-79932428D01*
X154340681Y-80066379D01*
X154371484Y-80142237D01*
X154492501Y-80339719D01*
X154644147Y-80514784D01*
X154822349Y-80662730D01*
X155022322Y-80779584D01*
X155238694Y-80862209D01*
X155243760Y-80863240D01*
X155243761Y-80863240D01*
X155296846Y-80874040D01*
X155465656Y-80908385D01*
X155596324Y-80913176D01*
X155691949Y-80916683D01*
X155691953Y-80916683D01*
X155697113Y-80916872D01*
X155702233Y-80916216D01*
X155702235Y-80916216D01*
X155804353Y-80903134D01*
X155926847Y-80887442D01*
X155931795Y-80885957D01*
X155931802Y-80885956D01*
X156143747Y-80822369D01*
X156148690Y-80820886D01*
X156166976Y-80811928D01*
X156352049Y-80721262D01*
X156352052Y-80721260D01*
X156356684Y-80718991D01*
X156545243Y-80584494D01*
X156709303Y-80421005D01*
X156844458Y-80232917D01*
X156858169Y-80205176D01*
X156944784Y-80029922D01*
X156944785Y-80029920D01*
X156947078Y-80025280D01*
X157014408Y-79803671D01*
X157044640Y-79574041D01*
X157045652Y-79532620D01*
X157046245Y-79508365D01*
X157046245Y-79508361D01*
X157046327Y-79505000D01*
X157038960Y-79415388D01*
X157027773Y-79279318D01*
X157027772Y-79279312D01*
X157027349Y-79274167D01*
X156985729Y-79108469D01*
X156972184Y-79054544D01*
X156972183Y-79054540D01*
X156970925Y-79049533D01*
X156968866Y-79044797D01*
X156880630Y-78841868D01*
X156880628Y-78841865D01*
X156878570Y-78837131D01*
X156752764Y-78642665D01*
X156596887Y-78471358D01*
X156592836Y-78468159D01*
X156592832Y-78468155D01*
X156419177Y-78331011D01*
X156419172Y-78331008D01*
X156415123Y-78327810D01*
X156410607Y-78325317D01*
X156410604Y-78325315D01*
X156216879Y-78218373D01*
X156216875Y-78218371D01*
X156212355Y-78215876D01*
X156207486Y-78214152D01*
X156207482Y-78214150D01*
X155998903Y-78140288D01*
X155998899Y-78140287D01*
X155994028Y-78138562D01*
X155988935Y-78137655D01*
X155988932Y-78137654D01*
X155771095Y-78098851D01*
X155771089Y-78098850D01*
X155766006Y-78097945D01*
X155693096Y-78097054D01*
X155539581Y-78095179D01*
X155539579Y-78095179D01*
X155534411Y-78095116D01*
X155305464Y-78130150D01*
X155085314Y-78202106D01*
X155080726Y-78204494D01*
X155080722Y-78204496D01*
X154884461Y-78306663D01*
X154879872Y-78309052D01*
X154875739Y-78312155D01*
X154875736Y-78312157D01*
X154708999Y-78437347D01*
X154694655Y-78448117D01*
X154534639Y-78615564D01*
X154531725Y-78619836D01*
X154531724Y-78619837D01*
X154462376Y-78721498D01*
X154404119Y-78806899D01*
X154306602Y-79016981D01*
X154244707Y-79240169D01*
X154220095Y-79470469D01*
X151593488Y-79470469D01*
X151588960Y-79415388D01*
X151577773Y-79279318D01*
X151577772Y-79279312D01*
X151577349Y-79274167D01*
X151535729Y-79108469D01*
X151522184Y-79054544D01*
X151522183Y-79054540D01*
X151520925Y-79049533D01*
X151518866Y-79044797D01*
X151430630Y-78841868D01*
X151430628Y-78841865D01*
X151428570Y-78837131D01*
X151302764Y-78642665D01*
X151146887Y-78471358D01*
X151142836Y-78468159D01*
X151142832Y-78468155D01*
X150969177Y-78331011D01*
X150969172Y-78331008D01*
X150965123Y-78327810D01*
X150960607Y-78325317D01*
X150960604Y-78325315D01*
X150766879Y-78218373D01*
X150766875Y-78218371D01*
X150762355Y-78215876D01*
X150757486Y-78214152D01*
X150757482Y-78214150D01*
X150548903Y-78140288D01*
X150548899Y-78140287D01*
X150544028Y-78138562D01*
X150538935Y-78137655D01*
X150538932Y-78137654D01*
X150321095Y-78098851D01*
X150321089Y-78098850D01*
X150316006Y-78097945D01*
X150243096Y-78097054D01*
X150089581Y-78095179D01*
X150089579Y-78095179D01*
X150084411Y-78095116D01*
X149855464Y-78130150D01*
X149635314Y-78202106D01*
X149630726Y-78204494D01*
X149630722Y-78204496D01*
X149434461Y-78306663D01*
X149429872Y-78309052D01*
X149425739Y-78312155D01*
X149425736Y-78312157D01*
X149258999Y-78437347D01*
X149244655Y-78448117D01*
X149084639Y-78615564D01*
X149081725Y-78619836D01*
X149081724Y-78619837D01*
X149012376Y-78721498D01*
X148954119Y-78806899D01*
X148856602Y-79016981D01*
X148794707Y-79240169D01*
X148770095Y-79470469D01*
X145376656Y-79470469D01*
X145377578Y-79456409D01*
X145379092Y-79444908D01*
X145379529Y-79441590D01*
X145381156Y-79375000D01*
X145376924Y-79323524D01*
X145376500Y-79313200D01*
X145376500Y-78476866D01*
X145369745Y-78414684D01*
X145318615Y-78278295D01*
X145231261Y-78161739D01*
X145114705Y-78074385D01*
X144978316Y-78023255D01*
X144916134Y-78016500D01*
X144032985Y-78016500D01*
X144031446Y-78016491D01*
X143928081Y-78015228D01*
X143928079Y-78015228D01*
X143922911Y-78015165D01*
X143917797Y-78015948D01*
X143914289Y-78016193D01*
X143905496Y-78016500D01*
X141319866Y-78016500D01*
X141257684Y-78023255D01*
X141121295Y-78074385D01*
X141004739Y-78161739D01*
X140917385Y-78278295D01*
X140866255Y-78414684D01*
X140859500Y-78476866D01*
X140859500Y-78615500D01*
X140839498Y-78683621D01*
X140785842Y-78730114D01*
X140733500Y-78741500D01*
X135469500Y-78741500D01*
X135401379Y-78721498D01*
X135354886Y-78667842D01*
X135343500Y-78615500D01*
X135343500Y-78476866D01*
X135336745Y-78414684D01*
X135285615Y-78278295D01*
X135198261Y-78161739D01*
X135081705Y-78074385D01*
X134945316Y-78023255D01*
X134883134Y-78016500D01*
X133086866Y-78016500D01*
X133024684Y-78023255D01*
X132888295Y-78074385D01*
X132771739Y-78161739D01*
X132684385Y-78278295D01*
X132633255Y-78414684D01*
X132626500Y-78476866D01*
X132626500Y-80273134D01*
X132633255Y-80335316D01*
X132684385Y-80471705D01*
X132771739Y-80588261D01*
X132888295Y-80675615D01*
X132896704Y-80678767D01*
X132896705Y-80678768D01*
X133005451Y-80719535D01*
X133062216Y-80762176D01*
X133086916Y-80828738D01*
X133071709Y-80898087D01*
X133052316Y-80924568D01*
X132925629Y-81057138D01*
X132922715Y-81061410D01*
X132922714Y-81061411D01*
X132886915Y-81113891D01*
X132799743Y-81241680D01*
X132766281Y-81313768D01*
X132708328Y-81438618D01*
X132705688Y-81444305D01*
X132645989Y-81659570D01*
X132622251Y-81881695D01*
X131513766Y-81881695D01*
X131508059Y-77049103D01*
X131509559Y-77029570D01*
X131511805Y-77015147D01*
X131511805Y-77015141D01*
X131513186Y-77006272D01*
X131512009Y-76997271D01*
X131511738Y-76966833D01*
X131518747Y-76904626D01*
X131525026Y-76877118D01*
X131552035Y-76799931D01*
X131564277Y-76774510D01*
X131607788Y-76705263D01*
X131625380Y-76683204D01*
X131683204Y-76625380D01*
X131705263Y-76607788D01*
X131774510Y-76564277D01*
X131799931Y-76552035D01*
X131877119Y-76525026D01*
X131904624Y-76518747D01*
X131916238Y-76517438D01*
X131960262Y-76512478D01*
X131975903Y-76511695D01*
X131984858Y-76511804D01*
X131993732Y-76513186D01*
X132025254Y-76509064D01*
X132041591Y-76508000D01*
X184950670Y-76508000D01*
X184970055Y-76509500D01*
G37*
G04 #@! TD.AperFunction*
G04 #@! TA.AperFunction,Conductor*
G36*
X145453716Y-103391321D02*
G01*
X146594648Y-104532253D01*
X146602188Y-104540539D01*
X146606300Y-104547018D01*
X146612077Y-104552443D01*
X146655951Y-104593643D01*
X146658793Y-104596398D01*
X146678530Y-104616135D01*
X146681727Y-104618615D01*
X146690747Y-104626318D01*
X146722979Y-104656586D01*
X146729925Y-104660405D01*
X146729928Y-104660407D01*
X146740734Y-104666348D01*
X146757253Y-104677199D01*
X146773259Y-104689614D01*
X146780528Y-104692759D01*
X146780532Y-104692762D01*
X146813837Y-104707174D01*
X146824487Y-104712391D01*
X146863240Y-104733695D01*
X146870915Y-104735666D01*
X146870916Y-104735666D01*
X146882862Y-104738733D01*
X146901567Y-104745137D01*
X146920155Y-104753181D01*
X146927978Y-104754420D01*
X146927988Y-104754423D01*
X146963824Y-104760099D01*
X146975444Y-104762505D01*
X147010589Y-104771528D01*
X147018270Y-104773500D01*
X147038524Y-104773500D01*
X147058234Y-104775051D01*
X147078243Y-104778220D01*
X147086135Y-104777474D01*
X147122261Y-104774059D01*
X147134119Y-104773500D01*
X153664274Y-104773500D01*
X153732395Y-104793502D01*
X153771707Y-104833665D01*
X153776862Y-104842077D01*
X153839987Y-104945088D01*
X153986250Y-105113938D01*
X154158126Y-105256632D01*
X154228595Y-105297811D01*
X154231445Y-105299476D01*
X154280169Y-105351114D01*
X154293240Y-105420897D01*
X154266509Y-105486669D01*
X154226055Y-105520027D01*
X154213607Y-105526507D01*
X154209474Y-105529610D01*
X154209471Y-105529612D01*
X154039100Y-105657530D01*
X154034965Y-105660635D01*
X153880629Y-105822138D01*
X153754743Y-106006680D01*
X153719312Y-106083010D01*
X153680050Y-106167594D01*
X153660688Y-106209305D01*
X153600989Y-106424570D01*
X153577251Y-106646695D01*
X153577548Y-106651848D01*
X153577548Y-106651851D01*
X153583011Y-106746590D01*
X153590110Y-106869715D01*
X153591247Y-106874761D01*
X153591248Y-106874767D01*
X153604978Y-106935690D01*
X153639222Y-107087639D01*
X153723266Y-107294616D01*
X153773631Y-107376804D01*
X153818811Y-107450531D01*
X153839987Y-107485088D01*
X153855334Y-107502805D01*
X153859283Y-107507364D01*
X153888765Y-107571950D01*
X153878650Y-107642222D01*
X153853140Y-107678956D01*
X145590200Y-115941895D01*
X145527888Y-115975921D01*
X145457073Y-115970856D01*
X145400237Y-115928309D01*
X145375426Y-115861789D01*
X145375842Y-115839194D01*
X145376131Y-115836536D01*
X145376132Y-115836526D01*
X145376500Y-115833134D01*
X145376500Y-115032856D01*
X145377578Y-115016409D01*
X145379092Y-115004908D01*
X145379529Y-115001590D01*
X145379611Y-114998240D01*
X145381074Y-114938365D01*
X145381074Y-114938361D01*
X145381156Y-114935000D01*
X145376924Y-114883524D01*
X145376500Y-114873200D01*
X145376500Y-114036866D01*
X145369745Y-113974684D01*
X145318615Y-113838295D01*
X145245370Y-113740564D01*
X145220522Y-113674059D01*
X145235575Y-113604676D01*
X145245370Y-113589435D01*
X145318615Y-113491705D01*
X145369745Y-113355316D01*
X145376500Y-113293134D01*
X145376500Y-112492856D01*
X145377578Y-112476409D01*
X145379092Y-112464908D01*
X145379529Y-112461590D01*
X145379611Y-112458240D01*
X145381074Y-112398365D01*
X145381074Y-112398361D01*
X145381156Y-112395000D01*
X145376924Y-112343524D01*
X145376500Y-112333200D01*
X145376500Y-111496866D01*
X145369745Y-111434684D01*
X145318615Y-111298295D01*
X145249449Y-111206007D01*
X145245058Y-111200148D01*
X145220210Y-111133642D01*
X145235263Y-111064259D01*
X145245058Y-111049018D01*
X145312786Y-110958649D01*
X145321324Y-110943054D01*
X145366478Y-110822606D01*
X145370105Y-110807351D01*
X145375631Y-110756486D01*
X145376000Y-110749672D01*
X145376000Y-110127115D01*
X145371525Y-110111876D01*
X145370135Y-110110671D01*
X145362452Y-110109000D01*
X140878116Y-110109000D01*
X140862877Y-110113475D01*
X140861672Y-110114865D01*
X140860001Y-110122548D01*
X140860001Y-110749669D01*
X140860371Y-110756490D01*
X140865895Y-110807352D01*
X140869521Y-110822604D01*
X140914676Y-110943054D01*
X140923214Y-110958649D01*
X140990942Y-111049018D01*
X141015790Y-111115525D01*
X141000737Y-111184907D01*
X140990942Y-111200148D01*
X140986551Y-111206007D01*
X140917385Y-111298295D01*
X140866255Y-111434684D01*
X140859500Y-111496866D01*
X140859500Y-113293134D01*
X140866255Y-113355316D01*
X140917385Y-113491705D01*
X140990630Y-113589435D01*
X141015478Y-113655941D01*
X141000425Y-113725324D01*
X140990632Y-113740562D01*
X140917385Y-113838295D01*
X140866255Y-113974684D01*
X140859500Y-114036866D01*
X140859500Y-115833134D01*
X140866255Y-115895316D01*
X140917385Y-116031705D01*
X140990630Y-116129435D01*
X141015478Y-116195941D01*
X141000425Y-116265324D01*
X140990632Y-116280562D01*
X140917385Y-116378295D01*
X140866255Y-116514684D01*
X140859500Y-116576866D01*
X140859500Y-118373134D01*
X140866255Y-118435316D01*
X140917385Y-118571705D01*
X140922771Y-118578891D01*
X140990630Y-118669435D01*
X141015478Y-118735941D01*
X141000425Y-118805324D01*
X140990632Y-118820562D01*
X140917385Y-118918295D01*
X140866255Y-119054684D01*
X140859500Y-119116866D01*
X140859500Y-120913134D01*
X140866255Y-120975316D01*
X140917385Y-121111705D01*
X140922771Y-121118891D01*
X140990942Y-121209852D01*
X141015790Y-121276358D01*
X141000737Y-121345741D01*
X140990942Y-121360982D01*
X140923214Y-121451351D01*
X140914676Y-121466946D01*
X140869522Y-121587394D01*
X140865895Y-121602649D01*
X140860369Y-121653514D01*
X140860000Y-121660328D01*
X140860001Y-122345928D01*
X140839999Y-122414049D01*
X140786343Y-122460542D01*
X140716070Y-122470646D01*
X140651489Y-122441153D01*
X140644906Y-122435023D01*
X135829916Y-117620033D01*
X135795890Y-117557721D01*
X135793011Y-117530938D01*
X135793011Y-115553274D01*
X135793538Y-115542090D01*
X135795212Y-115534602D01*
X135793073Y-115466543D01*
X135793011Y-115462586D01*
X135793011Y-115434655D01*
X135792505Y-115430649D01*
X135791572Y-115418803D01*
X135790433Y-115382548D01*
X135790184Y-115374621D01*
X135784533Y-115355169D01*
X135780525Y-115335817D01*
X135778979Y-115323579D01*
X135778978Y-115323577D01*
X135777985Y-115315714D01*
X135761705Y-115274597D01*
X135757870Y-115263396D01*
X135745529Y-115220917D01*
X135741496Y-115214098D01*
X135741494Y-115214093D01*
X135735218Y-115203482D01*
X135726521Y-115185732D01*
X135719063Y-115166894D01*
X135693082Y-115131134D01*
X135686564Y-115121212D01*
X135668089Y-115089971D01*
X135668085Y-115089966D01*
X135664053Y-115083148D01*
X135649729Y-115068824D01*
X135636887Y-115053789D01*
X135624983Y-115037404D01*
X135590917Y-115009222D01*
X135582138Y-115001233D01*
X135336218Y-114755313D01*
X135302192Y-114693001D01*
X135304755Y-114629589D01*
X135315865Y-114593022D01*
X135317370Y-114588069D01*
X135346529Y-114366590D01*
X135348156Y-114300000D01*
X135329852Y-114077361D01*
X135275431Y-113860702D01*
X135186354Y-113655840D01*
X135131655Y-113571288D01*
X135067824Y-113472620D01*
X135067822Y-113472617D01*
X135065014Y-113468277D01*
X135061533Y-113464452D01*
X135058379Y-113460356D01*
X135060213Y-113458943D01*
X135033397Y-113403820D01*
X135041785Y-113333321D01*
X135068545Y-113293759D01*
X140644405Y-107717900D01*
X140706717Y-107683874D01*
X140777532Y-107688939D01*
X140834368Y-107731486D01*
X140859179Y-107798006D01*
X140859500Y-107806995D01*
X140859500Y-108213134D01*
X140866255Y-108275316D01*
X140917385Y-108411705D01*
X140922771Y-108418891D01*
X140990942Y-108509852D01*
X141015790Y-108576358D01*
X141000737Y-108645741D01*
X140990942Y-108660982D01*
X140923214Y-108751351D01*
X140914676Y-108766946D01*
X140869522Y-108887394D01*
X140865895Y-108902649D01*
X140860369Y-108953514D01*
X140860000Y-108960328D01*
X140860000Y-109582885D01*
X140864475Y-109598124D01*
X140865865Y-109599329D01*
X140873548Y-109601000D01*
X145357884Y-109601000D01*
X145373123Y-109596525D01*
X145374328Y-109595135D01*
X145375999Y-109587452D01*
X145375999Y-108960331D01*
X145375629Y-108953510D01*
X145370105Y-108902648D01*
X145366479Y-108887396D01*
X145321324Y-108766946D01*
X145312786Y-108751351D01*
X145245058Y-108660982D01*
X145220210Y-108594475D01*
X145235263Y-108525093D01*
X145245058Y-108509852D01*
X145313229Y-108418891D01*
X145318615Y-108411705D01*
X145369745Y-108275316D01*
X145376500Y-108213134D01*
X145376500Y-107412856D01*
X145377578Y-107396409D01*
X145379092Y-107384908D01*
X145379529Y-107381590D01*
X145379611Y-107378240D01*
X145381074Y-107318365D01*
X145381074Y-107318361D01*
X145381156Y-107315000D01*
X145376924Y-107263524D01*
X145376500Y-107253200D01*
X145376500Y-106416866D01*
X145369745Y-106354684D01*
X145318615Y-106218295D01*
X145245370Y-106120564D01*
X145220522Y-106054059D01*
X145235575Y-105984676D01*
X145245370Y-105969435D01*
X145266288Y-105941524D01*
X145318615Y-105871705D01*
X145369745Y-105735316D01*
X145376500Y-105673134D01*
X145376500Y-104872856D01*
X145377578Y-104856409D01*
X145379092Y-104844908D01*
X145379529Y-104841590D01*
X145379611Y-104838240D01*
X145381074Y-104778365D01*
X145381074Y-104778361D01*
X145381156Y-104775000D01*
X145376924Y-104723524D01*
X145376500Y-104713200D01*
X145376500Y-103876866D01*
X145369745Y-103814684D01*
X145318615Y-103678295D01*
X145245370Y-103580564D01*
X145220522Y-103514059D01*
X145235575Y-103444676D01*
X145245364Y-103429444D01*
X145263797Y-103404849D01*
X145320655Y-103362336D01*
X145391474Y-103357311D01*
X145453716Y-103391321D01*
G37*
G04 #@! TD.AperFunction*
G04 #@! TA.AperFunction,Conductor*
G36*
X160357532Y-107562938D02*
G01*
X160414368Y-107605485D01*
X160439179Y-107672005D01*
X160439500Y-107680994D01*
X160439500Y-108213134D01*
X160446255Y-108275316D01*
X160497385Y-108411705D01*
X160502771Y-108418891D01*
X160570942Y-108509852D01*
X160595790Y-108576358D01*
X160580737Y-108645741D01*
X160570942Y-108660982D01*
X160503214Y-108751351D01*
X160494676Y-108766946D01*
X160449522Y-108887394D01*
X160445895Y-108902649D01*
X160440369Y-108953514D01*
X160440000Y-108960328D01*
X160440000Y-109582885D01*
X160444475Y-109598124D01*
X160445865Y-109599329D01*
X160453548Y-109601000D01*
X163070000Y-109601000D01*
X163138121Y-109621002D01*
X163184614Y-109674658D01*
X163196000Y-109727000D01*
X163196000Y-109983000D01*
X163175998Y-110051121D01*
X163122342Y-110097614D01*
X163070000Y-110109000D01*
X160458116Y-110109000D01*
X160442877Y-110113475D01*
X160441672Y-110114865D01*
X160440001Y-110122548D01*
X160440001Y-110749669D01*
X160440371Y-110756490D01*
X160445895Y-110807352D01*
X160449521Y-110822604D01*
X160494676Y-110943054D01*
X160503214Y-110958649D01*
X160570942Y-111049018D01*
X160595790Y-111115525D01*
X160580737Y-111184907D01*
X160570942Y-111200148D01*
X160566551Y-111206007D01*
X160497385Y-111298295D01*
X160446255Y-111434684D01*
X160439500Y-111496866D01*
X160439500Y-112315219D01*
X160438787Y-112328607D01*
X160435251Y-112361695D01*
X160435548Y-112366848D01*
X160435548Y-112366851D01*
X160439291Y-112431763D01*
X160439500Y-112439016D01*
X160439500Y-113293134D01*
X160446255Y-113355316D01*
X160497385Y-113491705D01*
X160570630Y-113589435D01*
X160595478Y-113655941D01*
X160580425Y-113725324D01*
X160570632Y-113740562D01*
X160497385Y-113838295D01*
X160446255Y-113974684D01*
X160439500Y-114036866D01*
X160439500Y-114855219D01*
X160438787Y-114868607D01*
X160435251Y-114901695D01*
X160435548Y-114906848D01*
X160435548Y-114906851D01*
X160439291Y-114971763D01*
X160439500Y-114979016D01*
X160439500Y-115833134D01*
X160446255Y-115895316D01*
X160477402Y-115978401D01*
X160497385Y-116031705D01*
X160495167Y-116032537D01*
X160507590Y-116089355D01*
X160482851Y-116155901D01*
X160426060Y-116198509D01*
X160381902Y-116206500D01*
X156216805Y-116206500D01*
X156148684Y-116186498D01*
X156111013Y-116148940D01*
X156022822Y-116012617D01*
X156022820Y-116012614D01*
X156020014Y-116008277D01*
X155869670Y-115843051D01*
X155865619Y-115839852D01*
X155865615Y-115839848D01*
X155698414Y-115707800D01*
X155698410Y-115707798D01*
X155694359Y-115704598D01*
X155653053Y-115681796D01*
X155603084Y-115631364D01*
X155588312Y-115561921D01*
X155613428Y-115495516D01*
X155640780Y-115468909D01*
X155702691Y-115424748D01*
X155819860Y-115341173D01*
X155870439Y-115290771D01*
X155974435Y-115187137D01*
X155978096Y-115183489D01*
X156037594Y-115100689D01*
X156105435Y-115006277D01*
X156108453Y-115002077D01*
X156119851Y-114979016D01*
X156205136Y-114806453D01*
X156205137Y-114806451D01*
X156207430Y-114801811D01*
X156272370Y-114588069D01*
X156301529Y-114366590D01*
X156303156Y-114300000D01*
X156284852Y-114077361D01*
X156230431Y-113860702D01*
X156141354Y-113655840D01*
X156086655Y-113571288D01*
X156022822Y-113472617D01*
X156022820Y-113472614D01*
X156020014Y-113468277D01*
X155869670Y-113303051D01*
X155865619Y-113299852D01*
X155865615Y-113299848D01*
X155698414Y-113167800D01*
X155698410Y-113167798D01*
X155694359Y-113164598D01*
X155653053Y-113141796D01*
X155603084Y-113091364D01*
X155588312Y-113021921D01*
X155613428Y-112955516D01*
X155640780Y-112928909D01*
X155684603Y-112897650D01*
X155819860Y-112801173D01*
X155978096Y-112643489D01*
X156037594Y-112560689D01*
X156105435Y-112466277D01*
X156108453Y-112462077D01*
X156119851Y-112439016D01*
X156205136Y-112266453D01*
X156205137Y-112266451D01*
X156207430Y-112261811D01*
X156272370Y-112048069D01*
X156301529Y-111826590D01*
X156303156Y-111760000D01*
X156289184Y-111590057D01*
X156303537Y-111520528D01*
X156325665Y-111490639D01*
X160224405Y-107591899D01*
X160286717Y-107557873D01*
X160357532Y-107562938D01*
G37*
G04 #@! TD.AperFunction*
G04 #@! TA.AperFunction,Conductor*
G36*
X135315324Y-92657575D02*
G01*
X135330562Y-92667368D01*
X135428295Y-92740615D01*
X135436704Y-92743767D01*
X135436705Y-92743768D01*
X135545960Y-92784726D01*
X135602725Y-92827367D01*
X135627425Y-92893929D01*
X135612218Y-92963278D01*
X135592825Y-92989759D01*
X135469590Y-93118717D01*
X135463109Y-93126722D01*
X135358498Y-93280074D01*
X135303587Y-93325076D01*
X135233062Y-93333247D01*
X135169315Y-93301993D01*
X135148618Y-93277509D01*
X135067822Y-93152617D01*
X135067820Y-93152614D01*
X135065014Y-93148277D01*
X135061532Y-93144450D01*
X134917798Y-92986488D01*
X134886746Y-92922642D01*
X134895141Y-92852143D01*
X134940317Y-92797375D01*
X134966761Y-92783706D01*
X135073297Y-92743767D01*
X135081705Y-92740615D01*
X135179436Y-92667370D01*
X135245941Y-92642522D01*
X135315324Y-92657575D01*
G37*
G04 #@! TD.AperFunction*
M02*
